<?xml version="1.0" encoding="utf-8" standalone="no"?>
<!DOCTYPE svg PUBLIC "-//W3C//DTD SVG 1.1//EN"
  "http://www.w3.org/Graphics/SVG/1.1/DTD/svg11.dtd">
<!-- Created with matplotlib (https://matplotlib.org/) -->
<svg height="504.757969pt" version="1.1" viewBox="0 0 730.718362 504.757969" width="730.718362pt" xmlns="http://www.w3.org/2000/svg" xmlns:xlink="http://www.w3.org/1999/xlink">
 <defs>
  <style type="text/css">
*{stroke-linecap:butt;stroke-linejoin:round;}
  </style>
 </defs>
 <g id="figure_1">
  <g id="patch_1">
   <path d="M 0 504.757969 
L 730.718362 504.757969 
L 730.718362 0 
L 0 0 
z
" style="fill:none;"/>
  </g>
  <g id="axes_1">
   <g id="patch_2">
    <path d="M 89.313563 446.88 
L 647.313562 446.88 
L 647.313562 12 
L 89.313563 12 
z
" style="fill:none;"/>
   </g>
   <g id="matplotlib.axis_1">
    <g id="xtick_1">
     <g id="line2d_1">
      <defs>
       <path d="M 0 0 
L 0 4.8 
" id="ma55164be3b" style="stroke:#262626;stroke-width:2.5;"/>
      </defs>
      <g>
       <use style="fill:#262626;stroke:#262626;stroke-width:2.5;" x="107.401665" xlink:href="#ma55164be3b" y="446.88"/>
      </g>
     </g>
     <g id="text_1">
      <!-- 0 -->
      <defs>
       <path d="M 4.15625 35.296875 
Q 4.15625 48 6.765625 55.734375 
Q 9.375 63.484375 14.515625 67.671875 
Q 19.671875 71.875 27.484375 71.875 
Q 33.25 71.875 37.59375 69.546875 
Q 41.9375 67.234375 44.765625 62.859375 
Q 47.609375 58.5 49.21875 52.21875 
Q 50.828125 45.953125 50.828125 35.296875 
Q 50.828125 22.703125 48.234375 14.96875 
Q 45.65625 7.234375 40.5 3 
Q 35.359375 -1.21875 27.484375 -1.21875 
Q 17.140625 -1.21875 11.234375 6.203125 
Q 4.15625 15.140625 4.15625 35.296875 
z
M 13.1875 35.296875 
Q 13.1875 17.671875 17.3125 11.828125 
Q 21.4375 6 27.484375 6 
Q 33.546875 6 37.671875 11.859375 
Q 41.796875 17.71875 41.796875 35.296875 
Q 41.796875 52.984375 37.671875 58.78125 
Q 33.546875 64.59375 27.390625 64.59375 
Q 21.34375 64.59375 17.71875 59.46875 
Q 13.1875 52.9375 13.1875 35.296875 
z
" id="ArialMT-48"/>
      </defs>
      <g style="fill:#262626;" transform="translate(101.896337 469.352469)scale(0.198 -0.198)">
       <use xlink:href="#ArialMT-48"/>
      </g>
     </g>
    </g>
    <g id="xtick_2">
     <g id="line2d_2">
      <g>
       <use style="fill:#262626;stroke:#262626;stroke-width:2.5;" x="169.647496" xlink:href="#ma55164be3b" y="446.88"/>
      </g>
     </g>
     <g id="text_2">
      <!-- 100 -->
      <defs>
       <path d="M 37.25 0 
L 28.46875 0 
L 28.46875 56 
Q 25.296875 52.984375 20.140625 49.953125 
Q 14.984375 46.921875 10.890625 45.40625 
L 10.890625 53.90625 
Q 18.265625 57.375 23.78125 62.296875 
Q 29.296875 67.234375 31.59375 71.875 
L 37.25 71.875 
z
" id="ArialMT-49"/>
      </defs>
      <g style="fill:#262626;" transform="translate(153.131512 469.352469)scale(0.198 -0.198)">
       <use xlink:href="#ArialMT-49"/>
       <use x="55.615234" xlink:href="#ArialMT-48"/>
       <use x="111.230469" xlink:href="#ArialMT-48"/>
      </g>
     </g>
    </g>
    <g id="xtick_3">
     <g id="line2d_3">
      <g>
       <use style="fill:#262626;stroke:#262626;stroke-width:2.5;" x="231.893327" xlink:href="#ma55164be3b" y="446.88"/>
      </g>
     </g>
     <g id="text_3">
      <!-- 200 -->
      <defs>
       <path d="M 50.34375 8.453125 
L 50.34375 0 
L 3.03125 0 
Q 2.9375 3.171875 4.046875 6.109375 
Q 5.859375 10.9375 9.828125 15.625 
Q 13.8125 20.3125 21.34375 26.46875 
Q 33.015625 36.03125 37.109375 41.625 
Q 41.21875 47.21875 41.21875 52.203125 
Q 41.21875 57.421875 37.46875 61 
Q 33.734375 64.59375 27.734375 64.59375 
Q 21.390625 64.59375 17.578125 60.78125 
Q 13.765625 56.984375 13.71875 50.25 
L 4.6875 51.171875 
Q 5.609375 61.28125 11.65625 66.578125 
Q 17.71875 71.875 27.9375 71.875 
Q 38.234375 71.875 44.234375 66.15625 
Q 50.25 60.453125 50.25 52 
Q 50.25 47.703125 48.484375 43.546875 
Q 46.734375 39.40625 42.65625 34.8125 
Q 38.578125 30.21875 29.109375 22.21875 
Q 21.1875 15.578125 18.9375 13.203125 
Q 16.703125 10.84375 15.234375 8.453125 
z
" id="ArialMT-50"/>
      </defs>
      <g style="fill:#262626;" transform="translate(215.377343 469.352469)scale(0.198 -0.198)">
       <use xlink:href="#ArialMT-50"/>
       <use x="55.615234" xlink:href="#ArialMT-48"/>
       <use x="111.230469" xlink:href="#ArialMT-48"/>
      </g>
     </g>
    </g>
    <g id="xtick_4">
     <g id="line2d_4">
      <g>
       <use style="fill:#262626;stroke:#262626;stroke-width:2.5;" x="294.139158" xlink:href="#ma55164be3b" y="446.88"/>
      </g>
     </g>
     <g id="text_4">
      <!-- 300 -->
      <defs>
       <path d="M 4.203125 18.890625 
L 12.984375 20.0625 
Q 14.5 12.59375 18.140625 9.296875 
Q 21.78125 6 27 6 
Q 33.203125 6 37.46875 10.296875 
Q 41.75 14.59375 41.75 20.953125 
Q 41.75 27 37.796875 30.921875 
Q 33.84375 34.859375 27.734375 34.859375 
Q 25.25 34.859375 21.53125 33.890625 
L 22.515625 41.609375 
Q 23.390625 41.5 23.921875 41.5 
Q 29.546875 41.5 34.03125 44.421875 
Q 38.53125 47.359375 38.53125 53.46875 
Q 38.53125 58.296875 35.25 61.46875 
Q 31.984375 64.65625 26.8125 64.65625 
Q 21.6875 64.65625 18.265625 61.421875 
Q 14.84375 58.203125 13.875 51.765625 
L 5.078125 53.328125 
Q 6.6875 62.15625 12.390625 67.015625 
Q 18.109375 71.875 26.609375 71.875 
Q 32.46875 71.875 37.390625 69.359375 
Q 42.328125 66.84375 44.9375 62.5 
Q 47.5625 58.15625 47.5625 53.265625 
Q 47.5625 48.640625 45.0625 44.828125 
Q 42.578125 41.015625 37.703125 38.765625 
Q 44.046875 37.3125 47.5625 32.6875 
Q 51.078125 28.078125 51.078125 21.140625 
Q 51.078125 11.765625 44.234375 5.25 
Q 37.40625 -1.265625 26.953125 -1.265625 
Q 17.53125 -1.265625 11.296875 4.34375 
Q 5.078125 9.96875 4.203125 18.890625 
z
" id="ArialMT-51"/>
      </defs>
      <g style="fill:#262626;" transform="translate(277.623174 469.352469)scale(0.198 -0.198)">
       <use xlink:href="#ArialMT-51"/>
       <use x="55.615234" xlink:href="#ArialMT-48"/>
       <use x="111.230469" xlink:href="#ArialMT-48"/>
      </g>
     </g>
    </g>
    <g id="xtick_5">
     <g id="line2d_5">
      <g>
       <use style="fill:#262626;stroke:#262626;stroke-width:2.5;" x="356.384989" xlink:href="#ma55164be3b" y="446.88"/>
      </g>
     </g>
     <g id="text_5">
      <!-- 400 -->
      <defs>
       <path d="M 32.328125 0 
L 32.328125 17.140625 
L 1.265625 17.140625 
L 1.265625 25.203125 
L 33.9375 71.578125 
L 41.109375 71.578125 
L 41.109375 25.203125 
L 50.78125 25.203125 
L 50.78125 17.140625 
L 41.109375 17.140625 
L 41.109375 0 
z
M 32.328125 25.203125 
L 32.328125 57.46875 
L 9.90625 25.203125 
z
" id="ArialMT-52"/>
      </defs>
      <g style="fill:#262626;" transform="translate(339.869005 469.352469)scale(0.198 -0.198)">
       <use xlink:href="#ArialMT-52"/>
       <use x="55.615234" xlink:href="#ArialMT-48"/>
       <use x="111.230469" xlink:href="#ArialMT-48"/>
      </g>
     </g>
    </g>
    <g id="xtick_6">
     <g id="line2d_6">
      <g>
       <use style="fill:#262626;stroke:#262626;stroke-width:2.5;" x="418.630821" xlink:href="#ma55164be3b" y="446.88"/>
      </g>
     </g>
     <g id="text_6">
      <!-- 500 -->
      <defs>
       <path d="M 4.15625 18.75 
L 13.375 19.53125 
Q 14.40625 12.796875 18.140625 9.390625 
Q 21.875 6 27.15625 6 
Q 33.5 6 37.890625 10.78125 
Q 42.28125 15.578125 42.28125 23.484375 
Q 42.28125 31 38.0625 35.34375 
Q 33.84375 39.703125 27 39.703125 
Q 22.75 39.703125 19.328125 37.765625 
Q 15.921875 35.84375 13.96875 32.765625 
L 5.71875 33.84375 
L 12.640625 70.609375 
L 48.25 70.609375 
L 48.25 62.203125 
L 19.671875 62.203125 
L 15.828125 42.96875 
Q 22.265625 47.46875 29.34375 47.46875 
Q 38.71875 47.46875 45.15625 40.96875 
Q 51.609375 34.46875 51.609375 24.265625 
Q 51.609375 14.546875 45.953125 7.46875 
Q 39.0625 -1.21875 27.15625 -1.21875 
Q 17.390625 -1.21875 11.203125 4.25 
Q 5.03125 9.71875 4.15625 18.75 
z
" id="ArialMT-53"/>
      </defs>
      <g style="fill:#262626;" transform="translate(402.114836 469.352469)scale(0.198 -0.198)">
       <use xlink:href="#ArialMT-53"/>
       <use x="55.615234" xlink:href="#ArialMT-48"/>
       <use x="111.230469" xlink:href="#ArialMT-48"/>
      </g>
     </g>
    </g>
    <g id="xtick_7">
     <g id="line2d_7">
      <g>
       <use style="fill:#262626;stroke:#262626;stroke-width:2.5;" x="480.876652" xlink:href="#ma55164be3b" y="446.88"/>
      </g>
     </g>
     <g id="text_7">
      <!-- 600 -->
      <defs>
       <path d="M 49.75 54.046875 
L 41.015625 53.375 
Q 39.84375 58.546875 37.703125 60.890625 
Q 34.125 64.65625 28.90625 64.65625 
Q 24.703125 64.65625 21.53125 62.3125 
Q 17.390625 59.28125 14.984375 53.46875 
Q 12.59375 47.65625 12.5 36.921875 
Q 15.671875 41.75 20.265625 44.09375 
Q 24.859375 46.4375 29.890625 46.4375 
Q 38.671875 46.4375 44.84375 39.96875 
Q 51.03125 33.5 51.03125 23.25 
Q 51.03125 16.5 48.125 10.71875 
Q 45.21875 4.9375 40.140625 1.859375 
Q 35.0625 -1.21875 28.609375 -1.21875 
Q 17.625 -1.21875 10.6875 6.859375 
Q 3.765625 14.9375 3.765625 33.5 
Q 3.765625 54.25 11.421875 63.671875 
Q 18.109375 71.875 29.4375 71.875 
Q 37.890625 71.875 43.28125 67.140625 
Q 48.6875 62.40625 49.75 54.046875 
z
M 13.875 23.1875 
Q 13.875 18.65625 15.796875 14.5 
Q 17.71875 10.359375 21.1875 8.171875 
Q 24.65625 6 28.46875 6 
Q 34.03125 6 38.03125 10.484375 
Q 42.046875 14.984375 42.046875 22.703125 
Q 42.046875 30.125 38.078125 34.390625 
Q 34.125 38.671875 28.125 38.671875 
Q 22.171875 38.671875 18.015625 34.390625 
Q 13.875 30.125 13.875 23.1875 
z
" id="ArialMT-54"/>
      </defs>
      <g style="fill:#262626;" transform="translate(464.360667 469.352469)scale(0.198 -0.198)">
       <use xlink:href="#ArialMT-54"/>
       <use x="55.615234" xlink:href="#ArialMT-48"/>
       <use x="111.230469" xlink:href="#ArialMT-48"/>
      </g>
     </g>
    </g>
    <g id="xtick_8">
     <g id="line2d_8">
      <g>
       <use style="fill:#262626;stroke:#262626;stroke-width:2.5;" x="543.122483" xlink:href="#ma55164be3b" y="446.88"/>
      </g>
     </g>
     <g id="text_8">
      <!-- 700 -->
      <defs>
       <path d="M 4.734375 62.203125 
L 4.734375 70.65625 
L 51.078125 70.65625 
L 51.078125 63.8125 
Q 44.234375 56.546875 37.515625 44.484375 
Q 30.8125 32.421875 27.15625 19.671875 
Q 24.515625 10.6875 23.78125 0 
L 14.75 0 
Q 14.890625 8.453125 18.0625 20.40625 
Q 21.234375 32.375 27.171875 43.484375 
Q 33.109375 54.59375 39.796875 62.203125 
z
" id="ArialMT-55"/>
      </defs>
      <g style="fill:#262626;" transform="translate(526.606498 469.352469)scale(0.198 -0.198)">
       <use xlink:href="#ArialMT-55"/>
       <use x="55.615234" xlink:href="#ArialMT-48"/>
       <use x="111.230469" xlink:href="#ArialMT-48"/>
      </g>
     </g>
    </g>
    <g id="xtick_9">
     <g id="line2d_9">
      <g>
       <use style="fill:#262626;stroke:#262626;stroke-width:2.5;" x="605.368314" xlink:href="#ma55164be3b" y="446.88"/>
      </g>
     </g>
     <g id="text_9">
      <!-- 800 -->
      <defs>
       <path d="M 17.671875 38.8125 
Q 12.203125 40.828125 9.5625 44.53125 
Q 6.9375 48.25 6.9375 53.421875 
Q 6.9375 61.234375 12.546875 66.546875 
Q 18.171875 71.875 27.484375 71.875 
Q 36.859375 71.875 42.578125 66.421875 
Q 48.296875 60.984375 48.296875 53.171875 
Q 48.296875 48.1875 45.671875 44.5 
Q 43.0625 40.828125 37.75 38.8125 
Q 44.34375 36.671875 47.78125 31.875 
Q 51.21875 27.09375 51.21875 20.453125 
Q 51.21875 11.28125 44.71875 5.03125 
Q 38.234375 -1.21875 27.640625 -1.21875 
Q 17.046875 -1.21875 10.546875 5.046875 
Q 4.046875 11.328125 4.046875 20.703125 
Q 4.046875 27.6875 7.59375 32.390625 
Q 11.140625 37.109375 17.671875 38.8125 
z
M 15.921875 53.71875 
Q 15.921875 48.640625 19.1875 45.40625 
Q 22.46875 42.1875 27.6875 42.1875 
Q 32.765625 42.1875 36.015625 45.375 
Q 39.265625 48.578125 39.265625 53.21875 
Q 39.265625 58.0625 35.90625 61.359375 
Q 32.5625 64.65625 27.59375 64.65625 
Q 22.5625 64.65625 19.234375 61.421875 
Q 15.921875 58.203125 15.921875 53.71875 
z
M 13.09375 20.65625 
Q 13.09375 16.890625 14.875 13.375 
Q 16.65625 9.859375 20.171875 7.921875 
Q 23.6875 6 27.734375 6 
Q 34.03125 6 38.125 10.046875 
Q 42.234375 14.109375 42.234375 20.359375 
Q 42.234375 26.703125 38.015625 30.859375 
Q 33.796875 35.015625 27.4375 35.015625 
Q 21.234375 35.015625 17.15625 30.90625 
Q 13.09375 26.8125 13.09375 20.65625 
z
" id="ArialMT-56"/>
      </defs>
      <g style="fill:#262626;" transform="translate(588.85233 469.352469)scale(0.198 -0.198)">
       <use xlink:href="#ArialMT-56"/>
       <use x="55.615234" xlink:href="#ArialMT-48"/>
       <use x="111.230469" xlink:href="#ArialMT-48"/>
      </g>
     </g>
    </g>
    <g id="text_10">
     <!-- Melting Temperature (K) -->
     <defs>
      <path d="M 7.421875 0 
L 7.421875 71.578125 
L 21.6875 71.578125 
L 38.625 20.90625 
Q 40.96875 13.8125 42.046875 10.296875 
Q 43.265625 14.203125 45.84375 21.78125 
L 62.984375 71.578125 
L 75.734375 71.578125 
L 75.734375 0 
L 66.609375 0 
L 66.609375 59.90625 
L 45.796875 0 
L 37.25 0 
L 16.546875 60.9375 
L 16.546875 0 
z
" id="ArialMT-77"/>
      <path d="M 42.09375 16.703125 
L 51.171875 15.578125 
Q 49.03125 7.625 43.21875 3.21875 
Q 37.40625 -1.171875 28.375 -1.171875 
Q 17 -1.171875 10.328125 5.828125 
Q 3.65625 12.84375 3.65625 25.484375 
Q 3.65625 38.578125 10.390625 45.796875 
Q 17.140625 53.03125 27.875 53.03125 
Q 38.28125 53.03125 44.875 45.953125 
Q 51.46875 38.875 51.46875 26.03125 
Q 51.46875 25.25 51.421875 23.6875 
L 12.75 23.6875 
Q 13.234375 15.140625 17.578125 10.59375 
Q 21.921875 6.0625 28.421875 6.0625 
Q 33.25 6.0625 36.671875 8.59375 
Q 40.09375 11.140625 42.09375 16.703125 
z
M 13.234375 30.90625 
L 42.1875 30.90625 
Q 41.609375 37.453125 38.875 40.71875 
Q 34.671875 45.796875 27.984375 45.796875 
Q 21.921875 45.796875 17.796875 41.75 
Q 13.671875 37.703125 13.234375 30.90625 
z
" id="ArialMT-101"/>
      <path d="M 6.390625 0 
L 6.390625 71.578125 
L 15.1875 71.578125 
L 15.1875 0 
z
" id="ArialMT-108"/>
      <path d="M 25.78125 7.859375 
L 27.046875 0.09375 
Q 23.34375 -0.6875 20.40625 -0.6875 
Q 15.625 -0.6875 12.984375 0.828125 
Q 10.359375 2.34375 9.28125 4.8125 
Q 8.203125 7.28125 8.203125 15.1875 
L 8.203125 45.015625 
L 1.765625 45.015625 
L 1.765625 51.859375 
L 8.203125 51.859375 
L 8.203125 64.703125 
L 16.9375 69.96875 
L 16.9375 51.859375 
L 25.78125 51.859375 
L 25.78125 45.015625 
L 16.9375 45.015625 
L 16.9375 14.703125 
Q 16.9375 10.9375 17.40625 9.859375 
Q 17.875 8.796875 18.921875 8.15625 
Q 19.96875 7.515625 21.921875 7.515625 
Q 23.390625 7.515625 25.78125 7.859375 
z
" id="ArialMT-116"/>
      <path d="M 6.640625 61.46875 
L 6.640625 71.578125 
L 15.4375 71.578125 
L 15.4375 61.46875 
z
M 6.640625 0 
L 6.640625 51.859375 
L 15.4375 51.859375 
L 15.4375 0 
z
" id="ArialMT-105"/>
      <path d="M 6.59375 0 
L 6.59375 51.859375 
L 14.5 51.859375 
L 14.5 44.484375 
Q 20.21875 53.03125 31 53.03125 
Q 35.6875 53.03125 39.625 51.34375 
Q 43.5625 49.65625 45.515625 46.921875 
Q 47.46875 44.1875 48.25 40.4375 
Q 48.734375 37.984375 48.734375 31.890625 
L 48.734375 0 
L 39.9375 0 
L 39.9375 31.546875 
Q 39.9375 36.921875 38.90625 39.578125 
Q 37.890625 42.234375 35.28125 43.8125 
Q 32.671875 45.40625 29.15625 45.40625 
Q 23.53125 45.40625 19.453125 41.84375 
Q 15.375 38.28125 15.375 28.328125 
L 15.375 0 
z
" id="ArialMT-110"/>
      <path d="M 4.984375 -4.296875 
L 13.53125 -5.5625 
Q 14.0625 -9.515625 16.5 -11.328125 
Q 19.78125 -13.765625 25.4375 -13.765625 
Q 31.546875 -13.765625 34.859375 -11.328125 
Q 38.1875 -8.890625 39.359375 -4.5 
Q 40.046875 -1.8125 39.984375 6.78125 
Q 34.234375 0 25.640625 0 
Q 14.9375 0 9.078125 7.71875 
Q 3.21875 15.4375 3.21875 26.21875 
Q 3.21875 33.640625 5.90625 39.90625 
Q 8.59375 46.1875 13.6875 49.609375 
Q 18.796875 53.03125 25.6875 53.03125 
Q 34.859375 53.03125 40.828125 45.609375 
L 40.828125 51.859375 
L 48.921875 51.859375 
L 48.921875 7.03125 
Q 48.921875 -5.078125 46.453125 -10.125 
Q 44 -15.1875 38.640625 -18.109375 
Q 33.296875 -21.046875 25.484375 -21.046875 
Q 16.21875 -21.046875 10.5 -16.875 
Q 4.78125 -12.703125 4.984375 -4.296875 
z
M 12.25 26.859375 
Q 12.25 16.65625 16.296875 11.96875 
Q 20.359375 7.28125 26.46875 7.28125 
Q 32.515625 7.28125 36.609375 11.9375 
Q 40.71875 16.609375 40.71875 26.5625 
Q 40.71875 36.078125 36.5 40.90625 
Q 32.28125 45.75 26.3125 45.75 
Q 20.453125 45.75 16.34375 40.984375 
Q 12.25 36.234375 12.25 26.859375 
z
" id="ArialMT-103"/>
      <path id="ArialMT-32"/>
      <path d="M 25.921875 0 
L 25.921875 63.140625 
L 2.34375 63.140625 
L 2.34375 71.578125 
L 59.078125 71.578125 
L 59.078125 63.140625 
L 35.40625 63.140625 
L 35.40625 0 
z
" id="ArialMT-84"/>
      <path d="M 6.59375 0 
L 6.59375 51.859375 
L 14.453125 51.859375 
L 14.453125 44.578125 
Q 16.890625 48.390625 20.9375 50.703125 
Q 25 53.03125 30.171875 53.03125 
Q 35.9375 53.03125 39.625 50.640625 
Q 43.3125 48.25 44.828125 43.953125 
Q 50.984375 53.03125 60.84375 53.03125 
Q 68.5625 53.03125 72.703125 48.75 
Q 76.859375 44.484375 76.859375 35.59375 
L 76.859375 0 
L 68.109375 0 
L 68.109375 32.671875 
Q 68.109375 37.9375 67.25 40.25 
Q 66.40625 42.578125 64.15625 43.984375 
Q 61.921875 45.40625 58.890625 45.40625 
Q 53.421875 45.40625 49.796875 41.765625 
Q 46.1875 38.140625 46.1875 30.125 
L 46.1875 0 
L 37.40625 0 
L 37.40625 33.6875 
Q 37.40625 39.546875 35.25 42.46875 
Q 33.109375 45.40625 28.21875 45.40625 
Q 24.515625 45.40625 21.359375 43.453125 
Q 18.21875 41.5 16.796875 37.734375 
Q 15.375 33.984375 15.375 26.90625 
L 15.375 0 
z
" id="ArialMT-109"/>
      <path d="M 6.59375 -19.875 
L 6.59375 51.859375 
L 14.59375 51.859375 
L 14.59375 45.125 
Q 17.4375 49.078125 21 51.046875 
Q 24.5625 53.03125 29.640625 53.03125 
Q 36.28125 53.03125 41.359375 49.609375 
Q 46.4375 46.1875 49.015625 39.953125 
Q 51.609375 33.734375 51.609375 26.3125 
Q 51.609375 18.359375 48.75 11.984375 
Q 45.90625 5.609375 40.453125 2.21875 
Q 35.015625 -1.171875 29 -1.171875 
Q 24.609375 -1.171875 21.109375 0.6875 
Q 17.625 2.546875 15.375 5.375 
L 15.375 -19.875 
z
M 14.546875 25.640625 
Q 14.546875 15.625 18.59375 10.84375 
Q 22.65625 6.0625 28.421875 6.0625 
Q 34.28125 6.0625 38.453125 11.015625 
Q 42.625 15.96875 42.625 26.375 
Q 42.625 36.28125 38.546875 41.203125 
Q 34.46875 46.140625 28.8125 46.140625 
Q 23.1875 46.140625 18.859375 40.890625 
Q 14.546875 35.640625 14.546875 25.640625 
z
" id="ArialMT-112"/>
      <path d="M 6.5 0 
L 6.5 51.859375 
L 14.40625 51.859375 
L 14.40625 44 
Q 17.4375 49.515625 20 51.265625 
Q 22.5625 53.03125 25.640625 53.03125 
Q 30.078125 53.03125 34.671875 50.203125 
L 31.640625 42.046875 
Q 28.421875 43.953125 25.203125 43.953125 
Q 22.3125 43.953125 20.015625 42.21875 
Q 17.71875 40.484375 16.75 37.40625 
Q 15.28125 32.71875 15.28125 27.15625 
L 15.28125 0 
z
" id="ArialMT-114"/>
      <path d="M 40.4375 6.390625 
Q 35.546875 2.25 31.03125 0.53125 
Q 26.515625 -1.171875 21.34375 -1.171875 
Q 12.796875 -1.171875 8.203125 3 
Q 3.609375 7.171875 3.609375 13.671875 
Q 3.609375 17.484375 5.34375 20.625 
Q 7.078125 23.78125 9.890625 25.6875 
Q 12.703125 27.59375 16.21875 28.5625 
Q 18.796875 29.25 24.03125 29.890625 
Q 34.671875 31.15625 39.703125 32.90625 
Q 39.75 34.71875 39.75 35.203125 
Q 39.75 40.578125 37.25 42.78125 
Q 33.890625 45.75 27.25 45.75 
Q 21.046875 45.75 18.09375 43.578125 
Q 15.140625 41.40625 13.71875 35.890625 
L 5.125 37.0625 
Q 6.296875 42.578125 8.984375 45.96875 
Q 11.671875 49.359375 16.75 51.1875 
Q 21.828125 53.03125 28.515625 53.03125 
Q 35.15625 53.03125 39.296875 51.46875 
Q 43.453125 49.90625 45.40625 47.53125 
Q 47.359375 45.171875 48.140625 41.546875 
Q 48.578125 39.3125 48.578125 33.453125 
L 48.578125 21.734375 
Q 48.578125 9.46875 49.140625 6.21875 
Q 49.703125 2.984375 51.375 0 
L 42.1875 0 
Q 40.828125 2.734375 40.4375 6.390625 
z
M 39.703125 26.03125 
Q 34.90625 24.078125 25.34375 22.703125 
Q 19.921875 21.921875 17.671875 20.9375 
Q 15.4375 19.96875 14.203125 18.09375 
Q 12.984375 16.21875 12.984375 13.921875 
Q 12.984375 10.40625 15.640625 8.0625 
Q 18.3125 5.71875 23.4375 5.71875 
Q 28.515625 5.71875 32.46875 7.9375 
Q 36.421875 10.15625 38.28125 14.015625 
Q 39.703125 17 39.703125 22.796875 
z
" id="ArialMT-97"/>
      <path d="M 40.578125 0 
L 40.578125 7.625 
Q 34.515625 -1.171875 24.125 -1.171875 
Q 19.53125 -1.171875 15.546875 0.578125 
Q 11.578125 2.34375 9.640625 5 
Q 7.71875 7.671875 6.9375 11.53125 
Q 6.390625 14.109375 6.390625 19.734375 
L 6.390625 51.859375 
L 15.1875 51.859375 
L 15.1875 23.09375 
Q 15.1875 16.21875 15.71875 13.8125 
Q 16.546875 10.359375 19.234375 8.375 
Q 21.921875 6.390625 25.875 6.390625 
Q 29.828125 6.390625 33.296875 8.421875 
Q 36.765625 10.453125 38.203125 13.9375 
Q 39.65625 17.4375 39.65625 24.078125 
L 39.65625 51.859375 
L 48.4375 51.859375 
L 48.4375 0 
z
" id="ArialMT-117"/>
      <path d="M 23.390625 -21.046875 
Q 16.109375 -11.859375 11.078125 0.4375 
Q 6.0625 12.75 6.0625 25.921875 
Q 6.0625 37.546875 9.8125 48.1875 
Q 14.203125 60.546875 23.390625 72.796875 
L 29.6875 72.796875 
Q 23.78125 62.640625 21.875 58.296875 
Q 18.890625 51.5625 17.1875 44.234375 
Q 15.09375 35.109375 15.09375 25.875 
Q 15.09375 2.390625 29.6875 -21.046875 
z
" id="ArialMT-40"/>
      <path d="M 7.328125 0 
L 7.328125 71.578125 
L 16.796875 71.578125 
L 16.796875 36.078125 
L 52.34375 71.578125 
L 65.1875 71.578125 
L 35.15625 42.578125 
L 66.5 0 
L 54 0 
L 28.515625 36.234375 
L 16.796875 24.8125 
L 16.796875 0 
z
" id="ArialMT-75"/>
      <path d="M 12.359375 -21.046875 
L 6.0625 -21.046875 
Q 20.65625 2.390625 20.65625 25.875 
Q 20.65625 35.0625 18.5625 44.09375 
Q 16.890625 51.421875 13.921875 58.15625 
Q 12.015625 62.546875 6.0625 72.796875 
L 12.359375 72.796875 
Q 21.53125 60.546875 25.921875 48.1875 
Q 29.6875 37.546875 29.6875 25.921875 
Q 29.6875 12.75 24.625 0.4375 
Q 19.578125 -11.859375 12.359375 -21.046875 
z
" id="ArialMT-41"/>
     </defs>
     <g style="fill:#262626;" transform="translate(251.304 493.011844)scale(0.216 -0.216)">
      <use xlink:href="#ArialMT-77"/>
      <use x="83.300781" xlink:href="#ArialMT-101"/>
      <use x="138.916016" xlink:href="#ArialMT-108"/>
      <use x="161.132812" xlink:href="#ArialMT-116"/>
      <use x="188.916016" xlink:href="#ArialMT-105"/>
      <use x="211.132812" xlink:href="#ArialMT-110"/>
      <use x="266.748047" xlink:href="#ArialMT-103"/>
      <use x="322.363281" xlink:href="#ArialMT-32"/>
      <use x="350.130859" xlink:href="#ArialMT-84"/>
      <use x="411.042969" xlink:href="#ArialMT-101"/>
      <use x="466.658203" xlink:href="#ArialMT-109"/>
      <use x="549.958984" xlink:href="#ArialMT-112"/>
      <use x="605.574219" xlink:href="#ArialMT-101"/>
      <use x="661.189453" xlink:href="#ArialMT-114"/>
      <use x="694.490234" xlink:href="#ArialMT-97"/>
      <use x="750.105469" xlink:href="#ArialMT-116"/>
      <use x="777.888672" xlink:href="#ArialMT-117"/>
      <use x="833.503906" xlink:href="#ArialMT-114"/>
      <use x="866.804688" xlink:href="#ArialMT-101"/>
      <use x="922.419922" xlink:href="#ArialMT-32"/>
      <use x="950.203125" xlink:href="#ArialMT-40"/>
      <use x="983.503906" xlink:href="#ArialMT-75"/>
      <use x="1050.203125" xlink:href="#ArialMT-41"/>
     </g>
    </g>
   </g>
   <g id="matplotlib.axis_2">
    <g id="ytick_1">
     <g id="line2d_10">
      <defs>
       <path d="M 0 0 
L -4.8 0 
" id="m871715f0d5" style="stroke:#262626;stroke-width:2.5;"/>
      </defs>
      <g>
       <use style="fill:#262626;stroke:#262626;stroke-width:2.5;" x="89.313563" xlink:href="#m871715f0d5" y="446.88"/>
      </g>
     </g>
     <g id="text_11">
      <!-- 0.000 -->
      <defs>
       <path d="M 9.078125 0 
L 9.078125 10.015625 
L 19.09375 10.015625 
L 19.09375 0 
z
" id="ArialMT-46"/>
      </defs>
      <g style="fill:#262626;" transform="translate(31.47025 453.966234)scale(0.198 -0.198)">
       <use xlink:href="#ArialMT-48"/>
       <use x="55.615234" xlink:href="#ArialMT-46"/>
       <use x="83.398438" xlink:href="#ArialMT-48"/>
       <use x="139.013672" xlink:href="#ArialMT-48"/>
       <use x="194.628906" xlink:href="#ArialMT-48"/>
      </g>
     </g>
    </g>
    <g id="ytick_2">
     <g id="line2d_11">
      <g>
       <use style="fill:#262626;stroke:#262626;stroke-width:2.5;" x="89.313563" xlink:href="#m871715f0d5" y="379.997704"/>
      </g>
     </g>
     <g id="text_12">
      <!-- 0.001 -->
      <g style="fill:#262626;" transform="translate(31.47025 387.083938)scale(0.198 -0.198)">
       <use xlink:href="#ArialMT-48"/>
       <use x="55.615234" xlink:href="#ArialMT-46"/>
       <use x="83.398438" xlink:href="#ArialMT-48"/>
       <use x="139.013672" xlink:href="#ArialMT-48"/>
       <use x="194.628906" xlink:href="#ArialMT-49"/>
      </g>
     </g>
    </g>
    <g id="ytick_3">
     <g id="line2d_12">
      <g>
       <use style="fill:#262626;stroke:#262626;stroke-width:2.5;" x="89.313563" xlink:href="#m871715f0d5" y="313.115408"/>
      </g>
     </g>
     <g id="text_13">
      <!-- 0.002 -->
      <g style="fill:#262626;" transform="translate(31.47025 320.201642)scale(0.198 -0.198)">
       <use xlink:href="#ArialMT-48"/>
       <use x="55.615234" xlink:href="#ArialMT-46"/>
       <use x="83.398438" xlink:href="#ArialMT-48"/>
       <use x="139.013672" xlink:href="#ArialMT-48"/>
       <use x="194.628906" xlink:href="#ArialMT-50"/>
      </g>
     </g>
    </g>
    <g id="ytick_4">
     <g id="line2d_13">
      <g>
       <use style="fill:#262626;stroke:#262626;stroke-width:2.5;" x="89.313563" xlink:href="#m871715f0d5" y="246.233112"/>
      </g>
     </g>
     <g id="text_14">
      <!-- 0.003 -->
      <g style="fill:#262626;" transform="translate(31.47025 253.319346)scale(0.198 -0.198)">
       <use xlink:href="#ArialMT-48"/>
       <use x="55.615234" xlink:href="#ArialMT-46"/>
       <use x="83.398438" xlink:href="#ArialMT-48"/>
       <use x="139.013672" xlink:href="#ArialMT-48"/>
       <use x="194.628906" xlink:href="#ArialMT-51"/>
      </g>
     </g>
    </g>
    <g id="ytick_5">
     <g id="line2d_14">
      <g>
       <use style="fill:#262626;stroke:#262626;stroke-width:2.5;" x="89.313563" xlink:href="#m871715f0d5" y="179.350816"/>
      </g>
     </g>
     <g id="text_15">
      <!-- 0.004 -->
      <g style="fill:#262626;" transform="translate(31.47025 186.43705)scale(0.198 -0.198)">
       <use xlink:href="#ArialMT-48"/>
       <use x="55.615234" xlink:href="#ArialMT-46"/>
       <use x="83.398438" xlink:href="#ArialMT-48"/>
       <use x="139.013672" xlink:href="#ArialMT-48"/>
       <use x="194.628906" xlink:href="#ArialMT-52"/>
      </g>
     </g>
    </g>
    <g id="ytick_6">
     <g id="line2d_15">
      <g>
       <use style="fill:#262626;stroke:#262626;stroke-width:2.5;" x="89.313563" xlink:href="#m871715f0d5" y="112.46852"/>
      </g>
     </g>
     <g id="text_16">
      <!-- 0.005 -->
      <g style="fill:#262626;" transform="translate(31.47025 119.554754)scale(0.198 -0.198)">
       <use xlink:href="#ArialMT-48"/>
       <use x="55.615234" xlink:href="#ArialMT-46"/>
       <use x="83.398438" xlink:href="#ArialMT-48"/>
       <use x="139.013672" xlink:href="#ArialMT-48"/>
       <use x="194.628906" xlink:href="#ArialMT-53"/>
      </g>
     </g>
    </g>
    <g id="ytick_7">
     <g id="line2d_16">
      <g>
       <use style="fill:#262626;stroke:#262626;stroke-width:2.5;" x="89.313563" xlink:href="#m871715f0d5" y="45.586223"/>
      </g>
     </g>
     <g id="text_17">
      <!-- 0.006 -->
      <g style="fill:#262626;" transform="translate(31.47025 52.672458)scale(0.198 -0.198)">
       <use xlink:href="#ArialMT-48"/>
       <use x="55.615234" xlink:href="#ArialMT-46"/>
       <use x="83.398438" xlink:href="#ArialMT-48"/>
       <use x="139.013672" xlink:href="#ArialMT-48"/>
       <use x="194.628906" xlink:href="#ArialMT-54"/>
      </g>
     </g>
    </g>
    <g id="text_18">
     <!-- Normalized frequency -->
     <defs>
      <path d="M 7.625 0 
L 7.625 71.578125 
L 17.328125 71.578125 
L 54.9375 15.375 
L 54.9375 71.578125 
L 64.015625 71.578125 
L 64.015625 0 
L 54.296875 0 
L 16.703125 56.25 
L 16.703125 0 
z
" id="ArialMT-78"/>
      <path d="M 3.328125 25.921875 
Q 3.328125 40.328125 11.328125 47.265625 
Q 18.015625 53.03125 27.640625 53.03125 
Q 38.328125 53.03125 45.109375 46.015625 
Q 51.90625 39.015625 51.90625 26.65625 
Q 51.90625 16.65625 48.90625 10.90625 
Q 45.90625 5.171875 40.15625 2 
Q 34.421875 -1.171875 27.640625 -1.171875 
Q 16.75 -1.171875 10.03125 5.8125 
Q 3.328125 12.796875 3.328125 25.921875 
z
M 12.359375 25.921875 
Q 12.359375 15.96875 16.703125 11.015625 
Q 21.046875 6.0625 27.640625 6.0625 
Q 34.1875 6.0625 38.53125 11.03125 
Q 42.875 16.015625 42.875 26.21875 
Q 42.875 35.84375 38.5 40.796875 
Q 34.125 45.75 27.640625 45.75 
Q 21.046875 45.75 16.703125 40.8125 
Q 12.359375 35.890625 12.359375 25.921875 
z
" id="ArialMT-111"/>
      <path d="M 1.953125 0 
L 1.953125 7.125 
L 34.96875 45.015625 
Q 29.34375 44.734375 25.046875 44.734375 
L 3.90625 44.734375 
L 3.90625 51.859375 
L 46.296875 51.859375 
L 46.296875 46.046875 
L 18.21875 13.140625 
L 12.796875 7.125 
Q 18.703125 7.5625 23.875 7.5625 
L 47.859375 7.5625 
L 47.859375 0 
z
" id="ArialMT-122"/>
      <path d="M 40.234375 0 
L 40.234375 6.546875 
Q 35.296875 -1.171875 25.734375 -1.171875 
Q 19.53125 -1.171875 14.328125 2.25 
Q 9.125 5.671875 6.265625 11.796875 
Q 3.421875 17.921875 3.421875 25.875 
Q 3.421875 33.640625 6 39.96875 
Q 8.59375 46.296875 13.765625 49.65625 
Q 18.953125 53.03125 25.34375 53.03125 
Q 30.03125 53.03125 33.6875 51.046875 
Q 37.359375 49.078125 39.65625 45.90625 
L 39.65625 71.578125 
L 48.390625 71.578125 
L 48.390625 0 
z
M 12.453125 25.875 
Q 12.453125 15.921875 16.640625 10.984375 
Q 20.84375 6.0625 26.5625 6.0625 
Q 32.328125 6.0625 36.34375 10.765625 
Q 40.375 15.484375 40.375 25.140625 
Q 40.375 35.796875 36.265625 40.765625 
Q 32.171875 45.75 26.171875 45.75 
Q 20.3125 45.75 16.375 40.96875 
Q 12.453125 36.1875 12.453125 25.875 
z
" id="ArialMT-100"/>
      <path d="M 8.6875 0 
L 8.6875 45.015625 
L 0.921875 45.015625 
L 0.921875 51.859375 
L 8.6875 51.859375 
L 8.6875 57.375 
Q 8.6875 62.59375 9.625 65.140625 
Q 10.890625 68.5625 14.078125 70.671875 
Q 17.28125 72.796875 23.046875 72.796875 
Q 26.765625 72.796875 31.25 71.921875 
L 29.9375 64.265625 
Q 27.203125 64.75 24.75 64.75 
Q 20.75 64.75 19.09375 63.03125 
Q 17.4375 61.328125 17.4375 56.640625 
L 17.4375 51.859375 
L 27.546875 51.859375 
L 27.546875 45.015625 
L 17.4375 45.015625 
L 17.4375 0 
z
" id="ArialMT-102"/>
      <path d="M 39.65625 -19.875 
L 39.65625 5.515625 
Q 37.59375 2.640625 33.90625 0.734375 
Q 30.21875 -1.171875 26.078125 -1.171875 
Q 16.84375 -1.171875 10.171875 6.203125 
Q 3.515625 13.578125 3.515625 26.421875 
Q 3.515625 34.234375 6.21875 40.421875 
Q 8.9375 46.625 14.078125 49.828125 
Q 19.234375 53.03125 25.390625 53.03125 
Q 35.015625 53.03125 40.53125 44.921875 
L 40.53125 51.859375 
L 48.4375 51.859375 
L 48.4375 -19.875 
z
M 12.546875 26.078125 
Q 12.546875 16.0625 16.75 11.0625 
Q 20.953125 6.0625 26.8125 6.0625 
Q 32.421875 6.0625 36.46875 10.8125 
Q 40.53125 15.578125 40.53125 25.296875 
Q 40.53125 35.640625 36.25 40.859375 
Q 31.984375 46.09375 26.21875 46.09375 
Q 20.515625 46.09375 16.53125 41.234375 
Q 12.546875 36.375 12.546875 26.078125 
z
" id="ArialMT-113"/>
      <path d="M 40.4375 19 
L 49.078125 17.875 
Q 47.65625 8.9375 41.8125 3.875 
Q 35.984375 -1.171875 27.484375 -1.171875 
Q 16.84375 -1.171875 10.375 5.78125 
Q 3.90625 12.75 3.90625 25.734375 
Q 3.90625 34.125 6.6875 40.421875 
Q 9.46875 46.734375 15.15625 49.875 
Q 20.84375 53.03125 27.546875 53.03125 
Q 35.984375 53.03125 41.359375 48.75 
Q 46.734375 44.484375 48.25 36.625 
L 39.703125 35.296875 
Q 38.484375 40.53125 35.375 43.15625 
Q 32.28125 45.796875 27.875 45.796875 
Q 21.234375 45.796875 17.078125 41.03125 
Q 12.9375 36.28125 12.9375 25.984375 
Q 12.9375 15.53125 16.9375 10.796875 
Q 20.953125 6.0625 27.390625 6.0625 
Q 32.5625 6.0625 36.03125 9.234375 
Q 39.5 12.40625 40.4375 19 
z
" id="ArialMT-99"/>
      <path d="M 6.203125 -19.96875 
L 5.21875 -11.71875 
Q 8.109375 -12.5 10.25 -12.5 
Q 13.1875 -12.5 14.9375 -11.515625 
Q 16.703125 -10.546875 17.828125 -8.796875 
Q 18.65625 -7.46875 20.515625 -2.25 
Q 20.75 -1.515625 21.296875 -0.09375 
L 1.609375 51.859375 
L 11.078125 51.859375 
L 21.875 21.828125 
Q 23.96875 16.109375 25.640625 9.8125 
Q 27.15625 15.875 29.25 21.625 
L 40.328125 51.859375 
L 49.125 51.859375 
L 29.390625 -0.875 
Q 26.21875 -9.421875 24.46875 -12.640625 
Q 22.125 -17 19.09375 -19.015625 
Q 16.0625 -21.046875 11.859375 -21.046875 
Q 9.328125 -21.046875 6.203125 -19.96875 
z
" id="ArialMT-121"/>
     </defs>
     <g style="fill:#262626;" transform="translate(22.924125 334.480125)rotate(-90)scale(0.216 -0.216)">
      <use xlink:href="#ArialMT-78"/>
      <use x="72.216797" xlink:href="#ArialMT-111"/>
      <use x="127.832031" xlink:href="#ArialMT-114"/>
      <use x="161.132812" xlink:href="#ArialMT-109"/>
      <use x="244.433594" xlink:href="#ArialMT-97"/>
      <use x="300.048828" xlink:href="#ArialMT-108"/>
      <use x="322.265625" xlink:href="#ArialMT-105"/>
      <use x="344.482422" xlink:href="#ArialMT-122"/>
      <use x="394.482422" xlink:href="#ArialMT-101"/>
      <use x="450.097656" xlink:href="#ArialMT-100"/>
      <use x="505.712891" xlink:href="#ArialMT-32"/>
      <use x="533.496094" xlink:href="#ArialMT-102"/>
      <use x="561.279297" xlink:href="#ArialMT-114"/>
      <use x="594.580078" xlink:href="#ArialMT-101"/>
      <use x="650.195312" xlink:href="#ArialMT-113"/>
      <use x="705.810547" xlink:href="#ArialMT-117"/>
      <use x="761.425781" xlink:href="#ArialMT-101"/>
      <use x="817.041016" xlink:href="#ArialMT-110"/>
      <use x="872.65625" xlink:href="#ArialMT-99"/>
      <use x="922.65625" xlink:href="#ArialMT-121"/>
     </g>
    </g>
   </g>
   <g id="line2d_17">
    <path clip-path="url(#pda2839070f)" d="M 144.538205 446.877238 
L 155.815647 446.801049 
L 163.333942 446.588216 
L 170.852237 446.218942 
L 174.611384 445.899273 
L 178.370532 445.356409 
L 182.129679 444.493825 
L 189.647974 442.178188 
L 193.407121 441.215573 
L 208.443711 438.453451 
L 215.962006 437.137345 
L 227.239448 434.86452 
L 230.998595 434.246484 
L 234.757743 433.405821 
L 238.51689 432.140111 
L 242.276038 430.615509 
L 246.035185 429.220852 
L 257.312627 425.840606 
L 268.59007 421.401375 
L 272.349217 419.206229 
L 276.108364 415.428261 
L 279.867512 409.379742 
L 283.626659 400.769785 
L 287.385807 389.341504 
L 291.144954 374.398107 
L 294.904101 355.040606 
L 298.663249 331.013439 
L 302.422396 303.087955 
L 309.940691 242.224895 
L 313.699838 214.090553 
L 317.458986 190.824213 
L 321.218133 173.407306 
L 324.977281 160.860533 
L 332.495576 141.260734 
L 336.254723 130.608892 
L 340.01387 119.292974 
L 343.773018 108.974785 
L 347.532165 101.479149 
L 351.291313 97.4908 
L 355.05046 96.127906 
L 358.809607 95.689795 
L 362.568755 95.040625 
L 366.327902 94.527943 
L 370.08705 95.468721 
L 373.846197 98.75772 
L 377.605344 104.383495 
L 381.364492 112.292891 
L 385.123639 123.068233 
L 388.882787 137.320575 
L 392.641934 154.519707 
L 396.401082 172.759214 
L 400.160229 190.050899 
L 407.678524 221.881357 
L 411.437671 239.518184 
L 415.196819 259.310453 
L 418.955966 279.929983 
L 422.715113 299.318256 
L 426.474261 316.132497 
L 430.233408 330.30584 
L 433.992556 342.565153 
L 437.751703 353.648996 
L 441.51085 363.834429 
L 445.269998 372.985812 
L 449.029145 380.966745 
L 452.788293 387.964273 
L 460.306587 400.919599 
L 471.58403 420.95377 
L 475.343177 426.500581 
L 479.102325 431.000741 
L 482.861472 434.554122 
L 486.620619 437.24824 
L 490.379767 439.135482 
L 494.138914 440.389899 
L 501.657209 442.356653 
L 509.175504 444.522332 
L 512.934651 445.294547 
L 516.693799 445.753606 
L 524.212093 446.184688 
L 535.489536 446.533893 
L 546.766978 446.680573 
L 588.117599 446.542775 
L 595.635894 446.484442 
L 606.913336 446.72185 
L 618.190779 446.870473 
L 621.949926 446.877236 
L 621.949926 446.877236 
" style="fill:none;stroke:#8dd3c7;stroke-linecap:round;stroke-opacity:0.75;stroke-width:3;"/>
   </g>
   <g id="line2d_18">
    <path clip-path="url(#pda2839070f)" d="M 194.749 446.874585 
L 200.725063 446.818921 
L 203.713094 446.71396 
L 206.701125 446.495885 
L 209.689156 446.114877 
L 212.677188 445.54584 
L 215.665219 444.800551 
L 221.641281 442.928808 
L 227.617344 440.704318 
L 230.605375 439.409075 
L 233.593406 437.927617 
L 239.569468 434.521598 
L 245.545531 430.917126 
L 248.533562 428.939576 
L 251.521593 426.737567 
L 257.497656 421.994262 
L 260.485687 419.910672 
L 263.473718 418.214999 
L 266.461749 416.695849 
L 269.449781 414.862095 
L 272.437812 412.152 
L 275.425843 408.093379 
L 278.413874 402.250443 
L 281.401905 393.976278 
L 284.389937 382.171843 
L 287.377968 365.345179 
L 290.365999 342.168192 
L 293.35403 312.40386 
L 296.342061 277.655549 
L 299.330093 241.265775 
L 302.318124 207.210508 
L 305.306155 178.629719 
L 308.294186 156.88555 
L 311.282218 141.556984 
L 314.270249 131.1146 
L 317.25828 123.722748 
L 320.246311 117.825906 
L 323.234342 112.491703 
L 326.222374 107.463277 
L 329.210405 102.832027 
L 332.198436 98.605171 
L 335.186467 94.65709 
L 338.174498 91.048726 
L 341.16253 88.185835 
L 344.150561 86.584827 
L 347.138592 86.550757 
L 350.126623 87.995783 
L 356.102686 92.556289 
L 359.090717 93.742776 
L 362.078748 93.897918 
L 365.066779 94.310529 
L 368.054811 96.890976 
L 371.042842 102.932764 
L 374.030873 112.439086 
L 377.018904 124.548628 
L 380.006935 138.419753 
L 382.994967 153.669615 
L 385.982998 170.180872 
L 394.947091 221.993544 
L 397.935123 236.920389 
L 400.923154 249.875058 
L 403.911185 261.278996 
L 409.887248 282.425946 
L 412.875279 293.576158 
L 415.86331 305.528143 
L 421.839372 330.466164 
L 424.827404 342.309921 
L 427.815435 353.152043 
L 430.803466 362.826253 
L 433.791497 371.375706 
L 436.779528 379.00278 
L 439.76756 385.967608 
L 442.755591 392.479666 
L 445.743622 398.637382 
L 448.731653 404.396351 
L 451.719684 409.552286 
L 454.707716 413.811077 
L 457.695747 417.006077 
L 460.683778 419.339944 
L 463.671809 421.376716 
L 466.659841 423.693387 
L 469.647872 426.496027 
L 475.623934 432.506954 
L 478.611965 435.036218 
L 481.599997 437.070005 
L 484.588028 438.689978 
L 487.576059 440.0439 
L 493.552121 442.353369 
L 496.540153 443.312988 
L 499.528184 444.0796 
L 502.516215 444.634113 
L 505.504246 445.000951 
L 526.420465 446.597132 
L 538.37259 446.789426 
L 547.336683 446.784804 
L 556.300777 446.732488 
L 574.228964 446.876959 
L 574.228964 446.876959 
" style="fill:none;stroke:#ffffb3;stroke-linecap:round;stroke-opacity:0.75;stroke-width:3;"/>
   </g>
   <g id="line2d_19">
    <path clip-path="url(#pda2839070f)" d="M 177.677198 446.877775 
L 191.116416 446.785 
L 201.19583 446.715093 
L 207.91544 446.673727 
L 211.275244 446.518394 
L 217.994854 445.84906 
L 224.714463 445.114167 
L 234.793877 444.387645 
L 244.873291 443.835832 
L 248.233096 443.527218 
L 251.5929 443.105208 
L 254.952705 442.482739 
L 258.31251 441.519721 
L 261.672314 440.153695 
L 265.032119 438.481653 
L 268.391924 436.656599 
L 271.751729 434.641784 
L 275.111533 431.988788 
L 278.471338 427.893932 
L 281.831143 421.645574 
L 285.190947 412.992306 
L 288.550752 401.763582 
L 291.910557 387.150819 
L 295.270361 367.9541 
L 298.630166 343.835958 
L 301.989971 315.983664 
L 308.70958 257.401935 
L 312.069385 230.566165 
L 315.429189 207.149089 
L 318.788994 187.326737 
L 322.148799 170.417311 
L 325.508603 155.707141 
L 328.868408 143.155266 
L 332.228213 133.352453 
L 335.588017 126.825932 
L 338.947822 123.255947 
L 342.307627 121.365184 
L 345.667431 119.732567 
L 349.027236 117.699937 
L 355.746845 113.225423 
L 359.10665 111.388748 
L 362.466455 110.074763 
L 365.826259 109.376456 
L 369.186064 109.292874 
L 372.545869 109.875613 
L 375.905673 111.266192 
L 379.265478 113.628305 
L 382.625283 117.388684 
L 385.985087 123.425176 
L 389.344892 132.377061 
L 392.704697 143.675796 
L 399.424306 168.18481 
L 402.784111 181.268825 
L 406.143916 196.226354 
L 416.22333 246.748878 
L 419.583134 261.117192 
L 422.942939 273.73055 
L 426.302744 285.143444 
L 433.022353 306.74452 
L 436.382158 318.079591 
L 443.101767 341.209114 
L 446.461572 351.515468 
L 449.821376 360.515486 
L 453.181181 368.279926 
L 456.540986 374.957347 
L 459.90079 381.086743 
L 463.260595 387.703064 
L 466.6204 395.525284 
L 469.980204 404.136272 
L 473.340009 412.371326 
L 476.699814 419.367224 
L 480.059618 424.932048 
L 483.419423 429.177806 
L 486.779228 432.243851 
L 490.139032 434.352369 
L 493.498837 435.860304 
L 500.218446 438.488682 
L 510.29786 442.785939 
L 513.657665 443.856721 
L 517.01747 444.629834 
L 520.377274 445.18849 
L 527.096884 446.003235 
L 533.816493 446.489944 
L 540.536102 446.659352 
L 547.255712 446.587616 
L 553.975321 446.437926 
L 560.694931 446.525128 
L 570.774345 446.797453 
L 604.372391 446.877775 
L 604.372391 446.877775 
" style="fill:none;stroke:#bebada;stroke-linecap:round;stroke-opacity:0.75;stroke-width:3;"/>
   </g>
   <g id="line2d_20">
    <path clip-path="url(#pda2839070f)" d="M 179.351841 446.860587 
L 188.058209 446.752554 
L 193.862454 446.481604 
L 199.666699 445.893978 
L 205.470945 444.88407 
L 211.27519 443.480248 
L 217.079435 441.94781 
L 219.981558 441.284351 
L 222.883681 440.774919 
L 225.785803 440.457259 
L 228.687926 440.329126 
L 240.296416 440.368757 
L 243.198539 440.060104 
L 246.100662 439.470611 
L 249.002784 438.551379 
L 251.904907 437.266716 
L 254.80703 435.592407 
L 257.709152 433.513466 
L 260.611275 431.017412 
L 263.513398 428.079952 
L 266.41552 424.642946 
L 269.317643 420.587315 
L 272.219765 415.704436 
L 275.121888 409.669542 
L 278.024011 402.022581 
L 280.926133 392.168286 
L 283.828256 379.415094 
L 286.730379 363.073542 
L 289.632501 342.619493 
L 292.534624 317.895542 
L 295.436747 289.289186 
L 298.338869 257.81192 
L 304.143115 192.81114 
L 307.045237 163.046026 
L 309.94736 137.266572 
L 312.849483 116.423995 
L 315.751605 100.787503 
L 318.653728 90.016275 
L 321.55585 83.370683 
L 324.457973 79.990153 
L 327.360096 79.137433 
L 330.262218 80.315017 
L 333.164341 83.211385 
L 336.066464 87.519967 
L 341.870709 98.156176 
L 344.772832 102.871591 
L 347.674954 106.165657 
L 350.577077 107.718377 
L 353.4792 107.746241 
L 359.283445 106.123872 
L 362.185567 106.180197 
L 365.08769 107.664163 
L 367.989813 110.855576 
L 370.891935 115.798578 
L 373.794058 122.397266 
L 376.696181 130.490496 
L 379.598303 139.891479 
L 382.500426 150.409008 
L 385.402549 161.868038 
L 388.304671 174.128876 
L 391.206794 187.091196 
L 397.011039 214.790143 
L 405.717407 258.861436 
L 411.521652 287.737716 
L 414.423775 301.401531 
L 417.325898 314.301525 
L 420.22802 326.308322 
L 423.130143 337.365438 
L 426.032266 347.495341 
L 428.934388 356.783815 
L 431.836511 365.350293 
L 434.738634 373.317165 
L 437.640756 380.78632 
L 440.542879 387.823507 
L 443.445001 394.44886 
L 446.347124 400.636193 
L 449.249247 406.327168 
L 452.151369 411.461961 
L 455.053492 416.016488 
L 457.955615 420.02692 
L 460.857737 423.585028 
L 463.75986 426.803413 
L 466.661983 429.768044 
L 469.564105 432.503633 
L 472.466228 434.96985 
L 475.368351 437.089026 
L 478.270473 438.790334 
L 481.172596 440.049697 
L 484.074718 440.90939 
L 486.976841 441.471497 
L 498.585332 443.117283 
L 507.2917 444.604638 
L 513.095945 445.224929 
L 530.508681 446.407186 
L 536.312926 446.685617 
L 545.019294 446.84885 
L 547.921417 446.861104 
L 547.921417 446.861104 
" style="fill:none;stroke:#fb8072;stroke-linecap:round;stroke-opacity:0.75;stroke-width:3;"/>
   </g>
   <g id="line2d_21">
    <path clip-path="url(#pda2839070f)" d="M 218.765022 446.84522 
L 226.507748 446.737231 
L 231.669566 446.490318 
L 236.831383 445.959749 
L 239.412292 445.539217 
L 241.993201 444.991528 
L 244.57411 444.305443 
L 247.155018 443.478779 
L 252.316836 441.454799 
L 262.640471 436.78816 
L 267.802289 434.31787 
L 270.383198 432.77575 
L 272.964106 430.744316 
L 275.545015 427.921467 
L 278.125924 423.955148 
L 280.706833 418.473093 
L 283.287742 411.118025 
L 285.86865 401.582255 
L 288.449559 389.636203 
L 291.030468 375.147761 
L 293.611377 358.093129 
L 296.192286 338.563072 
L 298.773194 316.769743 
L 301.354103 293.056868 
L 306.515921 241.961027 
L 311.677738 190.746648 
L 314.258647 167.129617 
L 316.839556 145.822333 
L 319.420465 127.333926 
L 322.001374 111.919135 
L 324.582282 99.581701 
L 327.163191 90.134576 
L 329.7441 83.294955 
L 332.325009 78.77825 
L 334.905917 76.355904 
L 337.486826 75.857977 
L 340.067735 77.125666 
L 342.648644 79.940667 
L 345.229553 83.96794 
L 352.972279 98.31907 
L 355.553188 102.120594 
L 358.134097 104.864639 
L 360.715005 106.548317 
L 363.295914 107.412419 
L 365.876823 107.887102 
L 368.457732 108.503596 
L 371.038641 109.795276 
L 373.619549 112.211081 
L 376.200458 116.058081 
L 378.781367 121.480417 
L 381.362276 128.471947 
L 383.943185 136.91238 
L 386.524093 146.613132 
L 389.105002 157.359856 
L 391.685911 168.942512 
L 396.847729 193.866851 
L 409.752273 258.602528 
L 412.333181 270.660066 
L 414.91409 282.118794 
L 417.494999 292.91556 
L 420.075908 303.020762 
L 422.656816 312.429371 
L 425.237725 321.152585 
L 427.818634 329.213666 
L 430.399543 336.648429 
L 432.980452 343.507996 
L 435.56136 349.860438 
L 438.142269 355.788941 
L 443.304087 366.745647 
L 451.046813 382.171837 
L 458.78954 397.312845 
L 463.951357 406.915388 
L 466.532266 411.36601 
L 469.113175 415.483775 
L 471.694084 419.207399 
L 474.274992 422.494486 
L 476.855901 425.32589 
L 479.43681 427.707323 
L 482.017719 429.668067 
L 484.598628 431.257123 
L 487.179536 432.537603 
L 489.760445 433.58048 
L 494.922263 435.241925 
L 502.664989 437.581612 
L 507.826807 439.429625 
L 518.150442 443.359621 
L 520.731351 444.180625 
L 523.312259 444.880448 
L 525.893168 445.450867 
L 528.474077 445.895487 
L 533.635895 446.463125 
L 538.797712 446.728377 
L 546.540439 446.844622 
L 546.540439 446.844622 
" style="fill:none;stroke:#80b1d3;stroke-linecap:round;stroke-opacity:0.75;stroke-width:3;"/>
   </g>
   <g id="line2d_22">
    <path clip-path="url(#pda2839070f)" d="M 114.677199 446.868106 
L 126.659618 446.761932 
L 134.647897 446.450072 
L 138.642037 446.142514 
L 142.636176 445.692331 
L 146.630316 445.068758 
L 150.624456 444.235209 
L 154.618595 443.133835 
L 158.612735 441.663468 
L 162.606875 439.659313 
L 166.601014 436.886458 
L 170.595154 433.05843 
L 174.589293 427.885459 
L 178.583433 421.145345 
L 182.577573 412.756127 
L 186.571712 402.821879 
L 190.565852 391.629585 
L 194.559992 379.597258 
L 202.548271 354.897013 
L 206.542411 343.114805 
L 210.53655 332.227901 
L 214.53069 322.577074 
L 218.52483 314.47354 
L 222.518969 308.188503 
L 226.513109 303.920056 
L 230.507248 301.740505 
L 234.501388 301.542504 
L 238.495528 303.013164 
L 242.489667 305.657266 
L 250.477947 312.002751 
L 254.472086 314.484427 
L 258.466226 315.830642 
L 262.460366 315.686985 
L 266.454505 313.810894 
L 270.448645 310.022584 
L 274.442785 304.140769 
L 278.436924 295.948067 
L 282.431064 285.232161 
L 286.425203 271.91088 
L 290.419343 256.191774 
L 294.413483 238.681191 
L 302.401762 202.498798 
L 306.395902 186.301638 
L 310.390041 172.796352 
L 314.384181 162.615834 
L 318.378321 155.970581 
L 322.37246 152.718086 
L 326.3666 152.49762 
L 330.36074 154.874235 
L 334.354879 159.44741 
L 338.349019 165.904477 
L 342.343158 174.022108 
L 346.337298 183.63124 
L 350.331438 194.563204 
L 354.325577 206.595873 
L 358.319717 219.42268 
L 370.302136 259.006808 
L 378.290415 284.204701 
L 398.261113 346.018183 
L 402.255253 356.96397 
L 406.249393 366.720483 
L 410.243532 375.231853 
L 414.237672 382.620612 
L 418.231812 389.092823 
L 422.225951 394.832198 
L 426.220091 399.939588 
L 430.214231 404.438923 
L 434.20837 408.329642 
L 438.20251 411.644857 
L 442.196649 414.482228 
L 446.190789 416.998598 
L 454.179068 421.803998 
L 458.173208 424.403319 
L 462.167348 427.235779 
L 474.149767 436.349822 
L 478.143906 439.036435 
L 482.138046 441.291528 
L 486.132186 443.063341 
L 490.126325 444.375664 
L 494.120465 445.299808 
L 498.114604 445.922917 
L 502.108744 446.326226 
L 510.097023 446.72293 
L 522.079442 446.865881 
L 550.03842 446.832811 
L 562.020839 446.614612 
L 577.997397 446.142969 
L 585.985677 446.169991 
L 613.944654 446.844359 
L 621.932933 446.869975 
L 621.932933 446.869975 
" style="fill:none;stroke:#fdb462;stroke-linecap:round;stroke-opacity:0.75;stroke-width:3;"/>
   </g>
   <g id="line2d_23">
    <path clip-path="url(#pda2839070f)" d="M 126.873983 446.847747 
L 135.177686 446.734814 
L 140.713489 446.487883 
L 146.249292 446.028271 
L 151.785094 445.354212 
L 157.320897 444.472259 
L 160.088798 443.897424 
L 162.856699 443.146852 
L 165.624601 442.114924 
L 168.392502 440.673181 
L 171.160403 438.687121 
L 173.928304 436.03475 
L 176.696206 432.619836 
L 179.464107 428.374093 
L 182.232008 423.246623 
L 184.99991 417.184565 
L 187.767811 410.113638 
L 190.535712 401.928485 
L 193.303613 392.499235 
L 196.071515 381.693553 
L 198.839416 369.406262 
L 201.607317 355.585533 
L 204.375219 340.247628 
L 207.14312 323.479905 
L 209.911021 305.439405 
L 215.446824 266.552414 
L 220.982626 226.605349 
L 223.750528 207.645837 
L 226.518429 190.239035 
L 229.28633 174.970146 
L 232.054231 162.231927 
L 234.822133 152.142518 
L 237.590034 144.528686 
L 240.357935 138.983369 
L 243.125837 134.97445 
L 245.893738 131.959842 
L 254.197442 124.526577 
L 256.965343 121.418527 
L 259.733244 117.428714 
L 262.501146 112.213546 
L 265.269047 105.493797 
L 268.036948 97.137886 
L 270.804849 87.239096 
L 273.572751 76.164231 
L 279.108553 53.327164 
L 281.876455 43.529082 
L 284.644356 36.301319 
L 287.412257 32.708571 
L 290.180158 33.598232 
L 292.94806 39.460312 
L 295.715961 50.3274 
L 298.483862 65.749171 
L 301.251764 84.863687 
L 304.019665 106.559459 
L 315.09127 199.278023 
L 320.627073 242.268214 
L 323.394974 262.514045 
L 326.162875 281.840297 
L 328.930776 300.114947 
L 331.698678 317.196805 
L 334.466579 332.989511 
L 337.23448 347.473868 
L 340.002382 360.703309 
L 342.770283 372.767772 
L 345.538184 383.746168 
L 348.306085 393.670766 
L 351.073987 402.518498 
L 353.841888 410.230035 
L 356.609789 416.745227 
L 359.377691 422.038735 
L 362.145592 426.142993 
L 364.913493 429.153635 
L 367.681394 431.220239 
L 370.449296 432.529263 
L 373.217197 433.285737 
L 375.985098 433.697158 
L 381.520901 434.242637 
L 384.288802 434.67543 
L 387.056703 435.328905 
L 389.824605 436.205126 
L 398.128309 439.243528 
L 400.89621 439.930626 
L 403.664111 440.266703 
L 406.432013 440.225726 
L 409.199914 439.852389 
L 414.735716 438.538138 
L 417.503618 437.854391 
L 420.271519 437.300964 
L 423.03942 436.94857 
L 425.807322 436.832654 
L 428.575223 436.959806 
L 431.343124 437.316591 
L 434.111025 437.8772 
L 436.878927 438.608384 
L 442.414729 440.424833 
L 450.718433 443.354702 
L 453.486334 444.204697 
L 456.254236 444.933894 
L 459.022137 445.526847 
L 461.790038 445.982932 
L 467.325841 446.540932 
L 472.861643 446.774809 
L 478.397446 446.845053 
L 478.397446 446.845053 
" style="fill:none;stroke:#b3de69;stroke-linecap:round;stroke-opacity:0.75;stroke-width:3;"/>
   </g>
   <g id="line2d_24">
    <path clip-path="url(#pda2839070f)" d="M 308.549068 446.88 
L 308.549068 12 
" style="fill:none;stroke:#000000;stroke-dasharray:11.1,4.8;stroke-dashoffset:0;stroke-width:3;"/>
   </g>
   <g id="line2d_25">
    <path clip-path="url(#pda2839070f)" d="M 433.04073 446.88 
L 433.04073 12 
" style="fill:none;stroke:#000000;stroke-dasharray:11.1,4.8;stroke-dashoffset:0;stroke-width:3;"/>
   </g>
   <g id="patch_3">
    <path d="M 89.313563 446.88 
L 89.313563 12 
" style="fill:none;stroke:#262626;stroke-linecap:square;stroke-linejoin:miter;stroke-width:2.5;"/>
   </g>
   <g id="patch_4">
    <path d="M 647.313562 446.88 
L 647.313562 12 
" style="fill:none;stroke:#262626;stroke-linecap:square;stroke-linejoin:miter;stroke-width:2.5;"/>
   </g>
   <g id="patch_5">
    <path d="M 89.313563 446.88 
L 647.313562 446.88 
" style="fill:none;stroke:#262626;stroke-linecap:square;stroke-linejoin:miter;stroke-width:2.5;"/>
   </g>
   <g id="patch_6">
    <path d="M 89.313563 12 
L 647.313562 12 
" style="fill:none;stroke:#262626;stroke-linecap:square;stroke-linejoin:miter;stroke-width:2.5;"/>
   </g>
   <g id="legend_1">
    <g id="patch_7">
     <path d="M 455.958461 227.903259 
L 720.520283 227.903259 
Q 723.518362 227.903259 723.518362 224.905179 
L 723.518362 22.49328 
Q 723.518362 19.4952 720.520283 19.4952 
L 455.958461 19.4952 
Q 452.96038 19.4952 452.96038 22.49328 
L 452.96038 224.905179 
Q 452.96038 227.903259 455.958461 227.903259 
z
" style="fill:#ffffff;stroke:#cccccc;stroke-linejoin:miter;stroke-width:0.8;"/>
    </g>
    <g id="text_19">
     <!-- Clusters -->
     <defs>
      <path d="M 58.796875 25.09375 
L 68.265625 22.703125 
Q 65.28125 11.03125 57.546875 4.90625 
Q 49.8125 -1.21875 38.625 -1.21875 
Q 27.046875 -1.21875 19.796875 3.484375 
Q 12.546875 8.203125 8.765625 17.140625 
Q 4.984375 26.078125 4.984375 36.328125 
Q 4.984375 47.515625 9.25 55.828125 
Q 13.53125 64.15625 21.40625 68.46875 
Q 29.296875 72.796875 38.765625 72.796875 
Q 49.515625 72.796875 56.828125 67.328125 
Q 64.15625 61.859375 67.046875 51.953125 
L 57.71875 49.75 
Q 55.21875 57.5625 50.484375 61.125 
Q 45.75 64.703125 38.578125 64.703125 
Q 30.328125 64.703125 24.78125 60.734375 
Q 19.234375 56.78125 16.984375 50.109375 
Q 14.75 43.453125 14.75 36.375 
Q 14.75 27.25 17.40625 20.4375 
Q 20.0625 13.625 25.671875 10.25 
Q 31.296875 6.890625 37.84375 6.890625 
Q 45.796875 6.890625 51.3125 11.46875 
Q 56.84375 16.0625 58.796875 25.09375 
z
" id="ArialMT-67"/>
      <path d="M 3.078125 15.484375 
L 11.765625 16.84375 
Q 12.5 11.625 15.84375 8.84375 
Q 19.1875 6.0625 25.203125 6.0625 
Q 31.25 6.0625 34.171875 8.515625 
Q 37.109375 10.984375 37.109375 14.3125 
Q 37.109375 17.28125 34.515625 19 
Q 32.71875 20.171875 25.53125 21.96875 
Q 15.875 24.421875 12.140625 26.203125 
Q 8.40625 27.984375 6.46875 31.125 
Q 4.546875 34.28125 4.546875 38.09375 
Q 4.546875 41.546875 6.125 44.5 
Q 7.71875 47.46875 10.453125 49.421875 
Q 12.5 50.921875 16.03125 51.96875 
Q 19.578125 53.03125 23.640625 53.03125 
Q 29.734375 53.03125 34.34375 51.265625 
Q 38.96875 49.515625 41.15625 46.5 
Q 43.359375 43.5 44.1875 38.484375 
L 35.59375 37.3125 
Q 35.015625 41.3125 32.203125 43.546875 
Q 29.390625 45.796875 24.265625 45.796875 
Q 18.21875 45.796875 15.625 43.796875 
Q 13.03125 41.796875 13.03125 39.109375 
Q 13.03125 37.40625 14.109375 36.03125 
Q 15.1875 34.625 17.484375 33.6875 
Q 18.796875 33.203125 25.25 31.453125 
Q 34.578125 28.953125 38.25 27.359375 
Q 41.9375 25.78125 44.03125 22.75 
Q 46.140625 19.734375 46.140625 15.234375 
Q 46.140625 10.84375 43.578125 6.953125 
Q 41.015625 3.078125 36.171875 0.953125 
Q 31.34375 -1.171875 25.25 -1.171875 
Q 15.140625 -1.171875 9.84375 3.03125 
Q 4.546875 7.234375 3.078125 15.484375 
z
" id="ArialMT-115"/>
     </defs>
     <g style="fill:#262626;" transform="translate(548.632059 40.952235)scale(0.216 -0.216)">
      <use xlink:href="#ArialMT-67"/>
      <use x="72.216797" xlink:href="#ArialMT-108"/>
      <use x="94.433594" xlink:href="#ArialMT-117"/>
      <use x="150.048828" xlink:href="#ArialMT-115"/>
      <use x="200.048828" xlink:href="#ArialMT-116"/>
      <use x="227.832031" xlink:href="#ArialMT-101"/>
      <use x="283.447266" xlink:href="#ArialMT-114"/>
      <use x="316.748047" xlink:href="#ArialMT-115"/>
     </g>
    </g>
    <g id="patch_8">
     <path d="M 458.95654 64.210433 
L 488.93734 64.210433 
L 488.93734 53.717153 
L 458.95654 53.717153 
z
" style="fill:none;opacity:0;"/>
    </g>
    <g id="text_20">
     <!-- #  (    n,  mean,   std) -->
     <defs>
      <path d="M 33.40625 71.78125 
L 28.328125 51.515625 
L 40.28125 51.515625 
L 45.40625 71.78125 
L 53.21875 71.78125 
L 48.09375 51.515625 
L 60.015625 51.515625 
L 60.015625 44 
L 46.296875 44 
L 42.1875 27.6875 
L 54.390625 27.6875 
L 54.390625 20.21875 
L 40.28125 20.21875 
L 35.203125 0 
L 27.390625 0 
L 32.515625 20.21875 
L 20.515625 20.21875 
L 15.375 0 
L 7.625 0 
L 12.703125 20.21875 
L 0.09375 20.21875 
L 0.09375 27.6875 
L 14.59375 27.6875 
L 18.703125 44 
L 5.71875 44 
L 5.71875 51.515625 
L 20.515625 51.515625 
L 25.59375 71.78125 
z
M 38.484375 44 
L 26.515625 44 
L 22.40625 27.6875 
L 34.421875 27.6875 
z
" id="DejaVuSansMono-35"/>
      <path id="DejaVuSansMono-32"/>
      <path d="M 43.21875 75.875 
Q 36.71875 64.75 33.515625 53.6875 
Q 30.328125 42.625 30.328125 31.390625 
Q 30.328125 20.21875 33.515625 9.125 
Q 36.71875 -1.953125 43.21875 -13.1875 
L 35.40625 -13.1875 
Q 28.03125 -1.5625 24.40625 9.4375 
Q 20.796875 20.453125 20.796875 31.390625 
Q 20.796875 42.28125 24.40625 53.3125 
Q 28.03125 64.359375 35.40625 75.875 
z
" id="DejaVuSansMono-40"/>
      <path d="M 51.3125 33.890625 
L 51.3125 0 
L 42.28125 0 
L 42.28125 33.890625 
Q 42.28125 41.265625 39.6875 44.71875 
Q 37.109375 48.1875 31.59375 48.1875 
Q 25.296875 48.1875 21.890625 43.71875 
Q 18.5 39.265625 18.5 30.90625 
L 18.5 0 
L 9.515625 0 
L 9.515625 54.6875 
L 18.5 54.6875 
L 18.5 46.484375 
Q 20.90625 51.171875 25 53.578125 
Q 29.109375 56 34.71875 56 
Q 43.0625 56 47.1875 50.5 
Q 51.3125 45.015625 51.3125 33.890625 
z
" id="DejaVuSansMono-110"/>
      <path d="M 24.515625 14.796875 
L 36.8125 14.796875 
L 36.8125 4.6875 
L 27.203125 -14.015625 
L 19.671875 -14.015625 
L 24.515625 4.6875 
z
" id="DejaVuSansMono-44"/>
      <path d="M 33.015625 49.125 
Q 34.671875 52.640625 37.234375 54.3125 
Q 39.796875 56 43.40625 56 
Q 50 56 52.703125 50.890625 
Q 55.421875 45.796875 55.421875 31.6875 
L 55.421875 0 
L 47.21875 0 
L 47.21875 31.296875 
Q 47.21875 42.875 45.921875 45.671875 
Q 44.625 48.484375 41.21875 48.484375 
Q 37.3125 48.484375 35.859375 45.484375 
Q 34.421875 42.484375 34.421875 31.296875 
L 34.421875 0 
L 26.21875 0 
L 26.21875 31.296875 
Q 26.21875 43.015625 24.828125 45.75 
Q 23.4375 48.484375 19.828125 48.484375 
Q 16.265625 48.484375 14.875 45.484375 
Q 13.484375 42.484375 13.484375 31.296875 
L 13.484375 0 
L 5.328125 0 
L 5.328125 54.6875 
L 13.484375 54.6875 
L 13.484375 50 
Q 15.09375 52.9375 17.5 54.46875 
Q 19.921875 56 23 56 
Q 26.703125 56 29.171875 54.296875 
Q 31.640625 52.59375 33.015625 49.125 
z
" id="DejaVuSansMono-109"/>
      <path d="M 54.296875 29.59375 
L 54.296875 25.203125 
L 15.375 25.203125 
L 15.375 24.90625 
Q 15.375 15.96875 20.03125 11.078125 
Q 24.703125 6.203125 33.203125 6.203125 
Q 37.5 6.203125 42.1875 7.5625 
Q 46.875 8.9375 52.203125 11.71875 
L 52.203125 2.78125 
Q 47.078125 0.6875 42.3125 -0.359375 
Q 37.546875 -1.421875 33.109375 -1.421875 
Q 20.359375 -1.421875 13.171875 6.21875 
Q 6 13.875 6 27.296875 
Q 6 40.375 13.03125 48.1875 
Q 20.0625 56 31.78125 56 
Q 42.234375 56 48.265625 48.921875 
Q 54.296875 41.84375 54.296875 29.59375 
z
M 45.3125 32.234375 
Q 45.125 40.140625 41.578125 44.265625 
Q 38.03125 48.390625 31.390625 48.390625 
Q 24.90625 48.390625 20.703125 44.09375 
Q 16.5 39.796875 15.71875 32.171875 
z
" id="DejaVuSansMono-101"/>
      <path d="M 34.28125 27.484375 
L 31.296875 27.484375 
Q 23.4375 27.484375 19.453125 24.71875 
Q 15.484375 21.96875 15.484375 16.5 
Q 15.484375 11.578125 18.453125 8.84375 
Q 21.4375 6.109375 26.703125 6.109375 
Q 34.125 6.109375 38.375 11.25 
Q 42.625 16.40625 42.671875 25.484375 
L 42.671875 27.484375 
z
M 51.703125 31.203125 
L 51.703125 0 
L 42.671875 0 
L 42.671875 8.109375 
Q 39.796875 3.21875 35.421875 0.890625 
Q 31.0625 -1.421875 24.8125 -1.421875 
Q 16.453125 -1.421875 11.46875 3.296875 
Q 6.5 8.015625 6.5 15.921875 
Q 6.5 25.046875 12.625 29.78125 
Q 18.75 34.515625 30.609375 34.515625 
L 42.671875 34.515625 
L 42.671875 35.9375 
Q 42.625 42.484375 39.34375 45.4375 
Q 36.078125 48.390625 28.90625 48.390625 
Q 24.3125 48.390625 19.625 47.0625 
Q 14.9375 45.75 10.5 43.21875 
L 10.5 52.203125 
Q 15.484375 54.109375 20.046875 55.046875 
Q 24.609375 56 28.90625 56 
Q 35.6875 56 40.5 54 
Q 45.3125 52 48.296875 48 
Q 50.140625 45.5625 50.921875 41.96875 
Q 51.703125 38.375 51.703125 31.203125 
z
" id="DejaVuSansMono-97"/>
      <path d="M 47.515625 52.78125 
L 47.515625 44 
Q 43.65625 46.234375 39.75 47.359375 
Q 35.84375 48.484375 31.78125 48.484375 
Q 25.6875 48.484375 22.671875 46.5 
Q 19.671875 44.53125 19.671875 40.484375 
Q 19.671875 36.8125 21.921875 35 
Q 24.171875 33.203125 33.109375 31.5 
L 36.71875 30.8125 
Q 43.40625 29.546875 46.84375 25.734375 
Q 50.296875 21.921875 50.296875 15.828125 
Q 50.296875 7.71875 44.53125 3.140625 
Q 38.765625 -1.421875 28.515625 -1.421875 
Q 24.46875 -1.421875 20.015625 -0.5625 
Q 15.578125 0.296875 10.40625 2 
L 10.40625 11.28125 
Q 15.4375 8.6875 20.015625 7.390625 
Q 24.609375 6.109375 28.71875 6.109375 
Q 34.671875 6.109375 37.9375 8.515625 
Q 41.21875 10.9375 41.21875 15.28125 
Q 41.21875 21.53125 29.25 23.921875 
L 28.859375 24.03125 
L 25.484375 24.703125 
Q 17.71875 26.21875 14.15625 29.8125 
Q 10.59375 33.40625 10.59375 39.59375 
Q 10.59375 47.46875 15.90625 51.734375 
Q 21.234375 56 31.109375 56 
Q 35.5 56 39.546875 55.1875 
Q 43.609375 54.390625 47.515625 52.78125 
z
" id="DejaVuSansMono-115"/>
      <path d="M 29.984375 70.21875 
L 29.984375 54.6875 
L 50.390625 54.6875 
L 50.390625 47.703125 
L 29.984375 47.703125 
L 29.984375 18.015625 
Q 29.984375 11.96875 32.28125 9.5625 
Q 34.578125 7.171875 40.28125 7.171875 
L 50.390625 7.171875 
L 50.390625 0 
L 39.40625 0 
Q 29.296875 0 25.140625 4.046875 
Q 21 8.109375 21 18.015625 
L 21 47.703125 
L 6.390625 47.703125 
L 6.390625 54.6875 
L 21 54.6875 
L 21 70.21875 
z
" id="DejaVuSansMono-116"/>
      <path d="M 41.890625 47.703125 
L 41.890625 75.984375 
L 50.875 75.984375 
L 50.875 0 
L 41.890625 0 
L 41.890625 6.890625 
Q 39.65625 2.828125 35.90625 0.703125 
Q 32.171875 -1.421875 27.296875 -1.421875 
Q 17.390625 -1.421875 11.6875 6.265625 
Q 6 13.96875 6 27.484375 
Q 6 40.828125 11.71875 48.40625 
Q 17.4375 56 27.296875 56 
Q 32.234375 56 35.984375 53.875 
Q 39.75 51.765625 41.890625 47.703125 
z
M 15.484375 27.296875 
Q 15.484375 16.84375 18.796875 11.515625 
Q 22.125 6.203125 28.609375 6.203125 
Q 35.109375 6.203125 38.5 11.5625 
Q 41.890625 16.9375 41.890625 27.296875 
Q 41.890625 37.703125 38.5 43.046875 
Q 35.109375 48.390625 28.609375 48.390625 
Q 22.125 48.390625 18.796875 43.0625 
Q 15.484375 37.75 15.484375 27.296875 
z
" id="DejaVuSansMono-100"/>
      <path d="M 17 75.875 
L 24.8125 75.875 
Q 32.171875 64.359375 35.78125 53.3125 
Q 39.40625 42.28125 39.40625 31.390625 
Q 39.40625 20.40625 35.78125 9.375 
Q 32.171875 -1.65625 24.8125 -13.1875 
L 17 -13.1875 
Q 23.484375 -1.859375 26.6875 9.21875 
Q 29.890625 20.3125 29.890625 31.390625 
Q 29.890625 42.53125 26.6875 53.609375 
Q 23.484375 64.703125 17 75.875 
z
" id="DejaVuSansMono-41"/>
     </defs>
     <g style="fill:#262626;" transform="translate(500.92966 64.210433)scale(0.149904 -0.149904)">
      <use xlink:href="#DejaVuSansMono-35"/>
      <use x="60.205078" xlink:href="#DejaVuSansMono-32"/>
      <use x="120.410156" xlink:href="#DejaVuSansMono-32"/>
      <use x="180.615234" xlink:href="#DejaVuSansMono-40"/>
      <use x="240.820312" xlink:href="#DejaVuSansMono-32"/>
      <use x="301.025391" xlink:href="#DejaVuSansMono-32"/>
      <use x="361.230469" xlink:href="#DejaVuSansMono-32"/>
      <use x="421.435547" xlink:href="#DejaVuSansMono-32"/>
      <use x="481.640625" xlink:href="#DejaVuSansMono-110"/>
      <use x="541.845703" xlink:href="#DejaVuSansMono-44"/>
      <use x="602.050781" xlink:href="#DejaVuSansMono-32"/>
      <use x="662.255859" xlink:href="#DejaVuSansMono-32"/>
      <use x="722.460938" xlink:href="#DejaVuSansMono-109"/>
      <use x="782.666016" xlink:href="#DejaVuSansMono-101"/>
      <use x="842.871094" xlink:href="#DejaVuSansMono-97"/>
      <use x="903.076172" xlink:href="#DejaVuSansMono-110"/>
      <use x="963.28125" xlink:href="#DejaVuSansMono-44"/>
      <use x="1023.486328" xlink:href="#DejaVuSansMono-32"/>
      <use x="1083.691406" xlink:href="#DejaVuSansMono-32"/>
      <use x="1143.896484" xlink:href="#DejaVuSansMono-32"/>
      <use x="1204.101562" xlink:href="#DejaVuSansMono-115"/>
      <use x="1264.306641" xlink:href="#DejaVuSansMono-116"/>
      <use x="1324.511719" xlink:href="#DejaVuSansMono-100"/>
      <use x="1384.716797" xlink:href="#DejaVuSansMono-41"/>
     </g>
    </g>
    <g id="line2d_26">
     <path d="M 458.95654 81.046526 
L 488.93734 81.046526 
" style="fill:none;stroke:#8dd3c7;stroke-linecap:round;stroke-opacity:0.75;stroke-width:3;"/>
    </g>
    <g id="line2d_27"/>
    <g id="text_21">
     <!-- 1  (10124, 410.7,  75.0) -->
     <defs>
      <path d="M 13.1875 8.296875 
L 28.515625 8.296875 
L 28.515625 64.015625 
L 12.015625 60.296875 
L 12.015625 69.28125 
L 28.421875 72.90625 
L 38.28125 72.90625 
L 38.28125 8.296875 
L 53.421875 8.296875 
L 53.421875 0 
L 13.1875 0 
z
" id="DejaVuSansMono-49"/>
      <path d="M 23.578125 36.625 
Q 23.578125 39.3125 25.453125 41.265625 
Q 27.34375 43.21875 29.984375 43.21875 
Q 32.71875 43.21875 34.671875 41.265625 
Q 36.625 39.3125 36.625 36.625 
Q 36.625 33.890625 34.6875 31.984375 
Q 32.765625 30.078125 29.984375 30.078125 
Q 27.25 30.078125 25.40625 31.9375 
Q 23.578125 33.796875 23.578125 36.625 
z
M 30.078125 66.40625 
Q 23.1875 66.40625 19.796875 58.984375 
Q 16.40625 51.5625 16.40625 36.375 
Q 16.40625 21.234375 19.796875 13.8125 
Q 23.1875 6.390625 30.078125 6.390625 
Q 37.015625 6.390625 40.40625 13.8125 
Q 43.796875 21.234375 43.796875 36.375 
Q 43.796875 51.5625 40.40625 58.984375 
Q 37.015625 66.40625 30.078125 66.40625 
z
M 30.078125 74.21875 
Q 41.75 74.21875 47.734375 64.640625 
Q 53.71875 55.078125 53.71875 36.375 
Q 53.71875 17.71875 47.734375 8.140625 
Q 41.75 -1.421875 30.078125 -1.421875 
Q 18.40625 -1.421875 12.453125 8.140625 
Q 6.5 17.71875 6.5 36.375 
Q 6.5 55.078125 12.453125 64.640625 
Q 18.40625 74.21875 30.078125 74.21875 
z
" id="DejaVuSansMono-48"/>
      <path d="M 18.21875 8.296875 
L 51.703125 8.296875 
L 51.703125 0 
L 7.421875 0 
L 7.421875 8.296875 
Q 16.546875 17.921875 23.375 25.296875 
Q 30.21875 32.671875 32.8125 35.6875 
Q 37.703125 41.65625 39.40625 45.34375 
Q 41.109375 49.03125 41.109375 52.875 
Q 41.109375 58.984375 37.515625 62.453125 
Q 33.9375 65.921875 27.6875 65.921875 
Q 23.25 65.921875 18.359375 64.3125 
Q 13.484375 62.703125 8.015625 59.421875 
L 8.015625 69.390625 
Q 13.03125 71.78125 17.890625 73 
Q 22.75 74.21875 27.484375 74.21875 
Q 38.1875 74.21875 44.703125 68.53125 
Q 51.21875 62.84375 51.21875 53.609375 
Q 51.21875 48.921875 49.046875 44.234375 
Q 46.875 39.546875 42 33.890625 
Q 39.265625 30.71875 34.0625 25.09375 
Q 28.859375 19.484375 18.21875 8.296875 
z
" id="DejaVuSansMono-50"/>
      <path d="M 35.890625 63.921875 
L 12.890625 25.390625 
L 35.890625 25.390625 
z
M 34.28125 72.90625 
L 45.703125 72.90625 
L 45.703125 25.390625 
L 55.421875 25.390625 
L 55.421875 17.390625 
L 45.703125 17.390625 
L 45.703125 0 
L 35.890625 0 
L 35.890625 17.390625 
L 4.984375 17.390625 
L 4.984375 26.703125 
z
" id="DejaVuSansMono-52"/>
      <path d="M 23.875 14.890625 
L 36.1875 14.890625 
L 36.1875 0 
L 23.875 0 
z
" id="DejaVuSansMono-46"/>
      <path d="M 6.78125 72.90625 
L 52.6875 72.90625 
L 52.6875 68.703125 
L 26.609375 0 
L 16.3125 0 
L 41.703125 64.59375 
L 6.78125 64.59375 
z
" id="DejaVuSansMono-55"/>
      <path d="M 10.109375 72.90625 
L 47.015625 72.90625 
L 47.015625 64.59375 
L 19.09375 64.59375 
L 19.09375 46.6875 
Q 21.1875 47.46875 23.3125 47.828125 
Q 25.4375 48.1875 27.59375 48.1875 
Q 38.921875 48.1875 45.5625 41.5 
Q 52.203125 34.8125 52.203125 23.390625 
Q 52.203125 11.859375 45.234375 5.21875 
Q 38.28125 -1.421875 26.21875 -1.421875 
Q 20.40625 -1.421875 15.59375 -0.640625 
Q 10.796875 0.140625 6.984375 1.703125 
L 6.984375 11.71875 
Q 11.46875 9.28125 16.015625 8.078125 
Q 20.5625 6.890625 25.296875 6.890625 
Q 33.453125 6.890625 37.859375 11.1875 
Q 42.28125 15.484375 42.28125 23.390625 
Q 42.28125 31.203125 37.71875 35.546875 
Q 33.15625 39.890625 25 39.890625 
Q 21.046875 39.890625 17.28125 38.984375 
Q 13.53125 38.09375 10.109375 36.28125 
z
" id="DejaVuSansMono-53"/>
     </defs>
     <g style="fill:#262626;" transform="translate(500.92966 86.293166)scale(0.149904 -0.149904)">
      <use xlink:href="#DejaVuSansMono-49"/>
      <use x="60.205078" xlink:href="#DejaVuSansMono-32"/>
      <use x="120.410156" xlink:href="#DejaVuSansMono-32"/>
      <use x="180.615234" xlink:href="#DejaVuSansMono-40"/>
      <use x="240.820312" xlink:href="#DejaVuSansMono-49"/>
      <use x="301.025391" xlink:href="#DejaVuSansMono-48"/>
      <use x="361.230469" xlink:href="#DejaVuSansMono-49"/>
      <use x="421.435547" xlink:href="#DejaVuSansMono-50"/>
      <use x="481.640625" xlink:href="#DejaVuSansMono-52"/>
      <use x="541.845703" xlink:href="#DejaVuSansMono-44"/>
      <use x="602.050781" xlink:href="#DejaVuSansMono-32"/>
      <use x="662.255859" xlink:href="#DejaVuSansMono-52"/>
      <use x="722.460938" xlink:href="#DejaVuSansMono-49"/>
      <use x="782.666016" xlink:href="#DejaVuSansMono-48"/>
      <use x="842.871094" xlink:href="#DejaVuSansMono-46"/>
      <use x="903.076172" xlink:href="#DejaVuSansMono-55"/>
      <use x="963.28125" xlink:href="#DejaVuSansMono-44"/>
      <use x="1023.486328" xlink:href="#DejaVuSansMono-32"/>
      <use x="1083.691406" xlink:href="#DejaVuSansMono-32"/>
      <use x="1143.896484" xlink:href="#DejaVuSansMono-55"/>
      <use x="1204.101562" xlink:href="#DejaVuSansMono-53"/>
      <use x="1264.306641" xlink:href="#DejaVuSansMono-46"/>
      <use x="1324.511719" xlink:href="#DejaVuSansMono-48"/>
      <use x="1384.716797" xlink:href="#DejaVuSansMono-41"/>
     </g>
    </g>
    <g id="line2d_28">
     <path d="M 458.95654 103.129259 
L 488.93734 103.129259 
" style="fill:none;stroke:#ffffb3;stroke-linecap:round;stroke-opacity:0.75;stroke-width:3;"/>
    </g>
    <g id="line2d_29"/>
    <g id="text_22">
     <!-- 2  (16155, 397.9,  69.6) -->
     <defs>
      <path d="M 48.390625 71.296875 
L 48.390625 62.203125 
Q 45.3125 64.015625 41.84375 64.96875 
Q 38.375 65.921875 34.625 65.921875 
Q 25.25 65.921875 20.40625 58.859375 
Q 15.578125 51.8125 15.578125 38.09375 
Q 17.921875 42.96875 22.0625 45.578125 
Q 26.21875 48.1875 31.59375 48.1875 
Q 42.140625 48.1875 47.921875 41.71875 
Q 53.71875 35.25 53.71875 23.390625 
Q 53.71875 11.578125 47.75 5.078125 
Q 41.796875 -1.421875 31 -1.421875 
Q 18.3125 -1.421875 12.40625 7.6875 
Q 6.5 16.796875 6.5 36.375 
Q 6.5 54.828125 13.59375 64.515625 
Q 20.703125 74.21875 34.1875 74.21875 
Q 37.796875 74.21875 41.40625 73.453125 
Q 45.015625 72.703125 48.390625 71.296875 
z
M 30.8125 40.484375 
Q 24.515625 40.484375 20.890625 35.9375 
Q 17.28125 31.390625 17.28125 23.390625 
Q 17.28125 15.375 20.890625 10.828125 
Q 24.515625 6.296875 30.8125 6.296875 
Q 37.359375 6.296875 40.671875 10.609375 
Q 44 14.9375 44 23.390625 
Q 44 31.890625 40.671875 36.1875 
Q 37.359375 40.484375 30.8125 40.484375 
z
" id="DejaVuSansMono-54"/>
      <path d="M 37.890625 39.015625 
Q 45.0625 37.109375 48.875 32.25 
Q 52.6875 27.390625 52.6875 20.125 
Q 52.6875 10.0625 45.921875 4.3125 
Q 39.15625 -1.421875 27.203125 -1.421875 
Q 22.171875 -1.421875 16.9375 -0.484375 
Q 11.71875 0.4375 6.6875 2.203125 
L 6.6875 12.015625 
Q 11.671875 9.421875 16.5 8.15625 
Q 21.34375 6.890625 26.125 6.890625 
Q 34.234375 6.890625 38.578125 10.546875 
Q 42.921875 14.203125 42.921875 21.09375 
Q 42.921875 27.4375 38.578125 31.171875 
Q 34.234375 34.90625 26.8125 34.90625 
L 19.28125 34.90625 
L 19.28125 43.015625 
L 26.8125 43.015625 
Q 33.59375 43.015625 37.40625 45.984375 
Q 41.21875 48.96875 41.21875 54.296875 
Q 41.21875 59.90625 37.671875 62.90625 
Q 34.125 65.921875 27.59375 65.921875 
Q 23.25 65.921875 18.609375 64.9375 
Q 13.96875 63.96875 8.890625 62.015625 
L 8.890625 71.09375 
Q 14.796875 72.65625 19.40625 73.4375 
Q 24.03125 74.21875 27.59375 74.21875 
Q 38.234375 74.21875 44.609375 68.875 
Q 50.984375 63.53125 50.984375 54.6875 
Q 50.984375 48.6875 47.625 44.671875 
Q 44.28125 40.671875 37.890625 39.015625 
z
" id="DejaVuSansMono-51"/>
      <path d="M 29.109375 32.328125 
Q 35.40625 32.328125 38.984375 36.859375 
Q 42.578125 41.40625 42.578125 49.421875 
Q 42.578125 57.421875 38.984375 61.953125 
Q 35.40625 66.5 29.109375 66.5 
Q 22.5625 66.5 19.234375 62.171875 
Q 15.921875 57.859375 15.921875 49.421875 
Q 15.921875 40.921875 19.21875 36.625 
Q 22.515625 32.328125 29.109375 32.328125 
z
M 11.53125 1.515625 
L 11.53125 10.59375 
Q 14.59375 8.796875 18.0625 7.84375 
Q 21.53125 6.890625 25.296875 6.890625 
Q 34.671875 6.890625 39.46875 13.9375 
Q 44.28125 21 44.28125 34.71875 
Q 42 29.828125 37.84375 27.21875 
Q 33.6875 24.609375 28.328125 24.609375 
Q 17.78125 24.609375 11.984375 31.09375 
Q 6.203125 37.59375 6.203125 49.515625 
Q 6.203125 61.28125 12.125 67.75 
Q 18.0625 74.21875 28.90625 74.21875 
Q 41.609375 74.21875 47.515625 65.078125 
Q 53.421875 55.953125 53.421875 36.375 
Q 53.421875 17.96875 46.3125 8.265625 
Q 39.203125 -1.421875 25.6875 -1.421875 
Q 22.125 -1.421875 18.5 -0.65625 
Q 14.890625 0.09375 11.53125 1.515625 
z
" id="DejaVuSansMono-57"/>
     </defs>
     <g style="fill:#262626;" transform="translate(500.92966 108.375899)scale(0.149904 -0.149904)">
      <use xlink:href="#DejaVuSansMono-50"/>
      <use x="60.205078" xlink:href="#DejaVuSansMono-32"/>
      <use x="120.410156" xlink:href="#DejaVuSansMono-32"/>
      <use x="180.615234" xlink:href="#DejaVuSansMono-40"/>
      <use x="240.820312" xlink:href="#DejaVuSansMono-49"/>
      <use x="301.025391" xlink:href="#DejaVuSansMono-54"/>
      <use x="361.230469" xlink:href="#DejaVuSansMono-49"/>
      <use x="421.435547" xlink:href="#DejaVuSansMono-53"/>
      <use x="481.640625" xlink:href="#DejaVuSansMono-53"/>
      <use x="541.845703" xlink:href="#DejaVuSansMono-44"/>
      <use x="602.050781" xlink:href="#DejaVuSansMono-32"/>
      <use x="662.255859" xlink:href="#DejaVuSansMono-51"/>
      <use x="722.460938" xlink:href="#DejaVuSansMono-57"/>
      <use x="782.666016" xlink:href="#DejaVuSansMono-55"/>
      <use x="842.871094" xlink:href="#DejaVuSansMono-46"/>
      <use x="903.076172" xlink:href="#DejaVuSansMono-57"/>
      <use x="963.28125" xlink:href="#DejaVuSansMono-44"/>
      <use x="1023.486328" xlink:href="#DejaVuSansMono-32"/>
      <use x="1083.691406" xlink:href="#DejaVuSansMono-32"/>
      <use x="1143.896484" xlink:href="#DejaVuSansMono-54"/>
      <use x="1204.101562" xlink:href="#DejaVuSansMono-57"/>
      <use x="1264.306641" xlink:href="#DejaVuSansMono-46"/>
      <use x="1324.511719" xlink:href="#DejaVuSansMono-54"/>
      <use x="1384.716797" xlink:href="#DejaVuSansMono-41"/>
     </g>
    </g>
    <g id="line2d_30">
     <path d="M 458.95654 125.211992 
L 488.93734 125.211992 
" style="fill:none;stroke:#bebada;stroke-linecap:round;stroke-opacity:0.75;stroke-width:3;"/>
    </g>
    <g id="line2d_31"/>
    <g id="text_23">
     <!-- 3  (14634, 422.8,  71.3) -->
     <defs>
      <path d="M 30.078125 34.625 
Q 23.484375 34.625 19.890625 30.9375 
Q 16.3125 27.25 16.3125 20.515625 
Q 16.3125 13.765625 19.9375 10.03125 
Q 23.578125 6.296875 30.078125 6.296875 
Q 36.71875 6.296875 40.296875 9.984375 
Q 43.890625 13.671875 43.890625 20.515625 
Q 43.890625 27.203125 40.25 30.90625 
Q 36.625 34.625 30.078125 34.625 
z
M 21.484375 38.71875 
Q 15.1875 40.328125 11.640625 44.71875 
Q 8.109375 49.125 8.109375 55.328125 
Q 8.109375 64.015625 14.015625 69.109375 
Q 19.921875 74.21875 30.078125 74.21875 
Q 40.28125 74.21875 46.1875 69.109375 
Q 52.09375 64.015625 52.09375 55.328125 
Q 52.09375 49.125 48.546875 44.71875 
Q 45.015625 40.328125 38.71875 38.71875 
Q 46.046875 37.109375 49.921875 32.21875 
Q 53.8125 27.34375 53.8125 19.578125 
Q 53.8125 9.71875 47.515625 4.140625 
Q 41.21875 -1.421875 30.078125 -1.421875 
Q 18.953125 -1.421875 12.671875 4.125 
Q 6.390625 9.671875 6.390625 19.484375 
Q 6.390625 27.296875 10.265625 32.203125 
Q 14.15625 37.109375 21.484375 38.71875 
z
M 17.921875 54.390625 
Q 17.921875 48.53125 21.046875 45.453125 
Q 24.171875 42.390625 30.078125 42.390625 
Q 36.03125 42.390625 39.15625 45.453125 
Q 42.28125 48.53125 42.28125 54.390625 
Q 42.28125 60.359375 39.171875 63.484375 
Q 36.078125 66.609375 30.078125 66.609375 
Q 24.171875 66.609375 21.046875 63.453125 
Q 17.921875 60.296875 17.921875 54.390625 
z
" id="DejaVuSansMono-56"/>
     </defs>
     <g style="fill:#262626;" transform="translate(500.92966 130.458632)scale(0.149904 -0.149904)">
      <use xlink:href="#DejaVuSansMono-51"/>
      <use x="60.205078" xlink:href="#DejaVuSansMono-32"/>
      <use x="120.410156" xlink:href="#DejaVuSansMono-32"/>
      <use x="180.615234" xlink:href="#DejaVuSansMono-40"/>
      <use x="240.820312" xlink:href="#DejaVuSansMono-49"/>
      <use x="301.025391" xlink:href="#DejaVuSansMono-52"/>
      <use x="361.230469" xlink:href="#DejaVuSansMono-54"/>
      <use x="421.435547" xlink:href="#DejaVuSansMono-51"/>
      <use x="481.640625" xlink:href="#DejaVuSansMono-52"/>
      <use x="541.845703" xlink:href="#DejaVuSansMono-44"/>
      <use x="602.050781" xlink:href="#DejaVuSansMono-32"/>
      <use x="662.255859" xlink:href="#DejaVuSansMono-52"/>
      <use x="722.460938" xlink:href="#DejaVuSansMono-50"/>
      <use x="782.666016" xlink:href="#DejaVuSansMono-50"/>
      <use x="842.871094" xlink:href="#DejaVuSansMono-46"/>
      <use x="903.076172" xlink:href="#DejaVuSansMono-56"/>
      <use x="963.28125" xlink:href="#DejaVuSansMono-44"/>
      <use x="1023.486328" xlink:href="#DejaVuSansMono-32"/>
      <use x="1083.691406" xlink:href="#DejaVuSansMono-32"/>
      <use x="1143.896484" xlink:href="#DejaVuSansMono-55"/>
      <use x="1204.101562" xlink:href="#DejaVuSansMono-49"/>
      <use x="1264.306641" xlink:href="#DejaVuSansMono-46"/>
      <use x="1324.511719" xlink:href="#DejaVuSansMono-51"/>
      <use x="1384.716797" xlink:href="#DejaVuSansMono-41"/>
     </g>
    </g>
    <g id="line2d_32">
     <path d="M 458.95654 147.294725 
L 488.93734 147.294725 
" style="fill:none;stroke:#fb8072;stroke-linecap:round;stroke-opacity:0.75;stroke-width:3;"/>
    </g>
    <g id="line2d_33"/>
    <g id="text_24">
     <!-- 4  ( 1489, 397.8,  67.2) -->
     <g style="fill:#262626;" transform="translate(500.92966 152.541365)scale(0.149904 -0.149904)">
      <use xlink:href="#DejaVuSansMono-52"/>
      <use x="60.205078" xlink:href="#DejaVuSansMono-32"/>
      <use x="120.410156" xlink:href="#DejaVuSansMono-32"/>
      <use x="180.615234" xlink:href="#DejaVuSansMono-40"/>
      <use x="240.820312" xlink:href="#DejaVuSansMono-32"/>
      <use x="301.025391" xlink:href="#DejaVuSansMono-49"/>
      <use x="361.230469" xlink:href="#DejaVuSansMono-52"/>
      <use x="421.435547" xlink:href="#DejaVuSansMono-56"/>
      <use x="481.640625" xlink:href="#DejaVuSansMono-57"/>
      <use x="541.845703" xlink:href="#DejaVuSansMono-44"/>
      <use x="602.050781" xlink:href="#DejaVuSansMono-32"/>
      <use x="662.255859" xlink:href="#DejaVuSansMono-51"/>
      <use x="722.460938" xlink:href="#DejaVuSansMono-57"/>
      <use x="782.666016" xlink:href="#DejaVuSansMono-55"/>
      <use x="842.871094" xlink:href="#DejaVuSansMono-46"/>
      <use x="903.076172" xlink:href="#DejaVuSansMono-56"/>
      <use x="963.28125" xlink:href="#DejaVuSansMono-44"/>
      <use x="1023.486328" xlink:href="#DejaVuSansMono-32"/>
      <use x="1083.691406" xlink:href="#DejaVuSansMono-32"/>
      <use x="1143.896484" xlink:href="#DejaVuSansMono-54"/>
      <use x="1204.101562" xlink:href="#DejaVuSansMono-55"/>
      <use x="1264.306641" xlink:href="#DejaVuSansMono-46"/>
      <use x="1324.511719" xlink:href="#DejaVuSansMono-50"/>
      <use x="1384.716797" xlink:href="#DejaVuSansMono-41"/>
     </g>
    </g>
    <g id="line2d_34">
     <path d="M 458.95654 169.377458 
L 488.93734 169.377458 
" style="fill:none;stroke:#80b1d3;stroke-linecap:round;stroke-opacity:0.75;stroke-width:3;"/>
    </g>
    <g id="line2d_35"/>
    <g id="text_25">
     <!-- 5  (  835, 412.3,  68.1) -->
     <g style="fill:#262626;" transform="translate(500.92966 174.624098)scale(0.149904 -0.149904)">
      <use xlink:href="#DejaVuSansMono-53"/>
      <use x="60.205078" xlink:href="#DejaVuSansMono-32"/>
      <use x="120.410156" xlink:href="#DejaVuSansMono-32"/>
      <use x="180.615234" xlink:href="#DejaVuSansMono-40"/>
      <use x="240.820312" xlink:href="#DejaVuSansMono-32"/>
      <use x="301.025391" xlink:href="#DejaVuSansMono-32"/>
      <use x="361.230469" xlink:href="#DejaVuSansMono-56"/>
      <use x="421.435547" xlink:href="#DejaVuSansMono-51"/>
      <use x="481.640625" xlink:href="#DejaVuSansMono-53"/>
      <use x="541.845703" xlink:href="#DejaVuSansMono-44"/>
      <use x="602.050781" xlink:href="#DejaVuSansMono-32"/>
      <use x="662.255859" xlink:href="#DejaVuSansMono-52"/>
      <use x="722.460938" xlink:href="#DejaVuSansMono-49"/>
      <use x="782.666016" xlink:href="#DejaVuSansMono-50"/>
      <use x="842.871094" xlink:href="#DejaVuSansMono-46"/>
      <use x="903.076172" xlink:href="#DejaVuSansMono-51"/>
      <use x="963.28125" xlink:href="#DejaVuSansMono-44"/>
      <use x="1023.486328" xlink:href="#DejaVuSansMono-32"/>
      <use x="1083.691406" xlink:href="#DejaVuSansMono-32"/>
      <use x="1143.896484" xlink:href="#DejaVuSansMono-54"/>
      <use x="1204.101562" xlink:href="#DejaVuSansMono-56"/>
      <use x="1264.306641" xlink:href="#DejaVuSansMono-46"/>
      <use x="1324.511719" xlink:href="#DejaVuSansMono-49"/>
      <use x="1384.716797" xlink:href="#DejaVuSansMono-41"/>
     </g>
    </g>
    <g id="line2d_36">
     <path d="M 458.95654 191.460191 
L 488.93734 191.460191 
" style="fill:none;stroke:#fdb462;stroke-linecap:round;stroke-opacity:0.75;stroke-width:3;"/>
    </g>
    <g id="line2d_37"/>
    <g id="text_26">
     <!-- 6  ( 3312, 331.4,  99.4) -->
     <g style="fill:#262626;" transform="translate(500.92966 196.706831)scale(0.149904 -0.149904)">
      <use xlink:href="#DejaVuSansMono-54"/>
      <use x="60.205078" xlink:href="#DejaVuSansMono-32"/>
      <use x="120.410156" xlink:href="#DejaVuSansMono-32"/>
      <use x="180.615234" xlink:href="#DejaVuSansMono-40"/>
      <use x="240.820312" xlink:href="#DejaVuSansMono-32"/>
      <use x="301.025391" xlink:href="#DejaVuSansMono-51"/>
      <use x="361.230469" xlink:href="#DejaVuSansMono-51"/>
      <use x="421.435547" xlink:href="#DejaVuSansMono-49"/>
      <use x="481.640625" xlink:href="#DejaVuSansMono-50"/>
      <use x="541.845703" xlink:href="#DejaVuSansMono-44"/>
      <use x="602.050781" xlink:href="#DejaVuSansMono-32"/>
      <use x="662.255859" xlink:href="#DejaVuSansMono-51"/>
      <use x="722.460938" xlink:href="#DejaVuSansMono-51"/>
      <use x="782.666016" xlink:href="#DejaVuSansMono-49"/>
      <use x="842.871094" xlink:href="#DejaVuSansMono-46"/>
      <use x="903.076172" xlink:href="#DejaVuSansMono-52"/>
      <use x="963.28125" xlink:href="#DejaVuSansMono-44"/>
      <use x="1023.486328" xlink:href="#DejaVuSansMono-32"/>
      <use x="1083.691406" xlink:href="#DejaVuSansMono-32"/>
      <use x="1143.896484" xlink:href="#DejaVuSansMono-57"/>
      <use x="1204.101562" xlink:href="#DejaVuSansMono-57"/>
      <use x="1264.306641" xlink:href="#DejaVuSansMono-46"/>
      <use x="1324.511719" xlink:href="#DejaVuSansMono-52"/>
      <use x="1384.716797" xlink:href="#DejaVuSansMono-41"/>
     </g>
    </g>
    <g id="line2d_38">
     <path d="M 458.95654 213.542924 
L 488.93734 213.542924 
" style="fill:none;stroke:#b3de69;stroke-linecap:round;stroke-opacity:0.75;stroke-width:3;"/>
    </g>
    <g id="line2d_39"/>
    <g id="text_27">
     <!-- 7  (  833, 267.3,  65.0) -->
     <g style="fill:#262626;" transform="translate(500.92966 218.789564)scale(0.149904 -0.149904)">
      <use xlink:href="#DejaVuSansMono-55"/>
      <use x="60.205078" xlink:href="#DejaVuSansMono-32"/>
      <use x="120.410156" xlink:href="#DejaVuSansMono-32"/>
      <use x="180.615234" xlink:href="#DejaVuSansMono-40"/>
      <use x="240.820312" xlink:href="#DejaVuSansMono-32"/>
      <use x="301.025391" xlink:href="#DejaVuSansMono-32"/>
      <use x="361.230469" xlink:href="#DejaVuSansMono-56"/>
      <use x="421.435547" xlink:href="#DejaVuSansMono-51"/>
      <use x="481.640625" xlink:href="#DejaVuSansMono-51"/>
      <use x="541.845703" xlink:href="#DejaVuSansMono-44"/>
      <use x="602.050781" xlink:href="#DejaVuSansMono-32"/>
      <use x="662.255859" xlink:href="#DejaVuSansMono-50"/>
      <use x="722.460938" xlink:href="#DejaVuSansMono-54"/>
      <use x="782.666016" xlink:href="#DejaVuSansMono-55"/>
      <use x="842.871094" xlink:href="#DejaVuSansMono-46"/>
      <use x="903.076172" xlink:href="#DejaVuSansMono-51"/>
      <use x="963.28125" xlink:href="#DejaVuSansMono-44"/>
      <use x="1023.486328" xlink:href="#DejaVuSansMono-32"/>
      <use x="1083.691406" xlink:href="#DejaVuSansMono-32"/>
      <use x="1143.896484" xlink:href="#DejaVuSansMono-54"/>
      <use x="1204.101562" xlink:href="#DejaVuSansMono-53"/>
      <use x="1264.306641" xlink:href="#DejaVuSansMono-46"/>
      <use x="1324.511719" xlink:href="#DejaVuSansMono-48"/>
      <use x="1384.716797" xlink:href="#DejaVuSansMono-41"/>
     </g>
    </g>
   </g>
  </g>
 </g>
 <defs>
  <clipPath id="pda2839070f">
   <rect height="434.88" width="558" x="89.313563" y="12"/>
  </clipPath>
 </defs>
</svg>
