<?xml version="1.0" encoding="utf-8" standalone="no"?>
<!DOCTYPE svg PUBLIC "-//W3C//DTD SVG 1.1//EN"
  "http://www.w3.org/Graphics/SVG/1.1/DTD/svg11.dtd">
<!-- Created with matplotlib (https://matplotlib.org/) -->
<svg height="504.757969pt" version="1.1" viewBox="0 0 724.96455 504.757969" width="724.96455pt" xmlns="http://www.w3.org/2000/svg" xmlns:xlink="http://www.w3.org/1999/xlink">
 <defs>
  <style type="text/css">
*{stroke-linecap:butt;stroke-linejoin:round;}
  </style>
 </defs>
 <g id="figure_1">
  <g id="patch_1">
   <path d="M 0 504.757969 
L 724.96455 504.757969 
L 724.96455 0 
L 0 0 
z
" style="fill:none;"/>
  </g>
  <g id="axes_1">
   <g id="patch_2">
    <path d="M 83.55975 446.88 
L 641.55975 446.88 
L 641.55975 12 
L 83.55975 12 
z
" style="fill:none;"/>
   </g>
   <g id="matplotlib.axis_1">
    <g id="xtick_1">
     <g id="line2d_1">
      <defs>
       <path d="M 0 0 
L 0 4.8 
" id="m196e01ada4" style="stroke:#262626;stroke-width:2.5;"/>
      </defs>
      <g>
       <use style="fill:#262626;stroke:#262626;stroke-width:2.5;" x="127.237632" xlink:href="#m196e01ada4" y="446.88"/>
      </g>
     </g>
     <g id="text_1">
      <!-- 100 -->
      <defs>
       <path d="M 37.25 0 
L 28.46875 0 
L 28.46875 56 
Q 25.296875 52.984375 20.140625 49.953125 
Q 14.984375 46.921875 10.890625 45.40625 
L 10.890625 53.90625 
Q 18.265625 57.375 23.78125 62.296875 
Q 29.296875 67.234375 31.59375 71.875 
L 37.25 71.875 
z
" id="ArialMT-49"/>
       <path d="M 4.15625 35.296875 
Q 4.15625 48 6.765625 55.734375 
Q 9.375 63.484375 14.515625 67.671875 
Q 19.671875 71.875 27.484375 71.875 
Q 33.25 71.875 37.59375 69.546875 
Q 41.9375 67.234375 44.765625 62.859375 
Q 47.609375 58.5 49.21875 52.21875 
Q 50.828125 45.953125 50.828125 35.296875 
Q 50.828125 22.703125 48.234375 14.96875 
Q 45.65625 7.234375 40.5 3 
Q 35.359375 -1.21875 27.484375 -1.21875 
Q 17.140625 -1.21875 11.234375 6.203125 
Q 4.15625 15.140625 4.15625 35.296875 
z
M 13.1875 35.296875 
Q 13.1875 17.671875 17.3125 11.828125 
Q 21.4375 6 27.484375 6 
Q 33.546875 6 37.671875 11.859375 
Q 41.796875 17.71875 41.796875 35.296875 
Q 41.796875 52.984375 37.671875 58.78125 
Q 33.546875 64.59375 27.390625 64.59375 
Q 21.34375 64.59375 17.71875 59.46875 
Q 13.1875 52.9375 13.1875 35.296875 
z
" id="ArialMT-48"/>
      </defs>
      <g style="fill:#262626;" transform="translate(110.721648 469.352469)scale(0.198 -0.198)">
       <use xlink:href="#ArialMT-49"/>
       <use x="55.615234" xlink:href="#ArialMT-48"/>
       <use x="111.230469" xlink:href="#ArialMT-48"/>
      </g>
     </g>
    </g>
    <g id="xtick_2">
     <g id="line2d_2">
      <g>
       <use style="fill:#262626;stroke:#262626;stroke-width:2.5;" x="198.085778" xlink:href="#m196e01ada4" y="446.88"/>
      </g>
     </g>
     <g id="text_2">
      <!-- 200 -->
      <defs>
       <path d="M 50.34375 8.453125 
L 50.34375 0 
L 3.03125 0 
Q 2.9375 3.171875 4.046875 6.109375 
Q 5.859375 10.9375 9.828125 15.625 
Q 13.8125 20.3125 21.34375 26.46875 
Q 33.015625 36.03125 37.109375 41.625 
Q 41.21875 47.21875 41.21875 52.203125 
Q 41.21875 57.421875 37.46875 61 
Q 33.734375 64.59375 27.734375 64.59375 
Q 21.390625 64.59375 17.578125 60.78125 
Q 13.765625 56.984375 13.71875 50.25 
L 4.6875 51.171875 
Q 5.609375 61.28125 11.65625 66.578125 
Q 17.71875 71.875 27.9375 71.875 
Q 38.234375 71.875 44.234375 66.15625 
Q 50.25 60.453125 50.25 52 
Q 50.25 47.703125 48.484375 43.546875 
Q 46.734375 39.40625 42.65625 34.8125 
Q 38.578125 30.21875 29.109375 22.21875 
Q 21.1875 15.578125 18.9375 13.203125 
Q 16.703125 10.84375 15.234375 8.453125 
z
" id="ArialMT-50"/>
      </defs>
      <g style="fill:#262626;" transform="translate(181.569794 469.352469)scale(0.198 -0.198)">
       <use xlink:href="#ArialMT-50"/>
       <use x="55.615234" xlink:href="#ArialMT-48"/>
       <use x="111.230469" xlink:href="#ArialMT-48"/>
      </g>
     </g>
    </g>
    <g id="xtick_3">
     <g id="line2d_3">
      <g>
       <use style="fill:#262626;stroke:#262626;stroke-width:2.5;" x="268.933925" xlink:href="#m196e01ada4" y="446.88"/>
      </g>
     </g>
     <g id="text_3">
      <!-- 300 -->
      <defs>
       <path d="M 4.203125 18.890625 
L 12.984375 20.0625 
Q 14.5 12.59375 18.140625 9.296875 
Q 21.78125 6 27 6 
Q 33.203125 6 37.46875 10.296875 
Q 41.75 14.59375 41.75 20.953125 
Q 41.75 27 37.796875 30.921875 
Q 33.84375 34.859375 27.734375 34.859375 
Q 25.25 34.859375 21.53125 33.890625 
L 22.515625 41.609375 
Q 23.390625 41.5 23.921875 41.5 
Q 29.546875 41.5 34.03125 44.421875 
Q 38.53125 47.359375 38.53125 53.46875 
Q 38.53125 58.296875 35.25 61.46875 
Q 31.984375 64.65625 26.8125 64.65625 
Q 21.6875 64.65625 18.265625 61.421875 
Q 14.84375 58.203125 13.875 51.765625 
L 5.078125 53.328125 
Q 6.6875 62.15625 12.390625 67.015625 
Q 18.109375 71.875 26.609375 71.875 
Q 32.46875 71.875 37.390625 69.359375 
Q 42.328125 66.84375 44.9375 62.5 
Q 47.5625 58.15625 47.5625 53.265625 
Q 47.5625 48.640625 45.0625 44.828125 
Q 42.578125 41.015625 37.703125 38.765625 
Q 44.046875 37.3125 47.5625 32.6875 
Q 51.078125 28.078125 51.078125 21.140625 
Q 51.078125 11.765625 44.234375 5.25 
Q 37.40625 -1.265625 26.953125 -1.265625 
Q 17.53125 -1.265625 11.296875 4.34375 
Q 5.078125 9.96875 4.203125 18.890625 
z
" id="ArialMT-51"/>
      </defs>
      <g style="fill:#262626;" transform="translate(252.41794 469.352469)scale(0.198 -0.198)">
       <use xlink:href="#ArialMT-51"/>
       <use x="55.615234" xlink:href="#ArialMT-48"/>
       <use x="111.230469" xlink:href="#ArialMT-48"/>
      </g>
     </g>
    </g>
    <g id="xtick_4">
     <g id="line2d_4">
      <g>
       <use style="fill:#262626;stroke:#262626;stroke-width:2.5;" x="339.782071" xlink:href="#m196e01ada4" y="446.88"/>
      </g>
     </g>
     <g id="text_4">
      <!-- 400 -->
      <defs>
       <path d="M 32.328125 0 
L 32.328125 17.140625 
L 1.265625 17.140625 
L 1.265625 25.203125 
L 33.9375 71.578125 
L 41.109375 71.578125 
L 41.109375 25.203125 
L 50.78125 25.203125 
L 50.78125 17.140625 
L 41.109375 17.140625 
L 41.109375 0 
z
M 32.328125 25.203125 
L 32.328125 57.46875 
L 9.90625 25.203125 
z
" id="ArialMT-52"/>
      </defs>
      <g style="fill:#262626;" transform="translate(323.266087 469.352469)scale(0.198 -0.198)">
       <use xlink:href="#ArialMT-52"/>
       <use x="55.615234" xlink:href="#ArialMT-48"/>
       <use x="111.230469" xlink:href="#ArialMT-48"/>
      </g>
     </g>
    </g>
    <g id="xtick_5">
     <g id="line2d_5">
      <g>
       <use style="fill:#262626;stroke:#262626;stroke-width:2.5;" x="410.630217" xlink:href="#m196e01ada4" y="446.88"/>
      </g>
     </g>
     <g id="text_5">
      <!-- 500 -->
      <defs>
       <path d="M 4.15625 18.75 
L 13.375 19.53125 
Q 14.40625 12.796875 18.140625 9.390625 
Q 21.875 6 27.15625 6 
Q 33.5 6 37.890625 10.78125 
Q 42.28125 15.578125 42.28125 23.484375 
Q 42.28125 31 38.0625 35.34375 
Q 33.84375 39.703125 27 39.703125 
Q 22.75 39.703125 19.328125 37.765625 
Q 15.921875 35.84375 13.96875 32.765625 
L 5.71875 33.84375 
L 12.640625 70.609375 
L 48.25 70.609375 
L 48.25 62.203125 
L 19.671875 62.203125 
L 15.828125 42.96875 
Q 22.265625 47.46875 29.34375 47.46875 
Q 38.71875 47.46875 45.15625 40.96875 
Q 51.609375 34.46875 51.609375 24.265625 
Q 51.609375 14.546875 45.953125 7.46875 
Q 39.0625 -1.21875 27.15625 -1.21875 
Q 17.390625 -1.21875 11.203125 4.25 
Q 5.03125 9.71875 4.15625 18.75 
z
" id="ArialMT-53"/>
      </defs>
      <g style="fill:#262626;" transform="translate(394.114233 469.352469)scale(0.198 -0.198)">
       <use xlink:href="#ArialMT-53"/>
       <use x="55.615234" xlink:href="#ArialMT-48"/>
       <use x="111.230469" xlink:href="#ArialMT-48"/>
      </g>
     </g>
    </g>
    <g id="xtick_6">
     <g id="line2d_6">
      <g>
       <use style="fill:#262626;stroke:#262626;stroke-width:2.5;" x="481.478364" xlink:href="#m196e01ada4" y="446.88"/>
      </g>
     </g>
     <g id="text_6">
      <!-- 600 -->
      <defs>
       <path d="M 49.75 54.046875 
L 41.015625 53.375 
Q 39.84375 58.546875 37.703125 60.890625 
Q 34.125 64.65625 28.90625 64.65625 
Q 24.703125 64.65625 21.53125 62.3125 
Q 17.390625 59.28125 14.984375 53.46875 
Q 12.59375 47.65625 12.5 36.921875 
Q 15.671875 41.75 20.265625 44.09375 
Q 24.859375 46.4375 29.890625 46.4375 
Q 38.671875 46.4375 44.84375 39.96875 
Q 51.03125 33.5 51.03125 23.25 
Q 51.03125 16.5 48.125 10.71875 
Q 45.21875 4.9375 40.140625 1.859375 
Q 35.0625 -1.21875 28.609375 -1.21875 
Q 17.625 -1.21875 10.6875 6.859375 
Q 3.765625 14.9375 3.765625 33.5 
Q 3.765625 54.25 11.421875 63.671875 
Q 18.109375 71.875 29.4375 71.875 
Q 37.890625 71.875 43.28125 67.140625 
Q 48.6875 62.40625 49.75 54.046875 
z
M 13.875 23.1875 
Q 13.875 18.65625 15.796875 14.5 
Q 17.71875 10.359375 21.1875 8.171875 
Q 24.65625 6 28.46875 6 
Q 34.03125 6 38.03125 10.484375 
Q 42.046875 14.984375 42.046875 22.703125 
Q 42.046875 30.125 38.078125 34.390625 
Q 34.125 38.671875 28.125 38.671875 
Q 22.171875 38.671875 18.015625 34.390625 
Q 13.875 30.125 13.875 23.1875 
z
" id="ArialMT-54"/>
      </defs>
      <g style="fill:#262626;" transform="translate(464.962379 469.352469)scale(0.198 -0.198)">
       <use xlink:href="#ArialMT-54"/>
       <use x="55.615234" xlink:href="#ArialMT-48"/>
       <use x="111.230469" xlink:href="#ArialMT-48"/>
      </g>
     </g>
    </g>
    <g id="xtick_7">
     <g id="line2d_7">
      <g>
       <use style="fill:#262626;stroke:#262626;stroke-width:2.5;" x="552.32651" xlink:href="#m196e01ada4" y="446.88"/>
      </g>
     </g>
     <g id="text_7">
      <!-- 700 -->
      <defs>
       <path d="M 4.734375 62.203125 
L 4.734375 70.65625 
L 51.078125 70.65625 
L 51.078125 63.8125 
Q 44.234375 56.546875 37.515625 44.484375 
Q 30.8125 32.421875 27.15625 19.671875 
Q 24.515625 10.6875 23.78125 0 
L 14.75 0 
Q 14.890625 8.453125 18.0625 20.40625 
Q 21.234375 32.375 27.171875 43.484375 
Q 33.109375 54.59375 39.796875 62.203125 
z
" id="ArialMT-55"/>
      </defs>
      <g style="fill:#262626;" transform="translate(535.810525 469.352469)scale(0.198 -0.198)">
       <use xlink:href="#ArialMT-55"/>
       <use x="55.615234" xlink:href="#ArialMT-48"/>
       <use x="111.230469" xlink:href="#ArialMT-48"/>
      </g>
     </g>
    </g>
    <g id="xtick_8">
     <g id="line2d_8">
      <g>
       <use style="fill:#262626;stroke:#262626;stroke-width:2.5;" x="623.174656" xlink:href="#m196e01ada4" y="446.88"/>
      </g>
     </g>
     <g id="text_8">
      <!-- 800 -->
      <defs>
       <path d="M 17.671875 38.8125 
Q 12.203125 40.828125 9.5625 44.53125 
Q 6.9375 48.25 6.9375 53.421875 
Q 6.9375 61.234375 12.546875 66.546875 
Q 18.171875 71.875 27.484375 71.875 
Q 36.859375 71.875 42.578125 66.421875 
Q 48.296875 60.984375 48.296875 53.171875 
Q 48.296875 48.1875 45.671875 44.5 
Q 43.0625 40.828125 37.75 38.8125 
Q 44.34375 36.671875 47.78125 31.875 
Q 51.21875 27.09375 51.21875 20.453125 
Q 51.21875 11.28125 44.71875 5.03125 
Q 38.234375 -1.21875 27.640625 -1.21875 
Q 17.046875 -1.21875 10.546875 5.046875 
Q 4.046875 11.328125 4.046875 20.703125 
Q 4.046875 27.6875 7.59375 32.390625 
Q 11.140625 37.109375 17.671875 38.8125 
z
M 15.921875 53.71875 
Q 15.921875 48.640625 19.1875 45.40625 
Q 22.46875 42.1875 27.6875 42.1875 
Q 32.765625 42.1875 36.015625 45.375 
Q 39.265625 48.578125 39.265625 53.21875 
Q 39.265625 58.0625 35.90625 61.359375 
Q 32.5625 64.65625 27.59375 64.65625 
Q 22.5625 64.65625 19.234375 61.421875 
Q 15.921875 58.203125 15.921875 53.71875 
z
M 13.09375 20.65625 
Q 13.09375 16.890625 14.875 13.375 
Q 16.65625 9.859375 20.171875 7.921875 
Q 23.6875 6 27.734375 6 
Q 34.03125 6 38.125 10.046875 
Q 42.234375 14.109375 42.234375 20.359375 
Q 42.234375 26.703125 38.015625 30.859375 
Q 33.796875 35.015625 27.4375 35.015625 
Q 21.234375 35.015625 17.15625 30.90625 
Q 13.09375 26.8125 13.09375 20.65625 
z
" id="ArialMT-56"/>
      </defs>
      <g style="fill:#262626;" transform="translate(606.658672 469.352469)scale(0.198 -0.198)">
       <use xlink:href="#ArialMT-56"/>
       <use x="55.615234" xlink:href="#ArialMT-48"/>
       <use x="111.230469" xlink:href="#ArialMT-48"/>
      </g>
     </g>
    </g>
    <g id="text_9">
     <!-- Melting Temperature (K) -->
     <defs>
      <path d="M 7.421875 0 
L 7.421875 71.578125 
L 21.6875 71.578125 
L 38.625 20.90625 
Q 40.96875 13.8125 42.046875 10.296875 
Q 43.265625 14.203125 45.84375 21.78125 
L 62.984375 71.578125 
L 75.734375 71.578125 
L 75.734375 0 
L 66.609375 0 
L 66.609375 59.90625 
L 45.796875 0 
L 37.25 0 
L 16.546875 60.9375 
L 16.546875 0 
z
" id="ArialMT-77"/>
      <path d="M 42.09375 16.703125 
L 51.171875 15.578125 
Q 49.03125 7.625 43.21875 3.21875 
Q 37.40625 -1.171875 28.375 -1.171875 
Q 17 -1.171875 10.328125 5.828125 
Q 3.65625 12.84375 3.65625 25.484375 
Q 3.65625 38.578125 10.390625 45.796875 
Q 17.140625 53.03125 27.875 53.03125 
Q 38.28125 53.03125 44.875 45.953125 
Q 51.46875 38.875 51.46875 26.03125 
Q 51.46875 25.25 51.421875 23.6875 
L 12.75 23.6875 
Q 13.234375 15.140625 17.578125 10.59375 
Q 21.921875 6.0625 28.421875 6.0625 
Q 33.25 6.0625 36.671875 8.59375 
Q 40.09375 11.140625 42.09375 16.703125 
z
M 13.234375 30.90625 
L 42.1875 30.90625 
Q 41.609375 37.453125 38.875 40.71875 
Q 34.671875 45.796875 27.984375 45.796875 
Q 21.921875 45.796875 17.796875 41.75 
Q 13.671875 37.703125 13.234375 30.90625 
z
" id="ArialMT-101"/>
      <path d="M 6.390625 0 
L 6.390625 71.578125 
L 15.1875 71.578125 
L 15.1875 0 
z
" id="ArialMT-108"/>
      <path d="M 25.78125 7.859375 
L 27.046875 0.09375 
Q 23.34375 -0.6875 20.40625 -0.6875 
Q 15.625 -0.6875 12.984375 0.828125 
Q 10.359375 2.34375 9.28125 4.8125 
Q 8.203125 7.28125 8.203125 15.1875 
L 8.203125 45.015625 
L 1.765625 45.015625 
L 1.765625 51.859375 
L 8.203125 51.859375 
L 8.203125 64.703125 
L 16.9375 69.96875 
L 16.9375 51.859375 
L 25.78125 51.859375 
L 25.78125 45.015625 
L 16.9375 45.015625 
L 16.9375 14.703125 
Q 16.9375 10.9375 17.40625 9.859375 
Q 17.875 8.796875 18.921875 8.15625 
Q 19.96875 7.515625 21.921875 7.515625 
Q 23.390625 7.515625 25.78125 7.859375 
z
" id="ArialMT-116"/>
      <path d="M 6.640625 61.46875 
L 6.640625 71.578125 
L 15.4375 71.578125 
L 15.4375 61.46875 
z
M 6.640625 0 
L 6.640625 51.859375 
L 15.4375 51.859375 
L 15.4375 0 
z
" id="ArialMT-105"/>
      <path d="M 6.59375 0 
L 6.59375 51.859375 
L 14.5 51.859375 
L 14.5 44.484375 
Q 20.21875 53.03125 31 53.03125 
Q 35.6875 53.03125 39.625 51.34375 
Q 43.5625 49.65625 45.515625 46.921875 
Q 47.46875 44.1875 48.25 40.4375 
Q 48.734375 37.984375 48.734375 31.890625 
L 48.734375 0 
L 39.9375 0 
L 39.9375 31.546875 
Q 39.9375 36.921875 38.90625 39.578125 
Q 37.890625 42.234375 35.28125 43.8125 
Q 32.671875 45.40625 29.15625 45.40625 
Q 23.53125 45.40625 19.453125 41.84375 
Q 15.375 38.28125 15.375 28.328125 
L 15.375 0 
z
" id="ArialMT-110"/>
      <path d="M 4.984375 -4.296875 
L 13.53125 -5.5625 
Q 14.0625 -9.515625 16.5 -11.328125 
Q 19.78125 -13.765625 25.4375 -13.765625 
Q 31.546875 -13.765625 34.859375 -11.328125 
Q 38.1875 -8.890625 39.359375 -4.5 
Q 40.046875 -1.8125 39.984375 6.78125 
Q 34.234375 0 25.640625 0 
Q 14.9375 0 9.078125 7.71875 
Q 3.21875 15.4375 3.21875 26.21875 
Q 3.21875 33.640625 5.90625 39.90625 
Q 8.59375 46.1875 13.6875 49.609375 
Q 18.796875 53.03125 25.6875 53.03125 
Q 34.859375 53.03125 40.828125 45.609375 
L 40.828125 51.859375 
L 48.921875 51.859375 
L 48.921875 7.03125 
Q 48.921875 -5.078125 46.453125 -10.125 
Q 44 -15.1875 38.640625 -18.109375 
Q 33.296875 -21.046875 25.484375 -21.046875 
Q 16.21875 -21.046875 10.5 -16.875 
Q 4.78125 -12.703125 4.984375 -4.296875 
z
M 12.25 26.859375 
Q 12.25 16.65625 16.296875 11.96875 
Q 20.359375 7.28125 26.46875 7.28125 
Q 32.515625 7.28125 36.609375 11.9375 
Q 40.71875 16.609375 40.71875 26.5625 
Q 40.71875 36.078125 36.5 40.90625 
Q 32.28125 45.75 26.3125 45.75 
Q 20.453125 45.75 16.34375 40.984375 
Q 12.25 36.234375 12.25 26.859375 
z
" id="ArialMT-103"/>
      <path id="ArialMT-32"/>
      <path d="M 25.921875 0 
L 25.921875 63.140625 
L 2.34375 63.140625 
L 2.34375 71.578125 
L 59.078125 71.578125 
L 59.078125 63.140625 
L 35.40625 63.140625 
L 35.40625 0 
z
" id="ArialMT-84"/>
      <path d="M 6.59375 0 
L 6.59375 51.859375 
L 14.453125 51.859375 
L 14.453125 44.578125 
Q 16.890625 48.390625 20.9375 50.703125 
Q 25 53.03125 30.171875 53.03125 
Q 35.9375 53.03125 39.625 50.640625 
Q 43.3125 48.25 44.828125 43.953125 
Q 50.984375 53.03125 60.84375 53.03125 
Q 68.5625 53.03125 72.703125 48.75 
Q 76.859375 44.484375 76.859375 35.59375 
L 76.859375 0 
L 68.109375 0 
L 68.109375 32.671875 
Q 68.109375 37.9375 67.25 40.25 
Q 66.40625 42.578125 64.15625 43.984375 
Q 61.921875 45.40625 58.890625 45.40625 
Q 53.421875 45.40625 49.796875 41.765625 
Q 46.1875 38.140625 46.1875 30.125 
L 46.1875 0 
L 37.40625 0 
L 37.40625 33.6875 
Q 37.40625 39.546875 35.25 42.46875 
Q 33.109375 45.40625 28.21875 45.40625 
Q 24.515625 45.40625 21.359375 43.453125 
Q 18.21875 41.5 16.796875 37.734375 
Q 15.375 33.984375 15.375 26.90625 
L 15.375 0 
z
" id="ArialMT-109"/>
      <path d="M 6.59375 -19.875 
L 6.59375 51.859375 
L 14.59375 51.859375 
L 14.59375 45.125 
Q 17.4375 49.078125 21 51.046875 
Q 24.5625 53.03125 29.640625 53.03125 
Q 36.28125 53.03125 41.359375 49.609375 
Q 46.4375 46.1875 49.015625 39.953125 
Q 51.609375 33.734375 51.609375 26.3125 
Q 51.609375 18.359375 48.75 11.984375 
Q 45.90625 5.609375 40.453125 2.21875 
Q 35.015625 -1.171875 29 -1.171875 
Q 24.609375 -1.171875 21.109375 0.6875 
Q 17.625 2.546875 15.375 5.375 
L 15.375 -19.875 
z
M 14.546875 25.640625 
Q 14.546875 15.625 18.59375 10.84375 
Q 22.65625 6.0625 28.421875 6.0625 
Q 34.28125 6.0625 38.453125 11.015625 
Q 42.625 15.96875 42.625 26.375 
Q 42.625 36.28125 38.546875 41.203125 
Q 34.46875 46.140625 28.8125 46.140625 
Q 23.1875 46.140625 18.859375 40.890625 
Q 14.546875 35.640625 14.546875 25.640625 
z
" id="ArialMT-112"/>
      <path d="M 6.5 0 
L 6.5 51.859375 
L 14.40625 51.859375 
L 14.40625 44 
Q 17.4375 49.515625 20 51.265625 
Q 22.5625 53.03125 25.640625 53.03125 
Q 30.078125 53.03125 34.671875 50.203125 
L 31.640625 42.046875 
Q 28.421875 43.953125 25.203125 43.953125 
Q 22.3125 43.953125 20.015625 42.21875 
Q 17.71875 40.484375 16.75 37.40625 
Q 15.28125 32.71875 15.28125 27.15625 
L 15.28125 0 
z
" id="ArialMT-114"/>
      <path d="M 40.4375 6.390625 
Q 35.546875 2.25 31.03125 0.53125 
Q 26.515625 -1.171875 21.34375 -1.171875 
Q 12.796875 -1.171875 8.203125 3 
Q 3.609375 7.171875 3.609375 13.671875 
Q 3.609375 17.484375 5.34375 20.625 
Q 7.078125 23.78125 9.890625 25.6875 
Q 12.703125 27.59375 16.21875 28.5625 
Q 18.796875 29.25 24.03125 29.890625 
Q 34.671875 31.15625 39.703125 32.90625 
Q 39.75 34.71875 39.75 35.203125 
Q 39.75 40.578125 37.25 42.78125 
Q 33.890625 45.75 27.25 45.75 
Q 21.046875 45.75 18.09375 43.578125 
Q 15.140625 41.40625 13.71875 35.890625 
L 5.125 37.0625 
Q 6.296875 42.578125 8.984375 45.96875 
Q 11.671875 49.359375 16.75 51.1875 
Q 21.828125 53.03125 28.515625 53.03125 
Q 35.15625 53.03125 39.296875 51.46875 
Q 43.453125 49.90625 45.40625 47.53125 
Q 47.359375 45.171875 48.140625 41.546875 
Q 48.578125 39.3125 48.578125 33.453125 
L 48.578125 21.734375 
Q 48.578125 9.46875 49.140625 6.21875 
Q 49.703125 2.984375 51.375 0 
L 42.1875 0 
Q 40.828125 2.734375 40.4375 6.390625 
z
M 39.703125 26.03125 
Q 34.90625 24.078125 25.34375 22.703125 
Q 19.921875 21.921875 17.671875 20.9375 
Q 15.4375 19.96875 14.203125 18.09375 
Q 12.984375 16.21875 12.984375 13.921875 
Q 12.984375 10.40625 15.640625 8.0625 
Q 18.3125 5.71875 23.4375 5.71875 
Q 28.515625 5.71875 32.46875 7.9375 
Q 36.421875 10.15625 38.28125 14.015625 
Q 39.703125 17 39.703125 22.796875 
z
" id="ArialMT-97"/>
      <path d="M 40.578125 0 
L 40.578125 7.625 
Q 34.515625 -1.171875 24.125 -1.171875 
Q 19.53125 -1.171875 15.546875 0.578125 
Q 11.578125 2.34375 9.640625 5 
Q 7.71875 7.671875 6.9375 11.53125 
Q 6.390625 14.109375 6.390625 19.734375 
L 6.390625 51.859375 
L 15.1875 51.859375 
L 15.1875 23.09375 
Q 15.1875 16.21875 15.71875 13.8125 
Q 16.546875 10.359375 19.234375 8.375 
Q 21.921875 6.390625 25.875 6.390625 
Q 29.828125 6.390625 33.296875 8.421875 
Q 36.765625 10.453125 38.203125 13.9375 
Q 39.65625 17.4375 39.65625 24.078125 
L 39.65625 51.859375 
L 48.4375 51.859375 
L 48.4375 0 
z
" id="ArialMT-117"/>
      <path d="M 23.390625 -21.046875 
Q 16.109375 -11.859375 11.078125 0.4375 
Q 6.0625 12.75 6.0625 25.921875 
Q 6.0625 37.546875 9.8125 48.1875 
Q 14.203125 60.546875 23.390625 72.796875 
L 29.6875 72.796875 
Q 23.78125 62.640625 21.875 58.296875 
Q 18.890625 51.5625 17.1875 44.234375 
Q 15.09375 35.109375 15.09375 25.875 
Q 15.09375 2.390625 29.6875 -21.046875 
z
" id="ArialMT-40"/>
      <path d="M 7.328125 0 
L 7.328125 71.578125 
L 16.796875 71.578125 
L 16.796875 36.078125 
L 52.34375 71.578125 
L 65.1875 71.578125 
L 35.15625 42.578125 
L 66.5 0 
L 54 0 
L 28.515625 36.234375 
L 16.796875 24.8125 
L 16.796875 0 
z
" id="ArialMT-75"/>
      <path d="M 12.359375 -21.046875 
L 6.0625 -21.046875 
Q 20.65625 2.390625 20.65625 25.875 
Q 20.65625 35.0625 18.5625 44.09375 
Q 16.890625 51.421875 13.921875 58.15625 
Q 12.015625 62.546875 6.0625 72.796875 
L 12.359375 72.796875 
Q 21.53125 60.546875 25.921875 48.1875 
Q 29.6875 37.546875 29.6875 25.921875 
Q 29.6875 12.75 24.625 0.4375 
Q 19.578125 -11.859375 12.359375 -21.046875 
z
" id="ArialMT-41"/>
     </defs>
     <g style="fill:#262626;" transform="translate(245.550187 493.011844)scale(0.216 -0.216)">
      <use xlink:href="#ArialMT-77"/>
      <use x="83.300781" xlink:href="#ArialMT-101"/>
      <use x="138.916016" xlink:href="#ArialMT-108"/>
      <use x="161.132812" xlink:href="#ArialMT-116"/>
      <use x="188.916016" xlink:href="#ArialMT-105"/>
      <use x="211.132812" xlink:href="#ArialMT-110"/>
      <use x="266.748047" xlink:href="#ArialMT-103"/>
      <use x="322.363281" xlink:href="#ArialMT-32"/>
      <use x="350.130859" xlink:href="#ArialMT-84"/>
      <use x="411.042969" xlink:href="#ArialMT-101"/>
      <use x="466.658203" xlink:href="#ArialMT-109"/>
      <use x="549.958984" xlink:href="#ArialMT-112"/>
      <use x="605.574219" xlink:href="#ArialMT-101"/>
      <use x="661.189453" xlink:href="#ArialMT-114"/>
      <use x="694.490234" xlink:href="#ArialMT-97"/>
      <use x="750.105469" xlink:href="#ArialMT-116"/>
      <use x="777.888672" xlink:href="#ArialMT-117"/>
      <use x="833.503906" xlink:href="#ArialMT-114"/>
      <use x="866.804688" xlink:href="#ArialMT-101"/>
      <use x="922.419922" xlink:href="#ArialMT-32"/>
      <use x="950.203125" xlink:href="#ArialMT-40"/>
      <use x="983.503906" xlink:href="#ArialMT-75"/>
      <use x="1050.203125" xlink:href="#ArialMT-41"/>
     </g>
    </g>
   </g>
   <g id="matplotlib.axis_2">
    <g id="ytick_1">
     <g id="line2d_9">
      <defs>
       <path d="M 0 0 
L -4.8 0 
" id="m0ed4f4b562" style="stroke:#262626;stroke-width:2.5;"/>
      </defs>
      <g>
       <use style="fill:#262626;stroke:#262626;stroke-width:2.5;" x="83.55975" xlink:href="#m0ed4f4b562" y="446.88"/>
      </g>
     </g>
     <g id="text_10">
      <!-- 0 -->
      <g style="fill:#262626;" transform="translate(64.249094 453.966234)scale(0.198 -0.198)">
       <use xlink:href="#ArialMT-48"/>
      </g>
     </g>
    </g>
    <g id="ytick_2">
     <g id="line2d_10">
      <g>
       <use style="fill:#262626;stroke:#262626;stroke-width:2.5;" x="83.55975" xlink:href="#m0ed4f4b562" y="367.15499"/>
      </g>
     </g>
     <g id="text_11">
      <!-- 200 -->
      <g style="fill:#262626;" transform="translate(42.227781 374.241224)scale(0.198 -0.198)">
       <use xlink:href="#ArialMT-50"/>
       <use x="55.615234" xlink:href="#ArialMT-48"/>
       <use x="111.230469" xlink:href="#ArialMT-48"/>
      </g>
     </g>
    </g>
    <g id="ytick_3">
     <g id="line2d_11">
      <g>
       <use style="fill:#262626;stroke:#262626;stroke-width:2.5;" x="83.55975" xlink:href="#m0ed4f4b562" y="287.429979"/>
      </g>
     </g>
     <g id="text_12">
      <!-- 400 -->
      <g style="fill:#262626;" transform="translate(42.227781 294.516214)scale(0.198 -0.198)">
       <use xlink:href="#ArialMT-52"/>
       <use x="55.615234" xlink:href="#ArialMT-48"/>
       <use x="111.230469" xlink:href="#ArialMT-48"/>
      </g>
     </g>
    </g>
    <g id="ytick_4">
     <g id="line2d_12">
      <g>
       <use style="fill:#262626;stroke:#262626;stroke-width:2.5;" x="83.55975" xlink:href="#m0ed4f4b562" y="207.704969"/>
      </g>
     </g>
     <g id="text_13">
      <!-- 600 -->
      <g style="fill:#262626;" transform="translate(42.227781 214.791203)scale(0.198 -0.198)">
       <use xlink:href="#ArialMT-54"/>
       <use x="55.615234" xlink:href="#ArialMT-48"/>
       <use x="111.230469" xlink:href="#ArialMT-48"/>
      </g>
     </g>
    </g>
    <g id="ytick_5">
     <g id="line2d_13">
      <g>
       <use style="fill:#262626;stroke:#262626;stroke-width:2.5;" x="83.55975" xlink:href="#m0ed4f4b562" y="127.979959"/>
      </g>
     </g>
     <g id="text_14">
      <!-- 800 -->
      <g style="fill:#262626;" transform="translate(42.227781 135.066193)scale(0.198 -0.198)">
       <use xlink:href="#ArialMT-56"/>
       <use x="55.615234" xlink:href="#ArialMT-48"/>
       <use x="111.230469" xlink:href="#ArialMT-48"/>
      </g>
     </g>
    </g>
    <g id="ytick_6">
     <g id="line2d_14">
      <g>
       <use style="fill:#262626;stroke:#262626;stroke-width:2.5;" x="83.55975" xlink:href="#m0ed4f4b562" y="48.254948"/>
      </g>
     </g>
     <g id="text_15">
      <!-- 1000 -->
      <g style="fill:#262626;" transform="translate(31.217125 55.341183)scale(0.198 -0.198)">
       <use xlink:href="#ArialMT-49"/>
       <use x="55.615234" xlink:href="#ArialMT-48"/>
       <use x="111.230469" xlink:href="#ArialMT-48"/>
       <use x="166.845703" xlink:href="#ArialMT-48"/>
      </g>
     </g>
    </g>
    <g id="text_16">
     <!-- Samples -->
     <defs>
      <path d="M 4.5 23 
L 13.421875 23.78125 
Q 14.0625 18.40625 16.375 14.96875 
Q 18.703125 11.53125 23.578125 9.40625 
Q 28.46875 7.28125 34.578125 7.28125 
Q 39.984375 7.28125 44.140625 8.890625 
Q 48.296875 10.5 50.3125 13.296875 
Q 52.34375 16.109375 52.34375 19.4375 
Q 52.34375 22.796875 50.390625 25.3125 
Q 48.4375 27.828125 43.953125 29.546875 
Q 41.0625 30.671875 31.203125 33.03125 
Q 21.34375 35.40625 17.390625 37.5 
Q 12.25 40.1875 9.734375 44.15625 
Q 7.234375 48.140625 7.234375 53.078125 
Q 7.234375 58.5 10.296875 63.203125 
Q 13.375 67.921875 19.28125 70.359375 
Q 25.203125 72.796875 32.421875 72.796875 
Q 40.375 72.796875 46.453125 70.234375 
Q 52.546875 67.671875 55.8125 62.6875 
Q 59.078125 57.71875 59.328125 51.421875 
L 50.25 50.734375 
Q 49.515625 57.515625 45.28125 60.984375 
Q 41.0625 64.453125 32.8125 64.453125 
Q 24.21875 64.453125 20.28125 61.296875 
Q 16.359375 58.15625 16.359375 53.71875 
Q 16.359375 49.859375 19.140625 47.359375 
Q 21.875 44.875 33.421875 42.265625 
Q 44.96875 39.65625 49.265625 37.703125 
Q 55.515625 34.8125 58.484375 30.390625 
Q 61.46875 25.984375 61.46875 20.21875 
Q 61.46875 14.5 58.203125 9.4375 
Q 54.9375 4.390625 48.796875 1.578125 
Q 42.671875 -1.21875 35.015625 -1.21875 
Q 25.296875 -1.21875 18.71875 1.609375 
Q 12.15625 4.4375 8.421875 10.125 
Q 4.6875 15.828125 4.5 23 
z
" id="ArialMT-83"/>
      <path d="M 3.078125 15.484375 
L 11.765625 16.84375 
Q 12.5 11.625 15.84375 8.84375 
Q 19.1875 6.0625 25.203125 6.0625 
Q 31.25 6.0625 34.171875 8.515625 
Q 37.109375 10.984375 37.109375 14.3125 
Q 37.109375 17.28125 34.515625 19 
Q 32.71875 20.171875 25.53125 21.96875 
Q 15.875 24.421875 12.140625 26.203125 
Q 8.40625 27.984375 6.46875 31.125 
Q 4.546875 34.28125 4.546875 38.09375 
Q 4.546875 41.546875 6.125 44.5 
Q 7.71875 47.46875 10.453125 49.421875 
Q 12.5 50.921875 16.03125 51.96875 
Q 19.578125 53.03125 23.640625 53.03125 
Q 29.734375 53.03125 34.34375 51.265625 
Q 38.96875 49.515625 41.15625 46.5 
Q 43.359375 43.5 44.1875 38.484375 
L 35.59375 37.3125 
Q 35.015625 41.3125 32.203125 43.546875 
Q 29.390625 45.796875 24.265625 45.796875 
Q 18.21875 45.796875 15.625 43.796875 
Q 13.03125 41.796875 13.03125 39.109375 
Q 13.03125 37.40625 14.109375 36.03125 
Q 15.1875 34.625 17.484375 33.6875 
Q 18.796875 33.203125 25.25 31.453125 
Q 34.578125 28.953125 38.25 27.359375 
Q 41.9375 25.78125 44.03125 22.75 
Q 46.140625 19.734375 46.140625 15.234375 
Q 46.140625 10.84375 43.578125 6.953125 
Q 41.015625 3.078125 36.171875 0.953125 
Q 31.34375 -1.171875 25.25 -1.171875 
Q 15.140625 -1.171875 9.84375 3.03125 
Q 4.546875 7.234375 3.078125 15.484375 
z
" id="ArialMT-115"/>
     </defs>
     <g style="fill:#262626;" transform="translate(22.924125 271.457063)rotate(-90)scale(0.216 -0.216)">
      <use xlink:href="#ArialMT-83"/>
      <use x="66.699219" xlink:href="#ArialMT-97"/>
      <use x="122.314453" xlink:href="#ArialMT-109"/>
      <use x="205.615234" xlink:href="#ArialMT-112"/>
      <use x="261.230469" xlink:href="#ArialMT-108"/>
      <use x="283.447266" xlink:href="#ArialMT-101"/>
      <use x="339.0625" xlink:href="#ArialMT-115"/>
     </g>
    </g>
   </g>
   <g id="patch_3">
    <path clip-path="url(#p9762132068)" d="M 124.509979 446.88 
L 124.509979 446.481375 
L 134.343701 446.481375 
L 134.343701 446.08275 
L 144.177424 446.08275 
L 144.177424 442.495124 
L 154.011147 442.495124 
L 154.011147 441.697874 
L 163.844869 441.697874 
L 163.844869 438.110249 
L 173.678592 438.110249 
L 173.678592 440.900624 
L 183.512315 440.900624 
L 183.512315 435.319874 
L 193.346037 435.319874 
L 193.346037 438.907499 
L 203.17976 438.907499 
L 203.17976 433.725373 
L 213.013483 433.725373 
L 213.013483 429.739123 
L 222.847206 429.739123 
L 222.847206 430.934998 
L 232.680928 430.934998 
L 232.680928 426.151497 
L 242.514651 426.151497 
L 242.514651 424.955622 
L 252.348374 424.955622 
L 252.348374 403.429869 
L 262.182096 403.429869 
L 262.182096 399.443619 
L 272.015819 399.443619 
L 272.015819 332.873235 
L 281.849542 332.873235 
L 281.849542 285.436854 
L 291.683264 285.436854 
L 291.683264 214.481595 
L 301.516987 214.481595 
L 301.516987 201.326968 
L 311.35071 201.326968 
L 311.35071 175.41634 
L 321.184433 175.41634 
L 321.184433 163.457588 
L 331.018155 163.457588 
L 331.018155 143.924961 
L 340.851878 143.924961 
L 340.851878 154.687837 
L 350.685601 154.687837 
L 350.685601 141.533211 
L 360.519323 141.533211 
L 360.519323 180.598466 
L 370.353046 180.598466 
L 370.353046 170.234214 
L 380.186769 170.234214 
L 380.186769 222.055471 
L 390.020491 222.055471 
L 390.020491 240.790848 
L 399.854214 240.790848 
L 399.854214 272.282227 
L 409.687937 272.282227 
L 409.687937 330.08286 
L 419.52166 330.08286 
L 419.52166 352.405863 
L 429.355382 352.405863 
L 429.355382 373.931616 
L 439.189105 373.931616 
L 439.189105 391.471118 
L 449.022828 391.471118 
L 449.022828 408.21337 
L 458.85655 408.21337 
L 458.85655 412.996871 
L 468.690273 412.996871 
L 468.690273 428.941873 
L 478.523996 428.941873 
L 478.523996 438.110249 
L 488.357719 438.110249 
L 488.357719 441.697874 
L 498.191441 441.697874 
L 498.191441 441.299249 
L 508.025164 441.299249 
L 508.025164 446.08275 
L 517.858887 446.08275 
L 517.858887 446.08275 
L 527.692609 446.08275 
L 527.692609 446.481375 
L 537.526332 446.481375 
L 537.526332 446.481375 
L 547.360055 446.481375 
L 547.360055 446.88 
L 557.193777 446.88 
L 557.193777 446.88 
L 567.0275 446.88 
L 567.0275 446.481375 
L 576.861223 446.481375 
L 576.861223 446.88 
L 586.694946 446.88 
L 586.694946 446.481375 
L 596.528668 446.481375 
L 596.528668 446.88 
L 606.362391 446.88 
L 606.362391 446.08275 
L 616.196114 446.08275 
L 616.196114 446.88 
" style="fill:none;opacity:0.75;stroke:#8dd3c7;stroke-linejoin:miter;stroke-width:3;"/>
   </g>
   <g id="patch_4">
    <path clip-path="url(#p9762132068)" d="M 178.35457 446.88 
L 178.35457 444.089625 
L 186.091187 444.089625 
L 186.091187 440.501999 
L 193.827805 440.501999 
L 193.827805 440.103374 
L 201.564422 440.103374 
L 201.564422 433.725373 
L 209.30104 433.725373 
L 209.30104 433.326748 
L 217.037658 433.326748 
L 217.037658 425.752872 
L 224.774275 425.752872 
L 224.774275 416.185871 
L 232.510893 416.185871 
L 232.510893 416.185871 
L 240.24751 416.185871 
L 240.24751 413.395496 
L 247.984128 413.395496 
L 247.984128 400.240869 
L 255.720745 400.240869 
L 255.720745 386.687617 
L 263.457363 386.687617 
L 263.457363 331.67736 
L 271.193981 331.67736 
L 271.193981 220.062346 
L 278.930598 220.062346 
L 278.930598 139.93871 
L 286.667216 139.93871 
L 286.667216 110.839082 
L 294.403833 110.839082 
L 294.403833 106.852831 
L 302.140451 106.852831 
L 302.140451 79.746328 
L 309.877068 79.746328 
L 309.877068 81.340828 
L 317.613686 81.340828 
L 317.613686 53.437074 
L 325.350304 53.437074 
L 325.350304 76.955952 
L 333.086921 76.955952 
L 333.086921 64.997201 
L 340.823539 64.997201 
L 340.823539 93.299579 
L 348.560156 93.299579 
L 348.560156 32.708571 
L 356.296774 32.708571 
L 356.296774 109.643206 
L 364.033391 109.643206 
L 364.033391 143.526336 
L 371.770009 143.526336 
L 371.770009 152.296087 
L 379.506627 152.296087 
L 379.506627 228.832097 
L 387.243244 228.832097 
L 387.243244 243.182599 
L 394.979862 243.182599 
L 394.979862 259.924851 
L 402.716479 259.924851 
L 402.716479 288.625855 
L 410.453097 288.625855 
L 410.453097 331.67736 
L 418.189714 331.67736 
L 418.189714 353.601738 
L 425.926332 353.601738 
L 425.926332 372.73574 
L 433.66295 372.73574 
L 433.66295 383.498617 
L 441.399567 383.498617 
L 441.399567 407.41612 
L 449.136185 407.41612 
L 449.136185 418.178996 
L 456.872802 418.178996 
L 456.872802 414.989996 
L 464.60942 414.989996 
L 464.60942 428.144623 
L 472.346037 428.144623 
L 472.346037 433.326748 
L 480.082655 433.326748 
L 480.082655 439.306124 
L 487.819273 439.306124 
L 487.819273 439.704749 
L 495.55589 439.704749 
L 495.55589 444.48825 
L 503.292508 444.48825 
L 503.292508 444.48825 
L 511.029125 444.48825 
L 511.029125 445.2855 
L 518.765743 445.2855 
L 518.765743 445.684125 
L 526.50236 445.684125 
L 526.50236 446.88 
L 534.238978 446.88 
L 534.238978 446.481375 
L 541.975596 446.481375 
L 541.975596 446.88 
L 549.712213 446.88 
L 549.712213 446.88 
L 557.448831 446.88 
L 557.448831 446.481375 
L 565.185448 446.481375 
L 565.185448 446.88 
" style="fill:none;opacity:0.75;stroke:#ffffb3;stroke-linejoin:miter;stroke-width:3;"/>
   </g>
   <g id="patch_5">
    <path clip-path="url(#p9762132068)" d="M 159.934052 446.88 
L 159.934052 446.481375 
L 168.705052 446.481375 
L 168.705052 446.88 
L 177.476053 446.88 
L 177.476053 446.08275 
L 186.247053 446.08275 
L 186.247053 444.48825 
L 195.018054 444.48825 
L 195.018054 444.48825 
L 203.789054 444.48825 
L 203.789054 444.089625 
L 212.560055 444.089625 
L 212.560055 442.893749 
L 221.331055 442.893749 
L 221.331055 443.691 
L 230.102056 443.691 
L 230.102056 438.110249 
L 238.873056 438.110249 
L 238.873056 432.529498 
L 247.644057 432.529498 
L 247.644057 433.326748 
L 256.415057 433.326748 
L 256.415057 399.842244 
L 265.186058 399.842244 
L 265.186058 395.855993 
L 273.957058 395.855993 
L 273.957058 290.220355 
L 282.728059 290.220355 
L 282.728059 229.230722 
L 291.499059 229.230722 
L 291.499059 154.687837 
L 300.27006 154.687837 
L 300.27006 138.742835 
L 309.04106 138.742835 
L 309.04106 102.866581 
L 317.812061 102.866581 
L 317.812061 87.320203 
L 326.583061 87.320203 
L 326.583061 81.739453 
L 335.354062 81.739453 
L 335.354062 114.028082 
L 344.125062 114.028082 
L 344.125062 63.004075 
L 352.896063 63.004075 
L 352.896063 93.698204 
L 361.667063 93.698204 
L 361.667063 57.0247 
L 370.438064 57.0247 
L 370.438064 101.27208 
L 379.209064 101.27208 
L 379.209064 154.289212 
L 387.980065 154.289212 
L 387.980065 137.945585 
L 396.751065 137.945585 
L 396.751065 207.704969 
L 405.522066 207.704969 
L 405.522066 227.636222 
L 414.293066 227.636222 
L 414.293066 278.261603 
L 423.064067 278.261603 
L 423.064067 297.395606 
L 431.835067 297.395606 
L 431.835067 328.886985 
L 440.606068 328.886985 
L 440.606068 346.027862 
L 449.377068 346.027862 
L 449.377068 384.295867 
L 458.148069 384.295867 
L 458.148069 366.756365 
L 466.919069 366.756365 
L 466.919069 416.584496 
L 475.69007 416.584496 
L 475.69007 422.563872 
L 484.46107 422.563872 
L 484.46107 435.718499 
L 493.232071 435.718499 
L 493.232071 435.319874 
L 502.003071 435.319874 
L 502.003071 438.110249 
L 510.774072 438.110249 
L 510.774072 443.691 
L 519.545072 443.691 
L 519.545072 444.48825 
L 528.316073 444.48825 
L 528.316073 446.08275 
L 537.087074 446.08275 
L 537.087074 446.481375 
L 545.858074 446.481375 
L 545.858074 446.88 
L 554.629075 446.88 
L 554.629075 446.481375 
L 563.400075 446.481375 
L 563.400075 446.08275 
L 572.171076 446.08275 
L 572.171076 446.88 
L 580.942076 446.88 
L 580.942076 446.88 
L 589.713077 446.88 
L 589.713077 446.481375 
L 598.484077 446.481375 
L 598.484077 446.88 
" style="fill:none;opacity:0.75;stroke:#bebada;stroke-linejoin:miter;stroke-width:3;"/>
   </g>
   <g id="patch_6">
    <path clip-path="url(#p9762132068)" d="M 173.395199 446.88 
L 173.395199 446.481375 
L 180.380827 446.481375 
L 180.380827 446.08275 
L 187.366454 446.08275 
L 187.366454 446.08275 
L 194.352081 446.08275 
L 194.352081 446.481375 
L 201.337708 446.481375 
L 201.337708 446.481375 
L 208.323336 446.481375 
L 208.323336 446.481375 
L 215.308963 446.481375 
L 215.308963 446.08275 
L 222.29459 446.08275 
L 222.29459 446.481375 
L 229.280217 446.481375 
L 229.280217 444.886875 
L 236.265844 444.886875 
L 236.265844 444.886875 
L 243.251472 444.886875 
L 243.251472 444.886875 
L 250.237099 444.886875 
L 250.237099 442.495124 
L 257.222726 442.495124 
L 257.222726 441.299249 
L 264.208353 441.299249 
L 264.208353 440.501999 
L 271.193981 440.501999 
L 271.193981 431.732248 
L 278.179608 431.732248 
L 278.179608 418.976246 
L 285.165235 418.976246 
L 285.165235 415.787246 
L 292.150862 415.787246 
L 292.150862 414.192746 
L 299.136489 414.192746 
L 299.136489 411.800995 
L 306.122117 411.800995 
L 306.122117 418.178996 
L 313.107744 418.178996 
L 313.107744 406.220245 
L 320.093371 406.220245 
L 320.093371 420.969372 
L 327.078998 420.969372 
L 327.078998 423.759747 
L 334.064626 423.759747 
L 334.064626 415.787246 
L 341.050253 415.787246 
L 341.050253 412.199621 
L 348.03588 412.199621 
L 348.03588 416.584496 
L 355.021507 416.584496 
L 355.021507 416.983121 
L 362.007134 416.983121 
L 362.007134 418.178996 
L 368.992762 418.178996 
L 368.992762 424.955622 
L 375.978389 424.955622 
L 375.978389 422.962497 
L 382.964016 422.962497 
L 382.964016 426.151497 
L 389.949643 426.151497 
L 389.949643 429.739123 
L 396.935271 429.739123 
L 396.935271 431.732248 
L 403.920898 431.732248 
L 403.920898 435.718499 
L 410.906525 435.718499 
L 410.906525 438.110249 
L 417.892152 438.110249 
L 417.892152 438.508874 
L 424.877779 438.508874 
L 424.877779 440.900624 
L 431.863407 440.900624 
L 431.863407 442.495124 
L 438.849034 442.495124 
L 438.849034 441.697874 
L 445.834661 441.697874 
L 445.834661 444.886875 
L 452.820288 444.886875 
L 452.820288 444.886875 
L 459.805916 444.886875 
L 459.805916 444.886875 
L 466.791543 444.886875 
L 466.791543 446.08275 
L 473.77717 446.08275 
L 473.77717 446.481375 
L 480.762797 446.481375 
L 480.762797 446.481375 
L 487.748424 446.481375 
L 487.748424 446.481375 
L 494.734052 446.481375 
L 494.734052 446.08275 
L 501.719679 446.08275 
L 501.719679 446.88 
L 508.705306 446.88 
L 508.705306 446.88 
L 515.690933 446.88 
L 515.690933 446.481375 
L 522.676561 446.481375 
L 522.676561 446.88 
" style="fill:none;opacity:0.75;stroke:#fb8072;stroke-linejoin:miter;stroke-width:3;"/>
   </g>
   <g id="patch_7">
    <path clip-path="url(#p9762132068)" d="M 223.05975 446.88 
L 223.05975 446.481375 
L 228.92456 446.481375 
L 228.92456 446.481375 
L 234.789369 446.481375 
L 234.789369 446.08275 
L 240.654179 446.08275 
L 240.654179 446.08275 
L 246.518988 446.08275 
L 246.518988 446.88 
L 252.383798 446.88 
L 252.383798 446.481375 
L 258.248607 446.481375 
L 258.248607 446.08275 
L 264.113417 446.08275 
L 264.113417 444.886875 
L 269.978226 444.886875 
L 269.978226 442.893749 
L 275.843036 442.893749 
L 275.843036 439.306124 
L 281.707845 439.306124 
L 281.707845 440.501999 
L 287.572655 440.501999 
L 287.572655 432.928123 
L 293.437465 432.928123 
L 293.437465 434.123998 
L 299.302274 434.123998 
L 299.302274 428.144623 
L 305.167084 428.144623 
L 305.167084 432.928123 
L 311.031893 432.928123 
L 311.031893 433.326748 
L 316.896703 433.326748 
L 316.896703 427.745998 
L 322.761512 427.745998 
L 322.761512 429.739123 
L 328.626322 429.739123 
L 328.626322 432.928123 
L 334.491131 432.928123 
L 334.491131 434.123998 
L 340.355941 434.123998 
L 340.355941 434.522623 
L 346.220751 434.522623 
L 346.220751 433.725373 
L 352.08556 433.725373 
L 352.08556 431.333623 
L 357.95037 431.333623 
L 357.95037 430.536373 
L 363.815179 430.536373 
L 363.815179 433.725373 
L 369.679989 433.725373 
L 369.679989 436.117124 
L 375.544798 436.117124 
L 375.544798 432.529498 
L 381.409608 432.529498 
L 381.409608 438.508874 
L 387.274417 438.508874 
L 387.274417 434.123998 
L 393.139227 434.123998 
L 393.139227 438.907499 
L 399.004036 438.907499 
L 399.004036 442.495124 
L 404.868846 442.495124 
L 404.868846 440.103374 
L 410.733656 440.103374 
L 410.733656 439.306124 
L 416.598465 439.306124 
L 416.598465 443.292375 
L 422.463275 443.292375 
L 422.463275 442.893749 
L 428.328084 442.893749 
L 428.328084 442.893749 
L 434.192894 442.893749 
L 434.192894 442.893749 
L 440.057703 442.893749 
L 440.057703 444.886875 
L 445.922513 444.886875 
L 445.922513 444.089625 
L 451.787322 444.089625 
L 451.787322 444.886875 
L 457.652132 444.886875 
L 457.652132 444.886875 
L 463.516941 444.886875 
L 463.516941 446.08275 
L 469.381751 446.08275 
L 469.381751 445.2855 
L 475.246561 445.2855 
L 475.246561 446.88 
L 481.11137 446.88 
L 481.11137 446.08275 
L 486.97618 446.08275 
L 486.97618 446.08275 
L 492.840989 446.08275 
L 492.840989 446.88 
L 498.705799 446.88 
L 498.705799 446.88 
L 504.570608 446.88 
L 504.570608 445.684125 
L 510.435418 445.684125 
L 510.435418 446.481375 
L 516.300227 446.481375 
L 516.300227 446.88 
" style="fill:none;opacity:0.75;stroke:#80b1d3;stroke-linejoin:miter;stroke-width:3;"/>
   </g>
   <g id="patch_8">
    <path clip-path="url(#p9762132068)" d="M 108.923386 446.88 
L 108.923386 446.08275 
L 118.700431 446.08275 
L 118.700431 445.2855 
L 128.477475 445.2855 
L 128.477475 443.691 
L 138.254519 443.691 
L 138.254519 442.096499 
L 148.031563 442.096499 
L 148.031563 429.739123 
L 157.808607 429.739123 
L 157.808607 422.962497 
L 167.585651 422.962497 
L 167.585651 415.787246 
L 177.362696 415.787246 
L 177.362696 407.41612 
L 187.13974 407.41612 
L 187.13974 403.429869 
L 196.916784 403.429869 
L 196.916784 408.611995 
L 206.693828 408.611995 
L 206.693828 404.625745 
L 216.470872 404.625745 
L 216.470872 412.199621 
L 226.247917 412.199621 
L 226.247917 414.192746 
L 236.024961 414.192746 
L 236.024961 410.60512 
L 245.802005 410.60512 
L 245.802005 410.60512 
L 255.579049 410.60512 
L 255.579049 405.82162 
L 265.356093 405.82162 
L 265.356093 388.282117 
L 275.133138 388.282117 
L 275.133138 375.924741 
L 284.910182 375.924741 
L 284.910182 363.567364 
L 294.687226 363.567364 
L 294.687226 365.560489 
L 304.46427 365.560489 
L 304.46427 363.965989 
L 314.241314 363.965989 
L 314.241314 366.35774 
L 324.018358 366.35774 
L 324.018358 372.337115 
L 333.795403 372.337115 
L 333.795403 379.113741 
L 343.572447 379.113741 
L 343.572447 394.261493 
L 353.349491 394.261493 
L 353.349491 398.247744 
L 363.126535 398.247744 
L 363.126535 403.031244 
L 372.903579 403.031244 
L 372.903579 410.206495 
L 382.680624 410.206495 
L 382.680624 422.165247 
L 392.457668 422.165247 
L 392.457668 431.333623 
L 402.234712 431.333623 
L 402.234712 426.948747 
L 412.011756 426.948747 
L 412.011756 434.522623 
L 421.7888 434.522623 
L 421.7888 439.306124 
L 431.565844 439.306124 
L 431.565844 436.515749 
L 441.342889 436.515749 
L 441.342889 440.501999 
L 451.119933 440.501999 
L 451.119933 442.495124 
L 460.896977 442.495124 
L 460.896977 438.907499 
L 470.674021 438.907499 
L 470.674021 446.08275 
L 480.451065 446.08275 
L 480.451065 446.08275 
L 490.22811 446.08275 
L 490.22811 446.88 
L 500.005154 446.88 
L 500.005154 446.88 
L 509.782198 446.88 
L 509.782198 446.88 
L 519.559242 446.88 
L 519.559242 446.88 
L 529.336286 446.88 
L 529.336286 446.88 
L 539.11333 446.88 
L 539.11333 446.88 
L 548.890375 446.88 
L 548.890375 446.88 
L 558.667419 446.88 
L 558.667419 446.88 
L 568.444463 446.88 
L 568.444463 446.88 
L 578.221507 446.88 
L 578.221507 446.88 
L 587.998551 446.88 
L 587.998551 446.08275 
L 597.775596 446.08275 
L 597.775596 446.88 
" style="fill:none;opacity:0.75;stroke:#fdb462;stroke-linejoin:miter;stroke-width:3;"/>
   </g>
   <g id="patch_9">
    <path clip-path="url(#p9762132068)" d="M 116.716682 446.88 
L 116.716682 446.481375 
L 123.192203 446.481375 
L 123.192203 446.88 
L 129.667724 446.88 
L 129.667724 446.88 
L 136.143244 446.88 
L 136.143244 446.481375 
L 142.618765 446.481375 
L 142.618765 445.684125 
L 149.094285 445.684125 
L 149.094285 444.089625 
L 155.569806 444.089625 
L 155.569806 446.08275 
L 162.045326 446.08275 
L 162.045326 441.697874 
L 168.520847 441.697874 
L 168.520847 441.697874 
L 174.996368 441.697874 
L 174.996368 439.306124 
L 181.471888 439.306124 
L 181.471888 436.914374 
L 187.947409 436.914374 
L 187.947409 435.718499 
L 194.422929 435.718499 
L 194.422929 429.340498 
L 200.89845 429.340498 
L 200.89845 434.123998 
L 207.37397 434.123998 
L 207.37397 435.319874 
L 213.849491 435.319874 
L 213.849491 430.137748 
L 220.325012 430.137748 
L 220.325012 431.732248 
L 226.800532 431.732248 
L 226.800532 432.928123 
L 233.276053 432.928123 
L 233.276053 431.333623 
L 239.751573 431.333623 
L 239.751573 432.130873 
L 246.227094 432.130873 
L 246.227094 431.732248 
L 252.702614 431.732248 
L 252.702614 424.955622 
L 259.178135 424.955622 
L 259.178135 425.354247 
L 265.653656 425.354247 
L 265.653656 426.151497 
L 272.129176 426.151497 
L 272.129176 426.151497 
L 278.604697 426.151497 
L 278.604697 436.914374 
L 285.080217 436.914374 
L 285.080217 432.928123 
L 291.555738 432.928123 
L 291.555738 437.312999 
L 298.031258 437.312999 
L 298.031258 437.312999 
L 304.506779 437.312999 
L 304.506779 440.501999 
L 310.9823 440.501999 
L 310.9823 442.495124 
L 317.45782 442.495124 
L 317.45782 443.691 
L 323.933341 443.691 
L 323.933341 443.691 
L 330.408861 443.691 
L 330.408861 445.684125 
L 336.884382 445.684125 
L 336.884382 446.08275 
L 343.359902 446.08275 
L 343.359902 446.08275 
L 349.835423 446.08275 
L 349.835423 446.88 
L 356.310943 446.88 
L 356.310943 446.08275 
L 362.786464 446.08275 
L 362.786464 446.08275 
L 369.261985 446.08275 
L 369.261985 446.481375 
L 375.737505 446.481375 
L 375.737505 445.684125 
L 382.213026 445.684125 
L 382.213026 446.88 
L 388.688546 446.88 
L 388.688546 446.88 
L 395.164067 446.88 
L 395.164067 446.88 
L 401.639587 446.88 
L 401.639587 446.481375 
L 408.115108 446.481375 
L 408.115108 446.08275 
L 414.590629 446.08275 
L 414.590629 446.481375 
L 421.066149 446.481375 
L 421.066149 446.08275 
L 427.54167 446.08275 
L 427.54167 446.88 
L 434.01719 446.88 
L 434.01719 446.08275 
L 440.492711 446.08275 
L 440.492711 446.88 
" style="fill:none;opacity:0.75;stroke:#b3de69;stroke-linejoin:miter;stroke-width:3;"/>
   </g>
   <g id="line2d_15">
    <path clip-path="url(#p9762132068)" d="M 285.335271 446.88 
L 285.335271 12 
" style="fill:none;stroke:#000000;stroke-dasharray:11.1,4.8;stroke-dashoffset:0;stroke-width:3;"/>
   </g>
   <g id="line2d_16">
    <path clip-path="url(#p9762132068)" d="M 427.031563 446.88 
L 427.031563 12 
" style="fill:none;stroke:#000000;stroke-dasharray:11.1,4.8;stroke-dashoffset:0;stroke-width:3;"/>
   </g>
   <g id="patch_10">
    <path d="M 83.55975 446.88 
L 83.55975 12 
" style="fill:none;stroke:#262626;stroke-linecap:square;stroke-linejoin:miter;stroke-width:2.5;"/>
   </g>
   <g id="patch_11">
    <path d="M 641.55975 446.88 
L 641.55975 12 
" style="fill:none;stroke:#262626;stroke-linecap:square;stroke-linejoin:miter;stroke-width:2.5;"/>
   </g>
   <g id="patch_12">
    <path d="M 83.55975 446.88 
L 641.55975 446.88 
" style="fill:none;stroke:#262626;stroke-linecap:square;stroke-linejoin:miter;stroke-width:2.5;"/>
   </g>
   <g id="patch_13">
    <path d="M 83.55975 12 
L 641.55975 12 
" style="fill:none;stroke:#262626;stroke-linecap:square;stroke-linejoin:miter;stroke-width:2.5;"/>
   </g>
   <g id="legend_1">
    <g id="patch_14">
     <path d="M 450.204648 227.903259 
L 714.76647 227.903259 
Q 717.76455 227.903259 717.76455 224.905179 
L 717.76455 22.49328 
Q 717.76455 19.4952 714.76647 19.4952 
L 450.204648 19.4952 
Q 447.206568 19.4952 447.206568 22.49328 
L 447.206568 224.905179 
Q 447.206568 227.903259 450.204648 227.903259 
z
" style="fill:#ffffff;stroke:#cccccc;stroke-linejoin:miter;stroke-width:0.8;"/>
    </g>
    <g id="text_17">
     <!-- Clusters -->
     <defs>
      <path d="M 58.796875 25.09375 
L 68.265625 22.703125 
Q 65.28125 11.03125 57.546875 4.90625 
Q 49.8125 -1.21875 38.625 -1.21875 
Q 27.046875 -1.21875 19.796875 3.484375 
Q 12.546875 8.203125 8.765625 17.140625 
Q 4.984375 26.078125 4.984375 36.328125 
Q 4.984375 47.515625 9.25 55.828125 
Q 13.53125 64.15625 21.40625 68.46875 
Q 29.296875 72.796875 38.765625 72.796875 
Q 49.515625 72.796875 56.828125 67.328125 
Q 64.15625 61.859375 67.046875 51.953125 
L 57.71875 49.75 
Q 55.21875 57.5625 50.484375 61.125 
Q 45.75 64.703125 38.578125 64.703125 
Q 30.328125 64.703125 24.78125 60.734375 
Q 19.234375 56.78125 16.984375 50.109375 
Q 14.75 43.453125 14.75 36.375 
Q 14.75 27.25 17.40625 20.4375 
Q 20.0625 13.625 25.671875 10.25 
Q 31.296875 6.890625 37.84375 6.890625 
Q 45.796875 6.890625 51.3125 11.46875 
Q 56.84375 16.0625 58.796875 25.09375 
z
" id="ArialMT-67"/>
     </defs>
     <g style="fill:#262626;" transform="translate(542.878246 40.952235)scale(0.216 -0.216)">
      <use xlink:href="#ArialMT-67"/>
      <use x="72.216797" xlink:href="#ArialMT-108"/>
      <use x="94.433594" xlink:href="#ArialMT-117"/>
      <use x="150.048828" xlink:href="#ArialMT-115"/>
      <use x="200.048828" xlink:href="#ArialMT-116"/>
      <use x="227.832031" xlink:href="#ArialMT-101"/>
      <use x="283.447266" xlink:href="#ArialMT-114"/>
      <use x="316.748047" xlink:href="#ArialMT-115"/>
     </g>
    </g>
    <g id="patch_15">
     <path d="M 453.202728 64.210433 
L 483.183528 64.210433 
L 483.183528 53.717153 
L 453.202728 53.717153 
z
" style="fill:none;opacity:0;"/>
    </g>
    <g id="text_18">
     <!-- #  (    n,  mean,   std) -->
     <defs>
      <path d="M 33.40625 71.78125 
L 28.328125 51.515625 
L 40.28125 51.515625 
L 45.40625 71.78125 
L 53.21875 71.78125 
L 48.09375 51.515625 
L 60.015625 51.515625 
L 60.015625 44 
L 46.296875 44 
L 42.1875 27.6875 
L 54.390625 27.6875 
L 54.390625 20.21875 
L 40.28125 20.21875 
L 35.203125 0 
L 27.390625 0 
L 32.515625 20.21875 
L 20.515625 20.21875 
L 15.375 0 
L 7.625 0 
L 12.703125 20.21875 
L 0.09375 20.21875 
L 0.09375 27.6875 
L 14.59375 27.6875 
L 18.703125 44 
L 5.71875 44 
L 5.71875 51.515625 
L 20.515625 51.515625 
L 25.59375 71.78125 
z
M 38.484375 44 
L 26.515625 44 
L 22.40625 27.6875 
L 34.421875 27.6875 
z
" id="DejaVuSansMono-35"/>
      <path id="DejaVuSansMono-32"/>
      <path d="M 43.21875 75.875 
Q 36.71875 64.75 33.515625 53.6875 
Q 30.328125 42.625 30.328125 31.390625 
Q 30.328125 20.21875 33.515625 9.125 
Q 36.71875 -1.953125 43.21875 -13.1875 
L 35.40625 -13.1875 
Q 28.03125 -1.5625 24.40625 9.4375 
Q 20.796875 20.453125 20.796875 31.390625 
Q 20.796875 42.28125 24.40625 53.3125 
Q 28.03125 64.359375 35.40625 75.875 
z
" id="DejaVuSansMono-40"/>
      <path d="M 51.3125 33.890625 
L 51.3125 0 
L 42.28125 0 
L 42.28125 33.890625 
Q 42.28125 41.265625 39.6875 44.71875 
Q 37.109375 48.1875 31.59375 48.1875 
Q 25.296875 48.1875 21.890625 43.71875 
Q 18.5 39.265625 18.5 30.90625 
L 18.5 0 
L 9.515625 0 
L 9.515625 54.6875 
L 18.5 54.6875 
L 18.5 46.484375 
Q 20.90625 51.171875 25 53.578125 
Q 29.109375 56 34.71875 56 
Q 43.0625 56 47.1875 50.5 
Q 51.3125 45.015625 51.3125 33.890625 
z
" id="DejaVuSansMono-110"/>
      <path d="M 24.515625 14.796875 
L 36.8125 14.796875 
L 36.8125 4.6875 
L 27.203125 -14.015625 
L 19.671875 -14.015625 
L 24.515625 4.6875 
z
" id="DejaVuSansMono-44"/>
      <path d="M 33.015625 49.125 
Q 34.671875 52.640625 37.234375 54.3125 
Q 39.796875 56 43.40625 56 
Q 50 56 52.703125 50.890625 
Q 55.421875 45.796875 55.421875 31.6875 
L 55.421875 0 
L 47.21875 0 
L 47.21875 31.296875 
Q 47.21875 42.875 45.921875 45.671875 
Q 44.625 48.484375 41.21875 48.484375 
Q 37.3125 48.484375 35.859375 45.484375 
Q 34.421875 42.484375 34.421875 31.296875 
L 34.421875 0 
L 26.21875 0 
L 26.21875 31.296875 
Q 26.21875 43.015625 24.828125 45.75 
Q 23.4375 48.484375 19.828125 48.484375 
Q 16.265625 48.484375 14.875 45.484375 
Q 13.484375 42.484375 13.484375 31.296875 
L 13.484375 0 
L 5.328125 0 
L 5.328125 54.6875 
L 13.484375 54.6875 
L 13.484375 50 
Q 15.09375 52.9375 17.5 54.46875 
Q 19.921875 56 23 56 
Q 26.703125 56 29.171875 54.296875 
Q 31.640625 52.59375 33.015625 49.125 
z
" id="DejaVuSansMono-109"/>
      <path d="M 54.296875 29.59375 
L 54.296875 25.203125 
L 15.375 25.203125 
L 15.375 24.90625 
Q 15.375 15.96875 20.03125 11.078125 
Q 24.703125 6.203125 33.203125 6.203125 
Q 37.5 6.203125 42.1875 7.5625 
Q 46.875 8.9375 52.203125 11.71875 
L 52.203125 2.78125 
Q 47.078125 0.6875 42.3125 -0.359375 
Q 37.546875 -1.421875 33.109375 -1.421875 
Q 20.359375 -1.421875 13.171875 6.21875 
Q 6 13.875 6 27.296875 
Q 6 40.375 13.03125 48.1875 
Q 20.0625 56 31.78125 56 
Q 42.234375 56 48.265625 48.921875 
Q 54.296875 41.84375 54.296875 29.59375 
z
M 45.3125 32.234375 
Q 45.125 40.140625 41.578125 44.265625 
Q 38.03125 48.390625 31.390625 48.390625 
Q 24.90625 48.390625 20.703125 44.09375 
Q 16.5 39.796875 15.71875 32.171875 
z
" id="DejaVuSansMono-101"/>
      <path d="M 34.28125 27.484375 
L 31.296875 27.484375 
Q 23.4375 27.484375 19.453125 24.71875 
Q 15.484375 21.96875 15.484375 16.5 
Q 15.484375 11.578125 18.453125 8.84375 
Q 21.4375 6.109375 26.703125 6.109375 
Q 34.125 6.109375 38.375 11.25 
Q 42.625 16.40625 42.671875 25.484375 
L 42.671875 27.484375 
z
M 51.703125 31.203125 
L 51.703125 0 
L 42.671875 0 
L 42.671875 8.109375 
Q 39.796875 3.21875 35.421875 0.890625 
Q 31.0625 -1.421875 24.8125 -1.421875 
Q 16.453125 -1.421875 11.46875 3.296875 
Q 6.5 8.015625 6.5 15.921875 
Q 6.5 25.046875 12.625 29.78125 
Q 18.75 34.515625 30.609375 34.515625 
L 42.671875 34.515625 
L 42.671875 35.9375 
Q 42.625 42.484375 39.34375 45.4375 
Q 36.078125 48.390625 28.90625 48.390625 
Q 24.3125 48.390625 19.625 47.0625 
Q 14.9375 45.75 10.5 43.21875 
L 10.5 52.203125 
Q 15.484375 54.109375 20.046875 55.046875 
Q 24.609375 56 28.90625 56 
Q 35.6875 56 40.5 54 
Q 45.3125 52 48.296875 48 
Q 50.140625 45.5625 50.921875 41.96875 
Q 51.703125 38.375 51.703125 31.203125 
z
" id="DejaVuSansMono-97"/>
      <path d="M 47.515625 52.78125 
L 47.515625 44 
Q 43.65625 46.234375 39.75 47.359375 
Q 35.84375 48.484375 31.78125 48.484375 
Q 25.6875 48.484375 22.671875 46.5 
Q 19.671875 44.53125 19.671875 40.484375 
Q 19.671875 36.8125 21.921875 35 
Q 24.171875 33.203125 33.109375 31.5 
L 36.71875 30.8125 
Q 43.40625 29.546875 46.84375 25.734375 
Q 50.296875 21.921875 50.296875 15.828125 
Q 50.296875 7.71875 44.53125 3.140625 
Q 38.765625 -1.421875 28.515625 -1.421875 
Q 24.46875 -1.421875 20.015625 -0.5625 
Q 15.578125 0.296875 10.40625 2 
L 10.40625 11.28125 
Q 15.4375 8.6875 20.015625 7.390625 
Q 24.609375 6.109375 28.71875 6.109375 
Q 34.671875 6.109375 37.9375 8.515625 
Q 41.21875 10.9375 41.21875 15.28125 
Q 41.21875 21.53125 29.25 23.921875 
L 28.859375 24.03125 
L 25.484375 24.703125 
Q 17.71875 26.21875 14.15625 29.8125 
Q 10.59375 33.40625 10.59375 39.59375 
Q 10.59375 47.46875 15.90625 51.734375 
Q 21.234375 56 31.109375 56 
Q 35.5 56 39.546875 55.1875 
Q 43.609375 54.390625 47.515625 52.78125 
z
" id="DejaVuSansMono-115"/>
      <path d="M 29.984375 70.21875 
L 29.984375 54.6875 
L 50.390625 54.6875 
L 50.390625 47.703125 
L 29.984375 47.703125 
L 29.984375 18.015625 
Q 29.984375 11.96875 32.28125 9.5625 
Q 34.578125 7.171875 40.28125 7.171875 
L 50.390625 7.171875 
L 50.390625 0 
L 39.40625 0 
Q 29.296875 0 25.140625 4.046875 
Q 21 8.109375 21 18.015625 
L 21 47.703125 
L 6.390625 47.703125 
L 6.390625 54.6875 
L 21 54.6875 
L 21 70.21875 
z
" id="DejaVuSansMono-116"/>
      <path d="M 41.890625 47.703125 
L 41.890625 75.984375 
L 50.875 75.984375 
L 50.875 0 
L 41.890625 0 
L 41.890625 6.890625 
Q 39.65625 2.828125 35.90625 0.703125 
Q 32.171875 -1.421875 27.296875 -1.421875 
Q 17.390625 -1.421875 11.6875 6.265625 
Q 6 13.96875 6 27.484375 
Q 6 40.828125 11.71875 48.40625 
Q 17.4375 56 27.296875 56 
Q 32.234375 56 35.984375 53.875 
Q 39.75 51.765625 41.890625 47.703125 
z
M 15.484375 27.296875 
Q 15.484375 16.84375 18.796875 11.515625 
Q 22.125 6.203125 28.609375 6.203125 
Q 35.109375 6.203125 38.5 11.5625 
Q 41.890625 16.9375 41.890625 27.296875 
Q 41.890625 37.703125 38.5 43.046875 
Q 35.109375 48.390625 28.609375 48.390625 
Q 22.125 48.390625 18.796875 43.0625 
Q 15.484375 37.75 15.484375 27.296875 
z
" id="DejaVuSansMono-100"/>
      <path d="M 17 75.875 
L 24.8125 75.875 
Q 32.171875 64.359375 35.78125 53.3125 
Q 39.40625 42.28125 39.40625 31.390625 
Q 39.40625 20.40625 35.78125 9.375 
Q 32.171875 -1.65625 24.8125 -13.1875 
L 17 -13.1875 
Q 23.484375 -1.859375 26.6875 9.21875 
Q 29.890625 20.3125 29.890625 31.390625 
Q 29.890625 42.53125 26.6875 53.609375 
Q 23.484375 64.703125 17 75.875 
z
" id="DejaVuSansMono-41"/>
     </defs>
     <g style="fill:#262626;" transform="translate(495.175848 64.210433)scale(0.149904 -0.149904)">
      <use xlink:href="#DejaVuSansMono-35"/>
      <use x="60.205078" xlink:href="#DejaVuSansMono-32"/>
      <use x="120.410156" xlink:href="#DejaVuSansMono-32"/>
      <use x="180.615234" xlink:href="#DejaVuSansMono-40"/>
      <use x="240.820312" xlink:href="#DejaVuSansMono-32"/>
      <use x="301.025391" xlink:href="#DejaVuSansMono-32"/>
      <use x="361.230469" xlink:href="#DejaVuSansMono-32"/>
      <use x="421.435547" xlink:href="#DejaVuSansMono-32"/>
      <use x="481.640625" xlink:href="#DejaVuSansMono-110"/>
      <use x="541.845703" xlink:href="#DejaVuSansMono-44"/>
      <use x="602.050781" xlink:href="#DejaVuSansMono-32"/>
      <use x="662.255859" xlink:href="#DejaVuSansMono-32"/>
      <use x="722.460938" xlink:href="#DejaVuSansMono-109"/>
      <use x="782.666016" xlink:href="#DejaVuSansMono-101"/>
      <use x="842.871094" xlink:href="#DejaVuSansMono-97"/>
      <use x="903.076172" xlink:href="#DejaVuSansMono-110"/>
      <use x="963.28125" xlink:href="#DejaVuSansMono-44"/>
      <use x="1023.486328" xlink:href="#DejaVuSansMono-32"/>
      <use x="1083.691406" xlink:href="#DejaVuSansMono-32"/>
      <use x="1143.896484" xlink:href="#DejaVuSansMono-32"/>
      <use x="1204.101562" xlink:href="#DejaVuSansMono-115"/>
      <use x="1264.306641" xlink:href="#DejaVuSansMono-116"/>
      <use x="1324.511719" xlink:href="#DejaVuSansMono-100"/>
      <use x="1384.716797" xlink:href="#DejaVuSansMono-41"/>
     </g>
    </g>
    <g id="patch_16">
     <path d="M 453.202728 86.293166 
L 483.183528 86.293166 
L 483.183528 75.799886 
L 453.202728 75.799886 
z
" style="fill:none;opacity:0.75;stroke:#8dd3c7;stroke-linejoin:miter;stroke-width:3;"/>
    </g>
    <g id="text_19">
     <!-- 1  (10124, 410.7,  75.0) -->
     <defs>
      <path d="M 13.1875 8.296875 
L 28.515625 8.296875 
L 28.515625 64.015625 
L 12.015625 60.296875 
L 12.015625 69.28125 
L 28.421875 72.90625 
L 38.28125 72.90625 
L 38.28125 8.296875 
L 53.421875 8.296875 
L 53.421875 0 
L 13.1875 0 
z
" id="DejaVuSansMono-49"/>
      <path d="M 23.578125 36.625 
Q 23.578125 39.3125 25.453125 41.265625 
Q 27.34375 43.21875 29.984375 43.21875 
Q 32.71875 43.21875 34.671875 41.265625 
Q 36.625 39.3125 36.625 36.625 
Q 36.625 33.890625 34.6875 31.984375 
Q 32.765625 30.078125 29.984375 30.078125 
Q 27.25 30.078125 25.40625 31.9375 
Q 23.578125 33.796875 23.578125 36.625 
z
M 30.078125 66.40625 
Q 23.1875 66.40625 19.796875 58.984375 
Q 16.40625 51.5625 16.40625 36.375 
Q 16.40625 21.234375 19.796875 13.8125 
Q 23.1875 6.390625 30.078125 6.390625 
Q 37.015625 6.390625 40.40625 13.8125 
Q 43.796875 21.234375 43.796875 36.375 
Q 43.796875 51.5625 40.40625 58.984375 
Q 37.015625 66.40625 30.078125 66.40625 
z
M 30.078125 74.21875 
Q 41.75 74.21875 47.734375 64.640625 
Q 53.71875 55.078125 53.71875 36.375 
Q 53.71875 17.71875 47.734375 8.140625 
Q 41.75 -1.421875 30.078125 -1.421875 
Q 18.40625 -1.421875 12.453125 8.140625 
Q 6.5 17.71875 6.5 36.375 
Q 6.5 55.078125 12.453125 64.640625 
Q 18.40625 74.21875 30.078125 74.21875 
z
" id="DejaVuSansMono-48"/>
      <path d="M 18.21875 8.296875 
L 51.703125 8.296875 
L 51.703125 0 
L 7.421875 0 
L 7.421875 8.296875 
Q 16.546875 17.921875 23.375 25.296875 
Q 30.21875 32.671875 32.8125 35.6875 
Q 37.703125 41.65625 39.40625 45.34375 
Q 41.109375 49.03125 41.109375 52.875 
Q 41.109375 58.984375 37.515625 62.453125 
Q 33.9375 65.921875 27.6875 65.921875 
Q 23.25 65.921875 18.359375 64.3125 
Q 13.484375 62.703125 8.015625 59.421875 
L 8.015625 69.390625 
Q 13.03125 71.78125 17.890625 73 
Q 22.75 74.21875 27.484375 74.21875 
Q 38.1875 74.21875 44.703125 68.53125 
Q 51.21875 62.84375 51.21875 53.609375 
Q 51.21875 48.921875 49.046875 44.234375 
Q 46.875 39.546875 42 33.890625 
Q 39.265625 30.71875 34.0625 25.09375 
Q 28.859375 19.484375 18.21875 8.296875 
z
" id="DejaVuSansMono-50"/>
      <path d="M 35.890625 63.921875 
L 12.890625 25.390625 
L 35.890625 25.390625 
z
M 34.28125 72.90625 
L 45.703125 72.90625 
L 45.703125 25.390625 
L 55.421875 25.390625 
L 55.421875 17.390625 
L 45.703125 17.390625 
L 45.703125 0 
L 35.890625 0 
L 35.890625 17.390625 
L 4.984375 17.390625 
L 4.984375 26.703125 
z
" id="DejaVuSansMono-52"/>
      <path d="M 23.875 14.890625 
L 36.1875 14.890625 
L 36.1875 0 
L 23.875 0 
z
" id="DejaVuSansMono-46"/>
      <path d="M 6.78125 72.90625 
L 52.6875 72.90625 
L 52.6875 68.703125 
L 26.609375 0 
L 16.3125 0 
L 41.703125 64.59375 
L 6.78125 64.59375 
z
" id="DejaVuSansMono-55"/>
      <path d="M 10.109375 72.90625 
L 47.015625 72.90625 
L 47.015625 64.59375 
L 19.09375 64.59375 
L 19.09375 46.6875 
Q 21.1875 47.46875 23.3125 47.828125 
Q 25.4375 48.1875 27.59375 48.1875 
Q 38.921875 48.1875 45.5625 41.5 
Q 52.203125 34.8125 52.203125 23.390625 
Q 52.203125 11.859375 45.234375 5.21875 
Q 38.28125 -1.421875 26.21875 -1.421875 
Q 20.40625 -1.421875 15.59375 -0.640625 
Q 10.796875 0.140625 6.984375 1.703125 
L 6.984375 11.71875 
Q 11.46875 9.28125 16.015625 8.078125 
Q 20.5625 6.890625 25.296875 6.890625 
Q 33.453125 6.890625 37.859375 11.1875 
Q 42.28125 15.484375 42.28125 23.390625 
Q 42.28125 31.203125 37.71875 35.546875 
Q 33.15625 39.890625 25 39.890625 
Q 21.046875 39.890625 17.28125 38.984375 
Q 13.53125 38.09375 10.109375 36.28125 
z
" id="DejaVuSansMono-53"/>
     </defs>
     <g style="fill:#262626;" transform="translate(495.175848 86.293166)scale(0.149904 -0.149904)">
      <use xlink:href="#DejaVuSansMono-49"/>
      <use x="60.205078" xlink:href="#DejaVuSansMono-32"/>
      <use x="120.410156" xlink:href="#DejaVuSansMono-32"/>
      <use x="180.615234" xlink:href="#DejaVuSansMono-40"/>
      <use x="240.820312" xlink:href="#DejaVuSansMono-49"/>
      <use x="301.025391" xlink:href="#DejaVuSansMono-48"/>
      <use x="361.230469" xlink:href="#DejaVuSansMono-49"/>
      <use x="421.435547" xlink:href="#DejaVuSansMono-50"/>
      <use x="481.640625" xlink:href="#DejaVuSansMono-52"/>
      <use x="541.845703" xlink:href="#DejaVuSansMono-44"/>
      <use x="602.050781" xlink:href="#DejaVuSansMono-32"/>
      <use x="662.255859" xlink:href="#DejaVuSansMono-52"/>
      <use x="722.460938" xlink:href="#DejaVuSansMono-49"/>
      <use x="782.666016" xlink:href="#DejaVuSansMono-48"/>
      <use x="842.871094" xlink:href="#DejaVuSansMono-46"/>
      <use x="903.076172" xlink:href="#DejaVuSansMono-55"/>
      <use x="963.28125" xlink:href="#DejaVuSansMono-44"/>
      <use x="1023.486328" xlink:href="#DejaVuSansMono-32"/>
      <use x="1083.691406" xlink:href="#DejaVuSansMono-32"/>
      <use x="1143.896484" xlink:href="#DejaVuSansMono-55"/>
      <use x="1204.101562" xlink:href="#DejaVuSansMono-53"/>
      <use x="1264.306641" xlink:href="#DejaVuSansMono-46"/>
      <use x="1324.511719" xlink:href="#DejaVuSansMono-48"/>
      <use x="1384.716797" xlink:href="#DejaVuSansMono-41"/>
     </g>
    </g>
    <g id="patch_17">
     <path d="M 453.202728 108.375899 
L 483.183528 108.375899 
L 483.183528 97.882619 
L 453.202728 97.882619 
z
" style="fill:none;opacity:0.75;stroke:#ffffb3;stroke-linejoin:miter;stroke-width:3;"/>
    </g>
    <g id="text_20">
     <!-- 2  (16155, 397.9,  69.6) -->
     <defs>
      <path d="M 48.390625 71.296875 
L 48.390625 62.203125 
Q 45.3125 64.015625 41.84375 64.96875 
Q 38.375 65.921875 34.625 65.921875 
Q 25.25 65.921875 20.40625 58.859375 
Q 15.578125 51.8125 15.578125 38.09375 
Q 17.921875 42.96875 22.0625 45.578125 
Q 26.21875 48.1875 31.59375 48.1875 
Q 42.140625 48.1875 47.921875 41.71875 
Q 53.71875 35.25 53.71875 23.390625 
Q 53.71875 11.578125 47.75 5.078125 
Q 41.796875 -1.421875 31 -1.421875 
Q 18.3125 -1.421875 12.40625 7.6875 
Q 6.5 16.796875 6.5 36.375 
Q 6.5 54.828125 13.59375 64.515625 
Q 20.703125 74.21875 34.1875 74.21875 
Q 37.796875 74.21875 41.40625 73.453125 
Q 45.015625 72.703125 48.390625 71.296875 
z
M 30.8125 40.484375 
Q 24.515625 40.484375 20.890625 35.9375 
Q 17.28125 31.390625 17.28125 23.390625 
Q 17.28125 15.375 20.890625 10.828125 
Q 24.515625 6.296875 30.8125 6.296875 
Q 37.359375 6.296875 40.671875 10.609375 
Q 44 14.9375 44 23.390625 
Q 44 31.890625 40.671875 36.1875 
Q 37.359375 40.484375 30.8125 40.484375 
z
" id="DejaVuSansMono-54"/>
      <path d="M 37.890625 39.015625 
Q 45.0625 37.109375 48.875 32.25 
Q 52.6875 27.390625 52.6875 20.125 
Q 52.6875 10.0625 45.921875 4.3125 
Q 39.15625 -1.421875 27.203125 -1.421875 
Q 22.171875 -1.421875 16.9375 -0.484375 
Q 11.71875 0.4375 6.6875 2.203125 
L 6.6875 12.015625 
Q 11.671875 9.421875 16.5 8.15625 
Q 21.34375 6.890625 26.125 6.890625 
Q 34.234375 6.890625 38.578125 10.546875 
Q 42.921875 14.203125 42.921875 21.09375 
Q 42.921875 27.4375 38.578125 31.171875 
Q 34.234375 34.90625 26.8125 34.90625 
L 19.28125 34.90625 
L 19.28125 43.015625 
L 26.8125 43.015625 
Q 33.59375 43.015625 37.40625 45.984375 
Q 41.21875 48.96875 41.21875 54.296875 
Q 41.21875 59.90625 37.671875 62.90625 
Q 34.125 65.921875 27.59375 65.921875 
Q 23.25 65.921875 18.609375 64.9375 
Q 13.96875 63.96875 8.890625 62.015625 
L 8.890625 71.09375 
Q 14.796875 72.65625 19.40625 73.4375 
Q 24.03125 74.21875 27.59375 74.21875 
Q 38.234375 74.21875 44.609375 68.875 
Q 50.984375 63.53125 50.984375 54.6875 
Q 50.984375 48.6875 47.625 44.671875 
Q 44.28125 40.671875 37.890625 39.015625 
z
" id="DejaVuSansMono-51"/>
      <path d="M 29.109375 32.328125 
Q 35.40625 32.328125 38.984375 36.859375 
Q 42.578125 41.40625 42.578125 49.421875 
Q 42.578125 57.421875 38.984375 61.953125 
Q 35.40625 66.5 29.109375 66.5 
Q 22.5625 66.5 19.234375 62.171875 
Q 15.921875 57.859375 15.921875 49.421875 
Q 15.921875 40.921875 19.21875 36.625 
Q 22.515625 32.328125 29.109375 32.328125 
z
M 11.53125 1.515625 
L 11.53125 10.59375 
Q 14.59375 8.796875 18.0625 7.84375 
Q 21.53125 6.890625 25.296875 6.890625 
Q 34.671875 6.890625 39.46875 13.9375 
Q 44.28125 21 44.28125 34.71875 
Q 42 29.828125 37.84375 27.21875 
Q 33.6875 24.609375 28.328125 24.609375 
Q 17.78125 24.609375 11.984375 31.09375 
Q 6.203125 37.59375 6.203125 49.515625 
Q 6.203125 61.28125 12.125 67.75 
Q 18.0625 74.21875 28.90625 74.21875 
Q 41.609375 74.21875 47.515625 65.078125 
Q 53.421875 55.953125 53.421875 36.375 
Q 53.421875 17.96875 46.3125 8.265625 
Q 39.203125 -1.421875 25.6875 -1.421875 
Q 22.125 -1.421875 18.5 -0.65625 
Q 14.890625 0.09375 11.53125 1.515625 
z
" id="DejaVuSansMono-57"/>
     </defs>
     <g style="fill:#262626;" transform="translate(495.175848 108.375899)scale(0.149904 -0.149904)">
      <use xlink:href="#DejaVuSansMono-50"/>
      <use x="60.205078" xlink:href="#DejaVuSansMono-32"/>
      <use x="120.410156" xlink:href="#DejaVuSansMono-32"/>
      <use x="180.615234" xlink:href="#DejaVuSansMono-40"/>
      <use x="240.820312" xlink:href="#DejaVuSansMono-49"/>
      <use x="301.025391" xlink:href="#DejaVuSansMono-54"/>
      <use x="361.230469" xlink:href="#DejaVuSansMono-49"/>
      <use x="421.435547" xlink:href="#DejaVuSansMono-53"/>
      <use x="481.640625" xlink:href="#DejaVuSansMono-53"/>
      <use x="541.845703" xlink:href="#DejaVuSansMono-44"/>
      <use x="602.050781" xlink:href="#DejaVuSansMono-32"/>
      <use x="662.255859" xlink:href="#DejaVuSansMono-51"/>
      <use x="722.460938" xlink:href="#DejaVuSansMono-57"/>
      <use x="782.666016" xlink:href="#DejaVuSansMono-55"/>
      <use x="842.871094" xlink:href="#DejaVuSansMono-46"/>
      <use x="903.076172" xlink:href="#DejaVuSansMono-57"/>
      <use x="963.28125" xlink:href="#DejaVuSansMono-44"/>
      <use x="1023.486328" xlink:href="#DejaVuSansMono-32"/>
      <use x="1083.691406" xlink:href="#DejaVuSansMono-32"/>
      <use x="1143.896484" xlink:href="#DejaVuSansMono-54"/>
      <use x="1204.101562" xlink:href="#DejaVuSansMono-57"/>
      <use x="1264.306641" xlink:href="#DejaVuSansMono-46"/>
      <use x="1324.511719" xlink:href="#DejaVuSansMono-54"/>
      <use x="1384.716797" xlink:href="#DejaVuSansMono-41"/>
     </g>
    </g>
    <g id="patch_18">
     <path d="M 453.202728 130.458632 
L 483.183528 130.458632 
L 483.183528 119.965352 
L 453.202728 119.965352 
z
" style="fill:none;opacity:0.75;stroke:#bebada;stroke-linejoin:miter;stroke-width:3;"/>
    </g>
    <g id="text_21">
     <!-- 3  (14634, 422.8,  71.3) -->
     <defs>
      <path d="M 30.078125 34.625 
Q 23.484375 34.625 19.890625 30.9375 
Q 16.3125 27.25 16.3125 20.515625 
Q 16.3125 13.765625 19.9375 10.03125 
Q 23.578125 6.296875 30.078125 6.296875 
Q 36.71875 6.296875 40.296875 9.984375 
Q 43.890625 13.671875 43.890625 20.515625 
Q 43.890625 27.203125 40.25 30.90625 
Q 36.625 34.625 30.078125 34.625 
z
M 21.484375 38.71875 
Q 15.1875 40.328125 11.640625 44.71875 
Q 8.109375 49.125 8.109375 55.328125 
Q 8.109375 64.015625 14.015625 69.109375 
Q 19.921875 74.21875 30.078125 74.21875 
Q 40.28125 74.21875 46.1875 69.109375 
Q 52.09375 64.015625 52.09375 55.328125 
Q 52.09375 49.125 48.546875 44.71875 
Q 45.015625 40.328125 38.71875 38.71875 
Q 46.046875 37.109375 49.921875 32.21875 
Q 53.8125 27.34375 53.8125 19.578125 
Q 53.8125 9.71875 47.515625 4.140625 
Q 41.21875 -1.421875 30.078125 -1.421875 
Q 18.953125 -1.421875 12.671875 4.125 
Q 6.390625 9.671875 6.390625 19.484375 
Q 6.390625 27.296875 10.265625 32.203125 
Q 14.15625 37.109375 21.484375 38.71875 
z
M 17.921875 54.390625 
Q 17.921875 48.53125 21.046875 45.453125 
Q 24.171875 42.390625 30.078125 42.390625 
Q 36.03125 42.390625 39.15625 45.453125 
Q 42.28125 48.53125 42.28125 54.390625 
Q 42.28125 60.359375 39.171875 63.484375 
Q 36.078125 66.609375 30.078125 66.609375 
Q 24.171875 66.609375 21.046875 63.453125 
Q 17.921875 60.296875 17.921875 54.390625 
z
" id="DejaVuSansMono-56"/>
     </defs>
     <g style="fill:#262626;" transform="translate(495.175848 130.458632)scale(0.149904 -0.149904)">
      <use xlink:href="#DejaVuSansMono-51"/>
      <use x="60.205078" xlink:href="#DejaVuSansMono-32"/>
      <use x="120.410156" xlink:href="#DejaVuSansMono-32"/>
      <use x="180.615234" xlink:href="#DejaVuSansMono-40"/>
      <use x="240.820312" xlink:href="#DejaVuSansMono-49"/>
      <use x="301.025391" xlink:href="#DejaVuSansMono-52"/>
      <use x="361.230469" xlink:href="#DejaVuSansMono-54"/>
      <use x="421.435547" xlink:href="#DejaVuSansMono-51"/>
      <use x="481.640625" xlink:href="#DejaVuSansMono-52"/>
      <use x="541.845703" xlink:href="#DejaVuSansMono-44"/>
      <use x="602.050781" xlink:href="#DejaVuSansMono-32"/>
      <use x="662.255859" xlink:href="#DejaVuSansMono-52"/>
      <use x="722.460938" xlink:href="#DejaVuSansMono-50"/>
      <use x="782.666016" xlink:href="#DejaVuSansMono-50"/>
      <use x="842.871094" xlink:href="#DejaVuSansMono-46"/>
      <use x="903.076172" xlink:href="#DejaVuSansMono-56"/>
      <use x="963.28125" xlink:href="#DejaVuSansMono-44"/>
      <use x="1023.486328" xlink:href="#DejaVuSansMono-32"/>
      <use x="1083.691406" xlink:href="#DejaVuSansMono-32"/>
      <use x="1143.896484" xlink:href="#DejaVuSansMono-55"/>
      <use x="1204.101562" xlink:href="#DejaVuSansMono-49"/>
      <use x="1264.306641" xlink:href="#DejaVuSansMono-46"/>
      <use x="1324.511719" xlink:href="#DejaVuSansMono-51"/>
      <use x="1384.716797" xlink:href="#DejaVuSansMono-41"/>
     </g>
    </g>
    <g id="patch_19">
     <path d="M 453.202728 152.541365 
L 483.183528 152.541365 
L 483.183528 142.048085 
L 453.202728 142.048085 
z
" style="fill:none;opacity:0.75;stroke:#fb8072;stroke-linejoin:miter;stroke-width:3;"/>
    </g>
    <g id="text_22">
     <!-- 4  ( 1489, 397.8,  67.2) -->
     <g style="fill:#262626;" transform="translate(495.175848 152.541365)scale(0.149904 -0.149904)">
      <use xlink:href="#DejaVuSansMono-52"/>
      <use x="60.205078" xlink:href="#DejaVuSansMono-32"/>
      <use x="120.410156" xlink:href="#DejaVuSansMono-32"/>
      <use x="180.615234" xlink:href="#DejaVuSansMono-40"/>
      <use x="240.820312" xlink:href="#DejaVuSansMono-32"/>
      <use x="301.025391" xlink:href="#DejaVuSansMono-49"/>
      <use x="361.230469" xlink:href="#DejaVuSansMono-52"/>
      <use x="421.435547" xlink:href="#DejaVuSansMono-56"/>
      <use x="481.640625" xlink:href="#DejaVuSansMono-57"/>
      <use x="541.845703" xlink:href="#DejaVuSansMono-44"/>
      <use x="602.050781" xlink:href="#DejaVuSansMono-32"/>
      <use x="662.255859" xlink:href="#DejaVuSansMono-51"/>
      <use x="722.460938" xlink:href="#DejaVuSansMono-57"/>
      <use x="782.666016" xlink:href="#DejaVuSansMono-55"/>
      <use x="842.871094" xlink:href="#DejaVuSansMono-46"/>
      <use x="903.076172" xlink:href="#DejaVuSansMono-56"/>
      <use x="963.28125" xlink:href="#DejaVuSansMono-44"/>
      <use x="1023.486328" xlink:href="#DejaVuSansMono-32"/>
      <use x="1083.691406" xlink:href="#DejaVuSansMono-32"/>
      <use x="1143.896484" xlink:href="#DejaVuSansMono-54"/>
      <use x="1204.101562" xlink:href="#DejaVuSansMono-55"/>
      <use x="1264.306641" xlink:href="#DejaVuSansMono-46"/>
      <use x="1324.511719" xlink:href="#DejaVuSansMono-50"/>
      <use x="1384.716797" xlink:href="#DejaVuSansMono-41"/>
     </g>
    </g>
    <g id="patch_20">
     <path d="M 453.202728 174.624098 
L 483.183528 174.624098 
L 483.183528 164.130818 
L 453.202728 164.130818 
z
" style="fill:none;opacity:0.75;stroke:#80b1d3;stroke-linejoin:miter;stroke-width:3;"/>
    </g>
    <g id="text_23">
     <!-- 5  (  835, 412.3,  68.1) -->
     <g style="fill:#262626;" transform="translate(495.175848 174.624098)scale(0.149904 -0.149904)">
      <use xlink:href="#DejaVuSansMono-53"/>
      <use x="60.205078" xlink:href="#DejaVuSansMono-32"/>
      <use x="120.410156" xlink:href="#DejaVuSansMono-32"/>
      <use x="180.615234" xlink:href="#DejaVuSansMono-40"/>
      <use x="240.820312" xlink:href="#DejaVuSansMono-32"/>
      <use x="301.025391" xlink:href="#DejaVuSansMono-32"/>
      <use x="361.230469" xlink:href="#DejaVuSansMono-56"/>
      <use x="421.435547" xlink:href="#DejaVuSansMono-51"/>
      <use x="481.640625" xlink:href="#DejaVuSansMono-53"/>
      <use x="541.845703" xlink:href="#DejaVuSansMono-44"/>
      <use x="602.050781" xlink:href="#DejaVuSansMono-32"/>
      <use x="662.255859" xlink:href="#DejaVuSansMono-52"/>
      <use x="722.460938" xlink:href="#DejaVuSansMono-49"/>
      <use x="782.666016" xlink:href="#DejaVuSansMono-50"/>
      <use x="842.871094" xlink:href="#DejaVuSansMono-46"/>
      <use x="903.076172" xlink:href="#DejaVuSansMono-51"/>
      <use x="963.28125" xlink:href="#DejaVuSansMono-44"/>
      <use x="1023.486328" xlink:href="#DejaVuSansMono-32"/>
      <use x="1083.691406" xlink:href="#DejaVuSansMono-32"/>
      <use x="1143.896484" xlink:href="#DejaVuSansMono-54"/>
      <use x="1204.101562" xlink:href="#DejaVuSansMono-56"/>
      <use x="1264.306641" xlink:href="#DejaVuSansMono-46"/>
      <use x="1324.511719" xlink:href="#DejaVuSansMono-49"/>
      <use x="1384.716797" xlink:href="#DejaVuSansMono-41"/>
     </g>
    </g>
    <g id="patch_21">
     <path d="M 453.202728 196.706831 
L 483.183528 196.706831 
L 483.183528 186.213551 
L 453.202728 186.213551 
z
" style="fill:none;opacity:0.75;stroke:#fdb462;stroke-linejoin:miter;stroke-width:3;"/>
    </g>
    <g id="text_24">
     <!-- 6  ( 3312, 331.4,  99.4) -->
     <g style="fill:#262626;" transform="translate(495.175848 196.706831)scale(0.149904 -0.149904)">
      <use xlink:href="#DejaVuSansMono-54"/>
      <use x="60.205078" xlink:href="#DejaVuSansMono-32"/>
      <use x="120.410156" xlink:href="#DejaVuSansMono-32"/>
      <use x="180.615234" xlink:href="#DejaVuSansMono-40"/>
      <use x="240.820312" xlink:href="#DejaVuSansMono-32"/>
      <use x="301.025391" xlink:href="#DejaVuSansMono-51"/>
      <use x="361.230469" xlink:href="#DejaVuSansMono-51"/>
      <use x="421.435547" xlink:href="#DejaVuSansMono-49"/>
      <use x="481.640625" xlink:href="#DejaVuSansMono-50"/>
      <use x="541.845703" xlink:href="#DejaVuSansMono-44"/>
      <use x="602.050781" xlink:href="#DejaVuSansMono-32"/>
      <use x="662.255859" xlink:href="#DejaVuSansMono-51"/>
      <use x="722.460938" xlink:href="#DejaVuSansMono-51"/>
      <use x="782.666016" xlink:href="#DejaVuSansMono-49"/>
      <use x="842.871094" xlink:href="#DejaVuSansMono-46"/>
      <use x="903.076172" xlink:href="#DejaVuSansMono-52"/>
      <use x="963.28125" xlink:href="#DejaVuSansMono-44"/>
      <use x="1023.486328" xlink:href="#DejaVuSansMono-32"/>
      <use x="1083.691406" xlink:href="#DejaVuSansMono-32"/>
      <use x="1143.896484" xlink:href="#DejaVuSansMono-57"/>
      <use x="1204.101562" xlink:href="#DejaVuSansMono-57"/>
      <use x="1264.306641" xlink:href="#DejaVuSansMono-46"/>
      <use x="1324.511719" xlink:href="#DejaVuSansMono-52"/>
      <use x="1384.716797" xlink:href="#DejaVuSansMono-41"/>
     </g>
    </g>
    <g id="patch_22">
     <path d="M 453.202728 218.789564 
L 483.183528 218.789564 
L 483.183528 208.296284 
L 453.202728 208.296284 
z
" style="fill:none;opacity:0.75;stroke:#b3de69;stroke-linejoin:miter;stroke-width:3;"/>
    </g>
    <g id="text_25">
     <!-- 7  (  833, 267.3,  65.0) -->
     <g style="fill:#262626;" transform="translate(495.175848 218.789564)scale(0.149904 -0.149904)">
      <use xlink:href="#DejaVuSansMono-55"/>
      <use x="60.205078" xlink:href="#DejaVuSansMono-32"/>
      <use x="120.410156" xlink:href="#DejaVuSansMono-32"/>
      <use x="180.615234" xlink:href="#DejaVuSansMono-40"/>
      <use x="240.820312" xlink:href="#DejaVuSansMono-32"/>
      <use x="301.025391" xlink:href="#DejaVuSansMono-32"/>
      <use x="361.230469" xlink:href="#DejaVuSansMono-56"/>
      <use x="421.435547" xlink:href="#DejaVuSansMono-51"/>
      <use x="481.640625" xlink:href="#DejaVuSansMono-51"/>
      <use x="541.845703" xlink:href="#DejaVuSansMono-44"/>
      <use x="602.050781" xlink:href="#DejaVuSansMono-32"/>
      <use x="662.255859" xlink:href="#DejaVuSansMono-50"/>
      <use x="722.460938" xlink:href="#DejaVuSansMono-54"/>
      <use x="782.666016" xlink:href="#DejaVuSansMono-55"/>
      <use x="842.871094" xlink:href="#DejaVuSansMono-46"/>
      <use x="903.076172" xlink:href="#DejaVuSansMono-51"/>
      <use x="963.28125" xlink:href="#DejaVuSansMono-44"/>
      <use x="1023.486328" xlink:href="#DejaVuSansMono-32"/>
      <use x="1083.691406" xlink:href="#DejaVuSansMono-32"/>
      <use x="1143.896484" xlink:href="#DejaVuSansMono-54"/>
      <use x="1204.101562" xlink:href="#DejaVuSansMono-53"/>
      <use x="1264.306641" xlink:href="#DejaVuSansMono-46"/>
      <use x="1324.511719" xlink:href="#DejaVuSansMono-48"/>
      <use x="1384.716797" xlink:href="#DejaVuSansMono-41"/>
     </g>
    </g>
   </g>
  </g>
 </g>
 <defs>
  <clipPath id="p9762132068">
   <rect height="434.88" width="558" x="83.55975" y="12"/>
  </clipPath>
 </defs>
</svg>
