<?xml version="1.0" encoding="utf-8" standalone="no"?>
<!DOCTYPE svg PUBLIC "-//W3C//DTD SVG 1.1//EN"
  "http://www.w3.org/Graphics/SVG/1.1/DTD/svg11.dtd">
<!-- Created with matplotlib (https://matplotlib.org/) -->
<svg height="480.71975pt" version="1.1" viewBox="0 0 642.802219 480.71975" width="642.802219pt" xmlns="http://www.w3.org/2000/svg" xmlns:xlink="http://www.w3.org/1999/xlink">
 <defs>
  <style type="text/css">
*{stroke-linecap:butt;stroke-linejoin:round;}
  </style>
 </defs>
 <g id="figure_1">
  <g id="patch_1">
   <path d="M 0 480.71975 
L 642.802219 480.71975 
L 642.802219 0 
L 0 0 
z
" style="fill:none;"/>
  </g>
  <g id="axes_1">
   <g id="patch_2">
    <path d="M 72.802219 446.88 
L 630.802219 446.88 
L 630.802219 12 
L 72.802219 12 
z
" style="fill:none;"/>
   </g>
   <g id="matplotlib.axis_1">
    <g id="xtick_1">
     <g id="line2d_1">
      <defs>
       <path d="M 0 0 
L 0 4.8 
" id="m0dd81457a1" style="stroke:#262626;stroke-width:2.5;"/>
      </defs>
      <g>
       <use style="fill:#262626;stroke:#262626;stroke-width:2.5;" x="142.552219" xlink:href="#m0dd81457a1" y="446.88"/>
      </g>
     </g>
     <g id="text_1">
      <!-- All -->
      <defs>
       <path d="M -0.140625 0 
L 27.34375 71.578125 
L 37.546875 71.578125 
L 66.84375 0 
L 56.0625 0 
L 47.703125 21.6875 
L 17.78125 21.6875 
L 9.90625 0 
z
M 20.515625 29.390625 
L 44.78125 29.390625 
L 37.3125 49.21875 
Q 33.890625 58.25 32.234375 64.0625 
Q 30.859375 57.171875 28.375 50.390625 
z
" id="ArialMT-65"/>
       <path d="M 6.390625 0 
L 6.390625 71.578125 
L 15.1875 71.578125 
L 15.1875 0 
z
" id="ArialMT-108"/>
      </defs>
      <g style="fill:#262626;" transform="translate(131.549297 469.352469)scale(0.198 -0.198)">
       <use xlink:href="#ArialMT-65"/>
       <use x="66.699219" xlink:href="#ArialMT-108"/>
       <use x="88.916016" xlink:href="#ArialMT-108"/>
      </g>
     </g>
    </g>
    <g id="xtick_2">
     <g id="line2d_2">
      <g>
       <use style="fill:#262626;stroke:#262626;stroke-width:2.5;" x="282.052219" xlink:href="#m0dd81457a1" y="446.88"/>
      </g>
     </g>
     <g id="text_2">
      <!-- Bradley + Bergstrom -->
      <defs>
       <path d="M 7.328125 0 
L 7.328125 71.578125 
L 34.1875 71.578125 
Q 42.390625 71.578125 47.34375 69.40625 
Q 52.296875 67.234375 55.09375 62.71875 
Q 57.90625 58.203125 57.90625 53.265625 
Q 57.90625 48.6875 55.421875 44.625 
Q 52.9375 40.578125 47.90625 38.09375 
Q 54.390625 36.1875 57.875 31.59375 
Q 61.375 27 61.375 20.75 
Q 61.375 15.71875 59.25 11.390625 
Q 57.125 7.078125 54 4.734375 
Q 50.875 2.390625 46.15625 1.1875 
Q 41.453125 0 34.625 0 
z
M 16.796875 41.5 
L 32.28125 41.5 
Q 38.578125 41.5 41.3125 42.328125 
Q 44.921875 43.40625 46.75 45.890625 
Q 48.578125 48.390625 48.578125 52.15625 
Q 48.578125 55.71875 46.875 58.421875 
Q 45.171875 61.140625 41.984375 62.140625 
Q 38.8125 63.140625 31.109375 63.140625 
L 16.796875 63.140625 
z
M 16.796875 8.453125 
L 34.625 8.453125 
Q 39.203125 8.453125 41.0625 8.796875 
Q 44.34375 9.375 46.53125 10.734375 
Q 48.734375 12.109375 50.140625 14.71875 
Q 51.5625 17.328125 51.5625 20.75 
Q 51.5625 24.75 49.515625 27.703125 
Q 47.46875 30.671875 43.828125 31.859375 
Q 40.1875 33.0625 33.34375 33.0625 
L 16.796875 33.0625 
z
" id="ArialMT-66"/>
       <path d="M 6.5 0 
L 6.5 51.859375 
L 14.40625 51.859375 
L 14.40625 44 
Q 17.4375 49.515625 20 51.265625 
Q 22.5625 53.03125 25.640625 53.03125 
Q 30.078125 53.03125 34.671875 50.203125 
L 31.640625 42.046875 
Q 28.421875 43.953125 25.203125 43.953125 
Q 22.3125 43.953125 20.015625 42.21875 
Q 17.71875 40.484375 16.75 37.40625 
Q 15.28125 32.71875 15.28125 27.15625 
L 15.28125 0 
z
" id="ArialMT-114"/>
       <path d="M 40.4375 6.390625 
Q 35.546875 2.25 31.03125 0.53125 
Q 26.515625 -1.171875 21.34375 -1.171875 
Q 12.796875 -1.171875 8.203125 3 
Q 3.609375 7.171875 3.609375 13.671875 
Q 3.609375 17.484375 5.34375 20.625 
Q 7.078125 23.78125 9.890625 25.6875 
Q 12.703125 27.59375 16.21875 28.5625 
Q 18.796875 29.25 24.03125 29.890625 
Q 34.671875 31.15625 39.703125 32.90625 
Q 39.75 34.71875 39.75 35.203125 
Q 39.75 40.578125 37.25 42.78125 
Q 33.890625 45.75 27.25 45.75 
Q 21.046875 45.75 18.09375 43.578125 
Q 15.140625 41.40625 13.71875 35.890625 
L 5.125 37.0625 
Q 6.296875 42.578125 8.984375 45.96875 
Q 11.671875 49.359375 16.75 51.1875 
Q 21.828125 53.03125 28.515625 53.03125 
Q 35.15625 53.03125 39.296875 51.46875 
Q 43.453125 49.90625 45.40625 47.53125 
Q 47.359375 45.171875 48.140625 41.546875 
Q 48.578125 39.3125 48.578125 33.453125 
L 48.578125 21.734375 
Q 48.578125 9.46875 49.140625 6.21875 
Q 49.703125 2.984375 51.375 0 
L 42.1875 0 
Q 40.828125 2.734375 40.4375 6.390625 
z
M 39.703125 26.03125 
Q 34.90625 24.078125 25.34375 22.703125 
Q 19.921875 21.921875 17.671875 20.9375 
Q 15.4375 19.96875 14.203125 18.09375 
Q 12.984375 16.21875 12.984375 13.921875 
Q 12.984375 10.40625 15.640625 8.0625 
Q 18.3125 5.71875 23.4375 5.71875 
Q 28.515625 5.71875 32.46875 7.9375 
Q 36.421875 10.15625 38.28125 14.015625 
Q 39.703125 17 39.703125 22.796875 
z
" id="ArialMT-97"/>
       <path d="M 40.234375 0 
L 40.234375 6.546875 
Q 35.296875 -1.171875 25.734375 -1.171875 
Q 19.53125 -1.171875 14.328125 2.25 
Q 9.125 5.671875 6.265625 11.796875 
Q 3.421875 17.921875 3.421875 25.875 
Q 3.421875 33.640625 6 39.96875 
Q 8.59375 46.296875 13.765625 49.65625 
Q 18.953125 53.03125 25.34375 53.03125 
Q 30.03125 53.03125 33.6875 51.046875 
Q 37.359375 49.078125 39.65625 45.90625 
L 39.65625 71.578125 
L 48.390625 71.578125 
L 48.390625 0 
z
M 12.453125 25.875 
Q 12.453125 15.921875 16.640625 10.984375 
Q 20.84375 6.0625 26.5625 6.0625 
Q 32.328125 6.0625 36.34375 10.765625 
Q 40.375 15.484375 40.375 25.140625 
Q 40.375 35.796875 36.265625 40.765625 
Q 32.171875 45.75 26.171875 45.75 
Q 20.3125 45.75 16.375 40.96875 
Q 12.453125 36.1875 12.453125 25.875 
z
" id="ArialMT-100"/>
       <path d="M 42.09375 16.703125 
L 51.171875 15.578125 
Q 49.03125 7.625 43.21875 3.21875 
Q 37.40625 -1.171875 28.375 -1.171875 
Q 17 -1.171875 10.328125 5.828125 
Q 3.65625 12.84375 3.65625 25.484375 
Q 3.65625 38.578125 10.390625 45.796875 
Q 17.140625 53.03125 27.875 53.03125 
Q 38.28125 53.03125 44.875 45.953125 
Q 51.46875 38.875 51.46875 26.03125 
Q 51.46875 25.25 51.421875 23.6875 
L 12.75 23.6875 
Q 13.234375 15.140625 17.578125 10.59375 
Q 21.921875 6.0625 28.421875 6.0625 
Q 33.25 6.0625 36.671875 8.59375 
Q 40.09375 11.140625 42.09375 16.703125 
z
M 13.234375 30.90625 
L 42.1875 30.90625 
Q 41.609375 37.453125 38.875 40.71875 
Q 34.671875 45.796875 27.984375 45.796875 
Q 21.921875 45.796875 17.796875 41.75 
Q 13.671875 37.703125 13.234375 30.90625 
z
" id="ArialMT-101"/>
       <path d="M 6.203125 -19.96875 
L 5.21875 -11.71875 
Q 8.109375 -12.5 10.25 -12.5 
Q 13.1875 -12.5 14.9375 -11.515625 
Q 16.703125 -10.546875 17.828125 -8.796875 
Q 18.65625 -7.46875 20.515625 -2.25 
Q 20.75 -1.515625 21.296875 -0.09375 
L 1.609375 51.859375 
L 11.078125 51.859375 
L 21.875 21.828125 
Q 23.96875 16.109375 25.640625 9.8125 
Q 27.15625 15.875 29.25 21.625 
L 40.328125 51.859375 
L 49.125 51.859375 
L 29.390625 -0.875 
Q 26.21875 -9.421875 24.46875 -12.640625 
Q 22.125 -17 19.09375 -19.015625 
Q 16.0625 -21.046875 11.859375 -21.046875 
Q 9.328125 -21.046875 6.203125 -19.96875 
z
" id="ArialMT-121"/>
       <path id="ArialMT-32"/>
       <path d="M 25.046875 11.578125 
L 25.046875 31.203125 
L 5.5625 31.203125 
L 5.5625 39.40625 
L 25.046875 39.40625 
L 25.046875 58.890625 
L 33.34375 58.890625 
L 33.34375 39.40625 
L 52.828125 39.40625 
L 52.828125 31.203125 
L 33.34375 31.203125 
L 33.34375 11.578125 
z
" id="ArialMT-43"/>
       <path d="M 4.984375 -4.296875 
L 13.53125 -5.5625 
Q 14.0625 -9.515625 16.5 -11.328125 
Q 19.78125 -13.765625 25.4375 -13.765625 
Q 31.546875 -13.765625 34.859375 -11.328125 
Q 38.1875 -8.890625 39.359375 -4.5 
Q 40.046875 -1.8125 39.984375 6.78125 
Q 34.234375 0 25.640625 0 
Q 14.9375 0 9.078125 7.71875 
Q 3.21875 15.4375 3.21875 26.21875 
Q 3.21875 33.640625 5.90625 39.90625 
Q 8.59375 46.1875 13.6875 49.609375 
Q 18.796875 53.03125 25.6875 53.03125 
Q 34.859375 53.03125 40.828125 45.609375 
L 40.828125 51.859375 
L 48.921875 51.859375 
L 48.921875 7.03125 
Q 48.921875 -5.078125 46.453125 -10.125 
Q 44 -15.1875 38.640625 -18.109375 
Q 33.296875 -21.046875 25.484375 -21.046875 
Q 16.21875 -21.046875 10.5 -16.875 
Q 4.78125 -12.703125 4.984375 -4.296875 
z
M 12.25 26.859375 
Q 12.25 16.65625 16.296875 11.96875 
Q 20.359375 7.28125 26.46875 7.28125 
Q 32.515625 7.28125 36.609375 11.9375 
Q 40.71875 16.609375 40.71875 26.5625 
Q 40.71875 36.078125 36.5 40.90625 
Q 32.28125 45.75 26.3125 45.75 
Q 20.453125 45.75 16.34375 40.984375 
Q 12.25 36.234375 12.25 26.859375 
z
" id="ArialMT-103"/>
       <path d="M 3.078125 15.484375 
L 11.765625 16.84375 
Q 12.5 11.625 15.84375 8.84375 
Q 19.1875 6.0625 25.203125 6.0625 
Q 31.25 6.0625 34.171875 8.515625 
Q 37.109375 10.984375 37.109375 14.3125 
Q 37.109375 17.28125 34.515625 19 
Q 32.71875 20.171875 25.53125 21.96875 
Q 15.875 24.421875 12.140625 26.203125 
Q 8.40625 27.984375 6.46875 31.125 
Q 4.546875 34.28125 4.546875 38.09375 
Q 4.546875 41.546875 6.125 44.5 
Q 7.71875 47.46875 10.453125 49.421875 
Q 12.5 50.921875 16.03125 51.96875 
Q 19.578125 53.03125 23.640625 53.03125 
Q 29.734375 53.03125 34.34375 51.265625 
Q 38.96875 49.515625 41.15625 46.5 
Q 43.359375 43.5 44.1875 38.484375 
L 35.59375 37.3125 
Q 35.015625 41.3125 32.203125 43.546875 
Q 29.390625 45.796875 24.265625 45.796875 
Q 18.21875 45.796875 15.625 43.796875 
Q 13.03125 41.796875 13.03125 39.109375 
Q 13.03125 37.40625 14.109375 36.03125 
Q 15.1875 34.625 17.484375 33.6875 
Q 18.796875 33.203125 25.25 31.453125 
Q 34.578125 28.953125 38.25 27.359375 
Q 41.9375 25.78125 44.03125 22.75 
Q 46.140625 19.734375 46.140625 15.234375 
Q 46.140625 10.84375 43.578125 6.953125 
Q 41.015625 3.078125 36.171875 0.953125 
Q 31.34375 -1.171875 25.25 -1.171875 
Q 15.140625 -1.171875 9.84375 3.03125 
Q 4.546875 7.234375 3.078125 15.484375 
z
" id="ArialMT-115"/>
       <path d="M 25.78125 7.859375 
L 27.046875 0.09375 
Q 23.34375 -0.6875 20.40625 -0.6875 
Q 15.625 -0.6875 12.984375 0.828125 
Q 10.359375 2.34375 9.28125 4.8125 
Q 8.203125 7.28125 8.203125 15.1875 
L 8.203125 45.015625 
L 1.765625 45.015625 
L 1.765625 51.859375 
L 8.203125 51.859375 
L 8.203125 64.703125 
L 16.9375 69.96875 
L 16.9375 51.859375 
L 25.78125 51.859375 
L 25.78125 45.015625 
L 16.9375 45.015625 
L 16.9375 14.703125 
Q 16.9375 10.9375 17.40625 9.859375 
Q 17.875 8.796875 18.921875 8.15625 
Q 19.96875 7.515625 21.921875 7.515625 
Q 23.390625 7.515625 25.78125 7.859375 
z
" id="ArialMT-116"/>
       <path d="M 3.328125 25.921875 
Q 3.328125 40.328125 11.328125 47.265625 
Q 18.015625 53.03125 27.640625 53.03125 
Q 38.328125 53.03125 45.109375 46.015625 
Q 51.90625 39.015625 51.90625 26.65625 
Q 51.90625 16.65625 48.90625 10.90625 
Q 45.90625 5.171875 40.15625 2 
Q 34.421875 -1.171875 27.640625 -1.171875 
Q 16.75 -1.171875 10.03125 5.8125 
Q 3.328125 12.796875 3.328125 25.921875 
z
M 12.359375 25.921875 
Q 12.359375 15.96875 16.703125 11.015625 
Q 21.046875 6.0625 27.640625 6.0625 
Q 34.1875 6.0625 38.53125 11.03125 
Q 42.875 16.015625 42.875 26.21875 
Q 42.875 35.84375 38.5 40.796875 
Q 34.125 45.75 27.640625 45.75 
Q 21.046875 45.75 16.703125 40.8125 
Q 12.359375 35.890625 12.359375 25.921875 
z
" id="ArialMT-111"/>
       <path d="M 6.59375 0 
L 6.59375 51.859375 
L 14.453125 51.859375 
L 14.453125 44.578125 
Q 16.890625 48.390625 20.9375 50.703125 
Q 25 53.03125 30.171875 53.03125 
Q 35.9375 53.03125 39.625 50.640625 
Q 43.3125 48.25 44.828125 43.953125 
Q 50.984375 53.03125 60.84375 53.03125 
Q 68.5625 53.03125 72.703125 48.75 
Q 76.859375 44.484375 76.859375 35.59375 
L 76.859375 0 
L 68.109375 0 
L 68.109375 32.671875 
Q 68.109375 37.9375 67.25 40.25 
Q 66.40625 42.578125 64.15625 43.984375 
Q 61.921875 45.40625 58.890625 45.40625 
Q 53.421875 45.40625 49.796875 41.765625 
Q 46.1875 38.140625 46.1875 30.125 
L 46.1875 0 
L 37.40625 0 
L 37.40625 33.6875 
Q 37.40625 39.546875 35.25 42.46875 
Q 33.109375 45.40625 28.21875 45.40625 
Q 24.515625 45.40625 21.359375 43.453125 
Q 18.21875 41.5 16.796875 37.734375 
Q 15.375 33.984375 15.375 26.90625 
L 15.375 0 
z
" id="ArialMT-109"/>
      </defs>
      <g style="fill:#262626;" transform="translate(191.544562 469.352469)scale(0.198 -0.198)">
       <use xlink:href="#ArialMT-66"/>
       <use x="66.699219" xlink:href="#ArialMT-114"/>
       <use x="100" xlink:href="#ArialMT-97"/>
       <use x="155.615234" xlink:href="#ArialMT-100"/>
       <use x="211.230469" xlink:href="#ArialMT-108"/>
       <use x="233.447266" xlink:href="#ArialMT-101"/>
       <use x="289.0625" xlink:href="#ArialMT-121"/>
       <use x="339.0625" xlink:href="#ArialMT-32"/>
       <use x="366.845703" xlink:href="#ArialMT-43"/>
       <use x="425.244141" xlink:href="#ArialMT-32"/>
       <use x="453.027344" xlink:href="#ArialMT-66"/>
       <use x="519.726562" xlink:href="#ArialMT-101"/>
       <use x="575.341797" xlink:href="#ArialMT-114"/>
       <use x="608.642578" xlink:href="#ArialMT-103"/>
       <use x="664.257812" xlink:href="#ArialMT-115"/>
       <use x="714.257812" xlink:href="#ArialMT-116"/>
       <use x="742.041016" xlink:href="#ArialMT-114"/>
       <use x="775.341797" xlink:href="#ArialMT-111"/>
       <use x="830.957031" xlink:href="#ArialMT-109"/>
      </g>
     </g>
    </g>
    <g id="xtick_3">
     <g id="line2d_3">
      <g>
       <use style="fill:#262626;stroke:#262626;stroke-width:2.5;" x="421.552219" xlink:href="#m0dd81457a1" y="446.88"/>
      </g>
     </g>
     <g id="text_3">
      <!-- OCHEM -->
      <defs>
       <path d="M 4.828125 34.859375 
Q 4.828125 52.6875 14.390625 62.765625 
Q 23.96875 72.859375 39.109375 72.859375 
Q 49.03125 72.859375 56.984375 68.109375 
Q 64.9375 63.375 69.109375 54.90625 
Q 73.296875 46.4375 73.296875 35.6875 
Q 73.296875 24.8125 68.890625 16.21875 
Q 64.5 7.625 56.4375 3.203125 
Q 48.390625 -1.21875 39.0625 -1.21875 
Q 28.953125 -1.21875 20.984375 3.65625 
Q 13.03125 8.546875 8.921875 16.984375 
Q 4.828125 25.4375 4.828125 34.859375 
z
M 14.59375 34.71875 
Q 14.59375 21.78125 21.546875 14.328125 
Q 28.515625 6.890625 39.015625 6.890625 
Q 49.703125 6.890625 56.609375 14.40625 
Q 63.53125 21.921875 63.53125 35.75 
Q 63.53125 44.484375 60.578125 51 
Q 57.625 57.515625 51.921875 61.109375 
Q 46.234375 64.703125 39.15625 64.703125 
Q 29.109375 64.703125 21.84375 57.78125 
Q 14.59375 50.875 14.59375 34.71875 
z
" id="ArialMT-79"/>
       <path d="M 58.796875 25.09375 
L 68.265625 22.703125 
Q 65.28125 11.03125 57.546875 4.90625 
Q 49.8125 -1.21875 38.625 -1.21875 
Q 27.046875 -1.21875 19.796875 3.484375 
Q 12.546875 8.203125 8.765625 17.140625 
Q 4.984375 26.078125 4.984375 36.328125 
Q 4.984375 47.515625 9.25 55.828125 
Q 13.53125 64.15625 21.40625 68.46875 
Q 29.296875 72.796875 38.765625 72.796875 
Q 49.515625 72.796875 56.828125 67.328125 
Q 64.15625 61.859375 67.046875 51.953125 
L 57.71875 49.75 
Q 55.21875 57.5625 50.484375 61.125 
Q 45.75 64.703125 38.578125 64.703125 
Q 30.328125 64.703125 24.78125 60.734375 
Q 19.234375 56.78125 16.984375 50.109375 
Q 14.75 43.453125 14.75 36.375 
Q 14.75 27.25 17.40625 20.4375 
Q 20.0625 13.625 25.671875 10.25 
Q 31.296875 6.890625 37.84375 6.890625 
Q 45.796875 6.890625 51.3125 11.46875 
Q 56.84375 16.0625 58.796875 25.09375 
z
" id="ArialMT-67"/>
       <path d="M 8.015625 0 
L 8.015625 71.578125 
L 17.484375 71.578125 
L 17.484375 42.1875 
L 54.6875 42.1875 
L 54.6875 71.578125 
L 64.15625 71.578125 
L 64.15625 0 
L 54.6875 0 
L 54.6875 33.734375 
L 17.484375 33.734375 
L 17.484375 0 
z
" id="ArialMT-72"/>
       <path d="M 7.90625 0 
L 7.90625 71.578125 
L 59.671875 71.578125 
L 59.671875 63.140625 
L 17.390625 63.140625 
L 17.390625 41.21875 
L 56.984375 41.21875 
L 56.984375 32.8125 
L 17.390625 32.8125 
L 17.390625 8.453125 
L 61.328125 8.453125 
L 61.328125 0 
z
" id="ArialMT-69"/>
       <path d="M 7.421875 0 
L 7.421875 71.578125 
L 21.6875 71.578125 
L 38.625 20.90625 
Q 40.96875 13.8125 42.046875 10.296875 
Q 43.265625 14.203125 45.84375 21.78125 
L 62.984375 71.578125 
L 75.734375 71.578125 
L 75.734375 0 
L 66.609375 0 
L 66.609375 59.90625 
L 45.796875 0 
L 37.25 0 
L 16.546875 60.9375 
L 16.546875 0 
z
" id="ArialMT-77"/>
      </defs>
      <g style="fill:#262626;" transform="translate(384.702562 469.352469)scale(0.198 -0.198)">
       <use xlink:href="#ArialMT-79"/>
       <use x="77.783203" xlink:href="#ArialMT-67"/>
       <use x="150" xlink:href="#ArialMT-72"/>
       <use x="222.216797" xlink:href="#ArialMT-69"/>
       <use x="288.916016" xlink:href="#ArialMT-77"/>
      </g>
     </g>
    </g>
    <g id="xtick_4">
     <g id="line2d_4">
      <g>
       <use style="fill:#262626;stroke:#262626;stroke-width:2.5;" x="561.052219" xlink:href="#m0dd81457a1" y="446.88"/>
      </g>
     </g>
     <g id="text_4">
      <!-- Enamine -->
      <defs>
       <path d="M 6.59375 0 
L 6.59375 51.859375 
L 14.5 51.859375 
L 14.5 44.484375 
Q 20.21875 53.03125 31 53.03125 
Q 35.6875 53.03125 39.625 51.34375 
Q 43.5625 49.65625 45.515625 46.921875 
Q 47.46875 44.1875 48.25 40.4375 
Q 48.734375 37.984375 48.734375 31.890625 
L 48.734375 0 
L 39.9375 0 
L 39.9375 31.546875 
Q 39.9375 36.921875 38.90625 39.578125 
Q 37.890625 42.234375 35.28125 43.8125 
Q 32.671875 45.40625 29.15625 45.40625 
Q 23.53125 45.40625 19.453125 41.84375 
Q 15.375 38.28125 15.375 28.328125 
L 15.375 0 
z
" id="ArialMT-110"/>
       <path d="M 6.640625 61.46875 
L 6.640625 71.578125 
L 15.4375 71.578125 
L 15.4375 61.46875 
z
M 6.640625 0 
L 6.640625 51.859375 
L 15.4375 51.859375 
L 15.4375 0 
z
" id="ArialMT-105"/>
      </defs>
      <g style="fill:#262626;" transform="translate(521.98125 469.352469)scale(0.198 -0.198)">
       <use xlink:href="#ArialMT-69"/>
       <use x="66.699219" xlink:href="#ArialMT-110"/>
       <use x="122.314453" xlink:href="#ArialMT-97"/>
       <use x="177.929688" xlink:href="#ArialMT-109"/>
       <use x="261.230469" xlink:href="#ArialMT-105"/>
       <use x="283.447266" xlink:href="#ArialMT-110"/>
       <use x="339.0625" xlink:href="#ArialMT-101"/>
      </g>
     </g>
    </g>
   </g>
   <g id="matplotlib.axis_2">
    <g id="ytick_1">
     <g id="line2d_5">
      <defs>
       <path d="M 0 0 
L -4.8 0 
" id="m1496e5f180" style="stroke:#262626;stroke-width:2.5;"/>
      </defs>
      <g>
       <use style="fill:#262626;stroke:#262626;stroke-width:2.5;" x="72.802219" xlink:href="#m1496e5f180" y="399.650763"/>
      </g>
     </g>
     <g id="text_5">
      <!-- 100 -->
      <defs>
       <path d="M 37.25 0 
L 28.46875 0 
L 28.46875 56 
Q 25.296875 52.984375 20.140625 49.953125 
Q 14.984375 46.921875 10.890625 45.40625 
L 10.890625 53.90625 
Q 18.265625 57.375 23.78125 62.296875 
Q 29.296875 67.234375 31.59375 71.875 
L 37.25 71.875 
z
" id="ArialMT-49"/>
       <path d="M 4.15625 35.296875 
Q 4.15625 48 6.765625 55.734375 
Q 9.375 63.484375 14.515625 67.671875 
Q 19.671875 71.875 27.484375 71.875 
Q 33.25 71.875 37.59375 69.546875 
Q 41.9375 67.234375 44.765625 62.859375 
Q 47.609375 58.5 49.21875 52.21875 
Q 50.828125 45.953125 50.828125 35.296875 
Q 50.828125 22.703125 48.234375 14.96875 
Q 45.65625 7.234375 40.5 3 
Q 35.359375 -1.21875 27.484375 -1.21875 
Q 17.140625 -1.21875 11.234375 6.203125 
Q 4.15625 15.140625 4.15625 35.296875 
z
M 13.1875 35.296875 
Q 13.1875 17.671875 17.3125 11.828125 
Q 21.4375 6 27.484375 6 
Q 33.546875 6 37.671875 11.859375 
Q 41.796875 17.71875 41.796875 35.296875 
Q 41.796875 52.984375 37.671875 58.78125 
Q 33.546875 64.59375 27.390625 64.59375 
Q 21.34375 64.59375 17.71875 59.46875 
Q 13.1875 52.9375 13.1875 35.296875 
z
" id="ArialMT-48"/>
      </defs>
      <g style="fill:#262626;" transform="translate(31.47025 406.736997)scale(0.198 -0.198)">
       <use xlink:href="#ArialMT-49"/>
       <use x="55.615234" xlink:href="#ArialMT-48"/>
       <use x="111.230469" xlink:href="#ArialMT-48"/>
      </g>
     </g>
    </g>
    <g id="ytick_2">
     <g id="line2d_6">
      <g>
       <use style="fill:#262626;stroke:#262626;stroke-width:2.5;" x="72.802219" xlink:href="#m1496e5f180" y="348.06798"/>
      </g>
     </g>
     <g id="text_6">
      <!-- 200 -->
      <defs>
       <path d="M 50.34375 8.453125 
L 50.34375 0 
L 3.03125 0 
Q 2.9375 3.171875 4.046875 6.109375 
Q 5.859375 10.9375 9.828125 15.625 
Q 13.8125 20.3125 21.34375 26.46875 
Q 33.015625 36.03125 37.109375 41.625 
Q 41.21875 47.21875 41.21875 52.203125 
Q 41.21875 57.421875 37.46875 61 
Q 33.734375 64.59375 27.734375 64.59375 
Q 21.390625 64.59375 17.578125 60.78125 
Q 13.765625 56.984375 13.71875 50.25 
L 4.6875 51.171875 
Q 5.609375 61.28125 11.65625 66.578125 
Q 17.71875 71.875 27.9375 71.875 
Q 38.234375 71.875 44.234375 66.15625 
Q 50.25 60.453125 50.25 52 
Q 50.25 47.703125 48.484375 43.546875 
Q 46.734375 39.40625 42.65625 34.8125 
Q 38.578125 30.21875 29.109375 22.21875 
Q 21.1875 15.578125 18.9375 13.203125 
Q 16.703125 10.84375 15.234375 8.453125 
z
" id="ArialMT-50"/>
      </defs>
      <g style="fill:#262626;" transform="translate(31.47025 355.154214)scale(0.198 -0.198)">
       <use xlink:href="#ArialMT-50"/>
       <use x="55.615234" xlink:href="#ArialMT-48"/>
       <use x="111.230469" xlink:href="#ArialMT-48"/>
      </g>
     </g>
    </g>
    <g id="ytick_3">
     <g id="line2d_7">
      <g>
       <use style="fill:#262626;stroke:#262626;stroke-width:2.5;" x="72.802219" xlink:href="#m1496e5f180" y="296.485197"/>
      </g>
     </g>
     <g id="text_7">
      <!-- 300 -->
      <defs>
       <path d="M 4.203125 18.890625 
L 12.984375 20.0625 
Q 14.5 12.59375 18.140625 9.296875 
Q 21.78125 6 27 6 
Q 33.203125 6 37.46875 10.296875 
Q 41.75 14.59375 41.75 20.953125 
Q 41.75 27 37.796875 30.921875 
Q 33.84375 34.859375 27.734375 34.859375 
Q 25.25 34.859375 21.53125 33.890625 
L 22.515625 41.609375 
Q 23.390625 41.5 23.921875 41.5 
Q 29.546875 41.5 34.03125 44.421875 
Q 38.53125 47.359375 38.53125 53.46875 
Q 38.53125 58.296875 35.25 61.46875 
Q 31.984375 64.65625 26.8125 64.65625 
Q 21.6875 64.65625 18.265625 61.421875 
Q 14.84375 58.203125 13.875 51.765625 
L 5.078125 53.328125 
Q 6.6875 62.15625 12.390625 67.015625 
Q 18.109375 71.875 26.609375 71.875 
Q 32.46875 71.875 37.390625 69.359375 
Q 42.328125 66.84375 44.9375 62.5 
Q 47.5625 58.15625 47.5625 53.265625 
Q 47.5625 48.640625 45.0625 44.828125 
Q 42.578125 41.015625 37.703125 38.765625 
Q 44.046875 37.3125 47.5625 32.6875 
Q 51.078125 28.078125 51.078125 21.140625 
Q 51.078125 11.765625 44.234375 5.25 
Q 37.40625 -1.265625 26.953125 -1.265625 
Q 17.53125 -1.265625 11.296875 4.34375 
Q 5.078125 9.96875 4.203125 18.890625 
z
" id="ArialMT-51"/>
      </defs>
      <g style="fill:#262626;" transform="translate(31.47025 303.571432)scale(0.198 -0.198)">
       <use xlink:href="#ArialMT-51"/>
       <use x="55.615234" xlink:href="#ArialMT-48"/>
       <use x="111.230469" xlink:href="#ArialMT-48"/>
      </g>
     </g>
    </g>
    <g id="ytick_4">
     <g id="line2d_8">
      <g>
       <use style="fill:#262626;stroke:#262626;stroke-width:2.5;" x="72.802219" xlink:href="#m1496e5f180" y="244.902414"/>
      </g>
     </g>
     <g id="text_8">
      <!-- 400 -->
      <defs>
       <path d="M 32.328125 0 
L 32.328125 17.140625 
L 1.265625 17.140625 
L 1.265625 25.203125 
L 33.9375 71.578125 
L 41.109375 71.578125 
L 41.109375 25.203125 
L 50.78125 25.203125 
L 50.78125 17.140625 
L 41.109375 17.140625 
L 41.109375 0 
z
M 32.328125 25.203125 
L 32.328125 57.46875 
L 9.90625 25.203125 
z
" id="ArialMT-52"/>
      </defs>
      <g style="fill:#262626;" transform="translate(31.47025 251.988649)scale(0.198 -0.198)">
       <use xlink:href="#ArialMT-52"/>
       <use x="55.615234" xlink:href="#ArialMT-48"/>
       <use x="111.230469" xlink:href="#ArialMT-48"/>
      </g>
     </g>
    </g>
    <g id="ytick_5">
     <g id="line2d_9">
      <g>
       <use style="fill:#262626;stroke:#262626;stroke-width:2.5;" x="72.802219" xlink:href="#m1496e5f180" y="193.319632"/>
      </g>
     </g>
     <g id="text_9">
      <!-- 500 -->
      <defs>
       <path d="M 4.15625 18.75 
L 13.375 19.53125 
Q 14.40625 12.796875 18.140625 9.390625 
Q 21.875 6 27.15625 6 
Q 33.5 6 37.890625 10.78125 
Q 42.28125 15.578125 42.28125 23.484375 
Q 42.28125 31 38.0625 35.34375 
Q 33.84375 39.703125 27 39.703125 
Q 22.75 39.703125 19.328125 37.765625 
Q 15.921875 35.84375 13.96875 32.765625 
L 5.71875 33.84375 
L 12.640625 70.609375 
L 48.25 70.609375 
L 48.25 62.203125 
L 19.671875 62.203125 
L 15.828125 42.96875 
Q 22.265625 47.46875 29.34375 47.46875 
Q 38.71875 47.46875 45.15625 40.96875 
Q 51.609375 34.46875 51.609375 24.265625 
Q 51.609375 14.546875 45.953125 7.46875 
Q 39.0625 -1.21875 27.15625 -1.21875 
Q 17.390625 -1.21875 11.203125 4.25 
Q 5.03125 9.71875 4.15625 18.75 
z
" id="ArialMT-53"/>
      </defs>
      <g style="fill:#262626;" transform="translate(31.47025 200.405866)scale(0.198 -0.198)">
       <use xlink:href="#ArialMT-53"/>
       <use x="55.615234" xlink:href="#ArialMT-48"/>
       <use x="111.230469" xlink:href="#ArialMT-48"/>
      </g>
     </g>
    </g>
    <g id="ytick_6">
     <g id="line2d_10">
      <g>
       <use style="fill:#262626;stroke:#262626;stroke-width:2.5;" x="72.802219" xlink:href="#m1496e5f180" y="141.736849"/>
      </g>
     </g>
     <g id="text_10">
      <!-- 600 -->
      <defs>
       <path d="M 49.75 54.046875 
L 41.015625 53.375 
Q 39.84375 58.546875 37.703125 60.890625 
Q 34.125 64.65625 28.90625 64.65625 
Q 24.703125 64.65625 21.53125 62.3125 
Q 17.390625 59.28125 14.984375 53.46875 
Q 12.59375 47.65625 12.5 36.921875 
Q 15.671875 41.75 20.265625 44.09375 
Q 24.859375 46.4375 29.890625 46.4375 
Q 38.671875 46.4375 44.84375 39.96875 
Q 51.03125 33.5 51.03125 23.25 
Q 51.03125 16.5 48.125 10.71875 
Q 45.21875 4.9375 40.140625 1.859375 
Q 35.0625 -1.21875 28.609375 -1.21875 
Q 17.625 -1.21875 10.6875 6.859375 
Q 3.765625 14.9375 3.765625 33.5 
Q 3.765625 54.25 11.421875 63.671875 
Q 18.109375 71.875 29.4375 71.875 
Q 37.890625 71.875 43.28125 67.140625 
Q 48.6875 62.40625 49.75 54.046875 
z
M 13.875 23.1875 
Q 13.875 18.65625 15.796875 14.5 
Q 17.71875 10.359375 21.1875 8.171875 
Q 24.65625 6 28.46875 6 
Q 34.03125 6 38.03125 10.484375 
Q 42.046875 14.984375 42.046875 22.703125 
Q 42.046875 30.125 38.078125 34.390625 
Q 34.125 38.671875 28.125 38.671875 
Q 22.171875 38.671875 18.015625 34.390625 
Q 13.875 30.125 13.875 23.1875 
z
" id="ArialMT-54"/>
      </defs>
      <g style="fill:#262626;" transform="translate(31.47025 148.823083)scale(0.198 -0.198)">
       <use xlink:href="#ArialMT-54"/>
       <use x="55.615234" xlink:href="#ArialMT-48"/>
       <use x="111.230469" xlink:href="#ArialMT-48"/>
      </g>
     </g>
    </g>
    <g id="ytick_7">
     <g id="line2d_11">
      <g>
       <use style="fill:#262626;stroke:#262626;stroke-width:2.5;" x="72.802219" xlink:href="#m1496e5f180" y="90.154066"/>
      </g>
     </g>
     <g id="text_11">
      <!-- 700 -->
      <defs>
       <path d="M 4.734375 62.203125 
L 4.734375 70.65625 
L 51.078125 70.65625 
L 51.078125 63.8125 
Q 44.234375 56.546875 37.515625 44.484375 
Q 30.8125 32.421875 27.15625 19.671875 
Q 24.515625 10.6875 23.78125 0 
L 14.75 0 
Q 14.890625 8.453125 18.0625 20.40625 
Q 21.234375 32.375 27.171875 43.484375 
Q 33.109375 54.59375 39.796875 62.203125 
z
" id="ArialMT-55"/>
      </defs>
      <g style="fill:#262626;" transform="translate(31.47025 97.2403)scale(0.198 -0.198)">
       <use xlink:href="#ArialMT-55"/>
       <use x="55.615234" xlink:href="#ArialMT-48"/>
       <use x="111.230469" xlink:href="#ArialMT-48"/>
      </g>
     </g>
    </g>
    <g id="ytick_8">
     <g id="line2d_12">
      <g>
       <use style="fill:#262626;stroke:#262626;stroke-width:2.5;" x="72.802219" xlink:href="#m1496e5f180" y="38.571283"/>
      </g>
     </g>
     <g id="text_12">
      <!-- 800 -->
      <defs>
       <path d="M 17.671875 38.8125 
Q 12.203125 40.828125 9.5625 44.53125 
Q 6.9375 48.25 6.9375 53.421875 
Q 6.9375 61.234375 12.546875 66.546875 
Q 18.171875 71.875 27.484375 71.875 
Q 36.859375 71.875 42.578125 66.421875 
Q 48.296875 60.984375 48.296875 53.171875 
Q 48.296875 48.1875 45.671875 44.5 
Q 43.0625 40.828125 37.75 38.8125 
Q 44.34375 36.671875 47.78125 31.875 
Q 51.21875 27.09375 51.21875 20.453125 
Q 51.21875 11.28125 44.71875 5.03125 
Q 38.234375 -1.21875 27.640625 -1.21875 
Q 17.046875 -1.21875 10.546875 5.046875 
Q 4.046875 11.328125 4.046875 20.703125 
Q 4.046875 27.6875 7.59375 32.390625 
Q 11.140625 37.109375 17.671875 38.8125 
z
M 15.921875 53.71875 
Q 15.921875 48.640625 19.1875 45.40625 
Q 22.46875 42.1875 27.6875 42.1875 
Q 32.765625 42.1875 36.015625 45.375 
Q 39.265625 48.578125 39.265625 53.21875 
Q 39.265625 58.0625 35.90625 61.359375 
Q 32.5625 64.65625 27.59375 64.65625 
Q 22.5625 64.65625 19.234375 61.421875 
Q 15.921875 58.203125 15.921875 53.71875 
z
M 13.09375 20.65625 
Q 13.09375 16.890625 14.875 13.375 
Q 16.65625 9.859375 20.171875 7.921875 
Q 23.6875 6 27.734375 6 
Q 34.03125 6 38.125 10.046875 
Q 42.234375 14.109375 42.234375 20.359375 
Q 42.234375 26.703125 38.015625 30.859375 
Q 33.796875 35.015625 27.4375 35.015625 
Q 21.234375 35.015625 17.15625 30.90625 
Q 13.09375 26.8125 13.09375 20.65625 
z
" id="ArialMT-56"/>
      </defs>
      <g style="fill:#262626;" transform="translate(31.47025 45.657518)scale(0.198 -0.198)">
       <use xlink:href="#ArialMT-56"/>
       <use x="55.615234" xlink:href="#ArialMT-48"/>
       <use x="111.230469" xlink:href="#ArialMT-48"/>
      </g>
     </g>
    </g>
    <g id="text_13">
     <!-- Melting Temperature (K) -->
     <defs>
      <path d="M 25.921875 0 
L 25.921875 63.140625 
L 2.34375 63.140625 
L 2.34375 71.578125 
L 59.078125 71.578125 
L 59.078125 63.140625 
L 35.40625 63.140625 
L 35.40625 0 
z
" id="ArialMT-84"/>
      <path d="M 6.59375 -19.875 
L 6.59375 51.859375 
L 14.59375 51.859375 
L 14.59375 45.125 
Q 17.4375 49.078125 21 51.046875 
Q 24.5625 53.03125 29.640625 53.03125 
Q 36.28125 53.03125 41.359375 49.609375 
Q 46.4375 46.1875 49.015625 39.953125 
Q 51.609375 33.734375 51.609375 26.3125 
Q 51.609375 18.359375 48.75 11.984375 
Q 45.90625 5.609375 40.453125 2.21875 
Q 35.015625 -1.171875 29 -1.171875 
Q 24.609375 -1.171875 21.109375 0.6875 
Q 17.625 2.546875 15.375 5.375 
L 15.375 -19.875 
z
M 14.546875 25.640625 
Q 14.546875 15.625 18.59375 10.84375 
Q 22.65625 6.0625 28.421875 6.0625 
Q 34.28125 6.0625 38.453125 11.015625 
Q 42.625 15.96875 42.625 26.375 
Q 42.625 36.28125 38.546875 41.203125 
Q 34.46875 46.140625 28.8125 46.140625 
Q 23.1875 46.140625 18.859375 40.890625 
Q 14.546875 35.640625 14.546875 25.640625 
z
" id="ArialMT-112"/>
      <path d="M 40.578125 0 
L 40.578125 7.625 
Q 34.515625 -1.171875 24.125 -1.171875 
Q 19.53125 -1.171875 15.546875 0.578125 
Q 11.578125 2.34375 9.640625 5 
Q 7.71875 7.671875 6.9375 11.53125 
Q 6.390625 14.109375 6.390625 19.734375 
L 6.390625 51.859375 
L 15.1875 51.859375 
L 15.1875 23.09375 
Q 15.1875 16.21875 15.71875 13.8125 
Q 16.546875 10.359375 19.234375 8.375 
Q 21.921875 6.390625 25.875 6.390625 
Q 29.828125 6.390625 33.296875 8.421875 
Q 36.765625 10.453125 38.203125 13.9375 
Q 39.65625 17.4375 39.65625 24.078125 
L 39.65625 51.859375 
L 48.4375 51.859375 
L 48.4375 0 
z
" id="ArialMT-117"/>
      <path d="M 23.390625 -21.046875 
Q 16.109375 -11.859375 11.078125 0.4375 
Q 6.0625 12.75 6.0625 25.921875 
Q 6.0625 37.546875 9.8125 48.1875 
Q 14.203125 60.546875 23.390625 72.796875 
L 29.6875 72.796875 
Q 23.78125 62.640625 21.875 58.296875 
Q 18.890625 51.5625 17.1875 44.234375 
Q 15.09375 35.109375 15.09375 25.875 
Q 15.09375 2.390625 29.6875 -21.046875 
z
" id="ArialMT-40"/>
      <path d="M 7.328125 0 
L 7.328125 71.578125 
L 16.796875 71.578125 
L 16.796875 36.078125 
L 52.34375 71.578125 
L 65.1875 71.578125 
L 35.15625 42.578125 
L 66.5 0 
L 54 0 
L 28.515625 36.234375 
L 16.796875 24.8125 
L 16.796875 0 
z
" id="ArialMT-75"/>
      <path d="M 12.359375 -21.046875 
L 6.0625 -21.046875 
Q 20.65625 2.390625 20.65625 25.875 
Q 20.65625 35.0625 18.5625 44.09375 
Q 16.890625 51.421875 13.921875 58.15625 
Q 12.015625 62.546875 6.0625 72.796875 
L 12.359375 72.796875 
Q 21.53125 60.546875 25.921875 48.1875 
Q 29.6875 37.546875 29.6875 25.921875 
Q 29.6875 12.75 24.625 0.4375 
Q 19.578125 -11.859375 12.359375 -21.046875 
z
" id="ArialMT-41"/>
     </defs>
     <g style="fill:#262626;" transform="translate(22.924125 346.449562)rotate(-90)scale(0.216 -0.216)">
      <use xlink:href="#ArialMT-77"/>
      <use x="83.300781" xlink:href="#ArialMT-101"/>
      <use x="138.916016" xlink:href="#ArialMT-108"/>
      <use x="161.132812" xlink:href="#ArialMT-116"/>
      <use x="188.916016" xlink:href="#ArialMT-105"/>
      <use x="211.132812" xlink:href="#ArialMT-110"/>
      <use x="266.748047" xlink:href="#ArialMT-103"/>
      <use x="322.363281" xlink:href="#ArialMT-32"/>
      <use x="350.130859" xlink:href="#ArialMT-84"/>
      <use x="411.042969" xlink:href="#ArialMT-101"/>
      <use x="466.658203" xlink:href="#ArialMT-109"/>
      <use x="549.958984" xlink:href="#ArialMT-112"/>
      <use x="605.574219" xlink:href="#ArialMT-101"/>
      <use x="661.189453" xlink:href="#ArialMT-114"/>
      <use x="694.490234" xlink:href="#ArialMT-97"/>
      <use x="750.105469" xlink:href="#ArialMT-116"/>
      <use x="777.888672" xlink:href="#ArialMT-117"/>
      <use x="833.503906" xlink:href="#ArialMT-114"/>
      <use x="866.804688" xlink:href="#ArialMT-101"/>
      <use x="922.419922" xlink:href="#ArialMT-32"/>
      <use x="950.203125" xlink:href="#ArialMT-40"/>
      <use x="983.503906" xlink:href="#ArialMT-75"/>
      <use x="1050.203125" xlink:href="#ArialMT-41"/>
     </g>
    </g>
   </g>
   <g id="PolyCollection_1">
    <defs>
     <path d="M 142.554114 -58.275665 
L 142.550323 -58.275665 
L 142.543568 -62.197393 
L 142.528515 -66.119121 
L 142.507805 -70.040849 
L 142.490086 -73.962577 
L 142.478353 -77.884305 
L 142.450882 -81.806033 
L 142.389749 -85.727761 
L 142.289707 -89.649489 
L 142.102805 -93.571217 
L 141.815369 -97.492945 
L 141.547429 -101.414673 
L 141.345748 -105.336401 
L 141.101492 -109.258129 
L 140.788918 -113.179857 
L 140.470287 -117.101585 
L 140.167434 -121.023313 
L 139.836292 -124.945041 
L 139.47891 -128.866769 
L 139.234809 -132.788497 
L 139.124065 -136.710225 
L 139.019816 -140.631953 
L 138.86213 -144.553681 
L 138.669695 -148.475409 
L 138.434349 -152.397137 
L 138.144777 -156.318865 
L 137.820418 -160.240593 
L 137.409775 -164.162321 
L 136.812877 -168.084049 
L 135.790309 -172.005777 
L 134.008488 -175.927505 
L 131.239328 -179.849233 
L 126.909727 -183.770961 
L 120.868255 -187.692689 
L 114.436791 -191.614417 
L 108.756975 -195.536145 
L 104.209249 -199.457873 
L 101.057 -203.3796 
L 99.034125 -207.301328 
L 97.574557 -211.223056 
L 96.349969 -215.144784 
L 95.273431 -219.066512 
L 94.575881 -222.98824 
L 94.321685 -226.909968 
L 94.377328 -230.831696 
L 94.637856 -234.753424 
L 94.802195 -238.675152 
L 94.762527 -242.59688 
L 95.053892 -246.518608 
L 96.116468 -250.440336 
L 97.709568 -254.362064 
L 99.623745 -258.283792 
L 102.200905 -262.20552 
L 105.554694 -266.127248 
L 108.772319 -270.048976 
L 111.361916 -273.970704 
L 113.906659 -277.892432 
L 116.782503 -281.81416 
L 119.850348 -285.735888 
L 122.772584 -289.657616 
L 125.296521 -293.579344 
L 127.401099 -297.501072 
L 129.259072 -301.4228 
L 131.079943 -305.344528 
L 132.748012 -309.266256 
L 134.167177 -313.187984 
L 135.370296 -317.109712 
L 136.232605 -321.03144 
L 137.021797 -324.953168 
L 138.207938 -328.874896 
L 139.435155 -332.796624 
L 140.311424 -336.718352 
L 140.905329 -340.64008 
L 141.296787 -344.561808 
L 141.546129 -348.483536 
L 141.725143 -352.405264 
L 141.905541 -356.326992 
L 142.105047 -360.24872 
L 142.258326 -364.170448 
L 142.350997 -368.092176 
L 142.418298 -372.013904 
L 142.471516 -375.935632 
L 142.505073 -379.85736 
L 142.521372 -383.779088 
L 142.531944 -387.700816 
L 142.536137 -391.622544 
L 142.526815 -395.544272 
L 142.51358 -399.466 
L 142.516127 -403.387728 
L 142.532822 -407.309456 
L 142.542611 -411.231183 
L 142.536766 -415.152911 
L 142.524083 -419.074639 
L 142.519192 -422.996367 
L 142.525258 -426.918095 
L 142.532462 -430.839823 
L 142.536646 -434.761551 
L 142.541465 -438.683279 
L 142.547345 -442.605007 
L 142.550984 -446.526735 
L 142.553453 -446.526735 
L 142.553453 -446.526735 
L 142.557093 -442.605007 
L 142.562973 -438.683279 
L 142.567792 -434.761551 
L 142.571975 -430.839823 
L 142.57918 -426.918095 
L 142.585246 -422.996367 
L 142.580355 -419.074639 
L 142.567671 -415.152911 
L 142.561827 -411.231183 
L 142.571615 -407.309456 
L 142.58831 -403.387728 
L 142.590857 -399.466 
L 142.577623 -395.544272 
L 142.5683 -391.622544 
L 142.572493 -387.700816 
L 142.583065 -383.779088 
L 142.599364 -379.85736 
L 142.632922 -375.935632 
L 142.68614 -372.013904 
L 142.75344 -368.092176 
L 142.846112 -364.170448 
L 142.99939 -360.24872 
L 143.198897 -356.326992 
L 143.379294 -352.405264 
L 143.558309 -348.483536 
L 143.807651 -344.561808 
L 144.199108 -340.64008 
L 144.793014 -336.718352 
L 145.669282 -332.796624 
L 146.896499 -328.874896 
L 148.082641 -324.953168 
L 148.871832 -321.03144 
L 149.734141 -317.109712 
L 150.937261 -313.187984 
L 152.356426 -309.266256 
L 154.024495 -305.344528 
L 155.845365 -301.4228 
L 157.703338 -297.501072 
L 159.807917 -293.579344 
L 162.331853 -289.657616 
L 165.254089 -285.735888 
L 168.321934 -281.81416 
L 171.197779 -277.892432 
L 173.742522 -273.970704 
L 176.332119 -270.048976 
L 179.549743 -266.127248 
L 182.903533 -262.20552 
L 185.480693 -258.283792 
L 187.394869 -254.362064 
L 188.98797 -250.440336 
L 190.050545 -246.518608 
L 190.341911 -242.59688 
L 190.302243 -238.675152 
L 190.466581 -234.753424 
L 190.727109 -230.831696 
L 190.782753 -226.909968 
L 190.528557 -222.98824 
L 189.831007 -219.066512 
L 188.754468 -215.144784 
L 187.52988 -211.223056 
L 186.070312 -207.301328 
L 184.047438 -203.3796 
L 180.895188 -199.457873 
L 176.347463 -195.536145 
L 170.667646 -191.614417 
L 164.236183 -187.692689 
L 158.194711 -183.770961 
L 153.86511 -179.849233 
L 151.095949 -175.927505 
L 149.314128 -172.005777 
L 148.29156 -168.084049 
L 147.694662 -164.162321 
L 147.28402 -160.240593 
L 146.959661 -156.318865 
L 146.670089 -152.397137 
L 146.434743 -148.475409 
L 146.242308 -144.553681 
L 146.084621 -140.631953 
L 145.980373 -136.710225 
L 145.869628 -132.788497 
L 145.625528 -128.866769 
L 145.268146 -124.945041 
L 144.937004 -121.023313 
L 144.634151 -117.101585 
L 144.315519 -113.179857 
L 144.002945 -109.258129 
L 143.75869 -105.336401 
L 143.557008 -101.414673 
L 143.289068 -97.492945 
L 143.001632 -93.571217 
L 142.81473 -89.649489 
L 142.714689 -85.727761 
L 142.653555 -81.806033 
L 142.626084 -77.884305 
L 142.614351 -73.962577 
L 142.596632 -70.040849 
L 142.575923 -66.119121 
L 142.560869 -62.197393 
L 142.554114 -58.275665 
z
" id="m82500ca75d" style="stroke:#373737;stroke-width:2.5;"/>
    </defs>
    <g clip-path="url(#pbcb68c7614)">
     <use style="fill:#2b8e70;stroke:#373737;stroke-width:2.5;" x="0" xlink:href="#m82500ca75d" y="480.71975"/>
    </g>
   </g>
   <g id="PolyCollection_2">
    <defs>
     <path d="M 282.088713 -53.607023 
L 282.015724 -53.607023 
L 281.973012 -57.273971 
L 281.898807 -60.94092 
L 281.784023 -64.607868 
L 281.62185 -68.274816 
L 281.403678 -71.941765 
L 281.109829 -75.608713 
L 280.701143 -79.275661 
L 280.120823 -82.94261 
L 279.311814 -86.609558 
L 278.244321 -90.276507 
L 276.938334 -93.943455 
L 275.466034 -97.610403 
L 273.931228 -101.277352 
L 272.439098 -104.9443 
L 271.075332 -108.611249 
L 269.903529 -112.278197 
L 268.972981 -115.945145 
L 268.32041 -119.612094 
L 267.956077 -123.279042 
L 267.841586 -126.945991 
L 267.879719 -130.612939 
L 267.932767 -134.279887 
L 267.865942 -137.946836 
L 267.591779 -141.613784 
L 267.086198 -145.280732 
L 266.36299 -148.947681 
L 265.42376 -152.614629 
L 264.224047 -156.281578 
L 262.688752 -159.948526 
L 260.768266 -163.615474 
L 258.485776 -167.282423 
L 255.930779 -170.949371 
L 253.206276 -174.61632 
L 250.385479 -178.283268 
L 247.52471 -181.950216 
L 244.720014 -185.617165 
L 242.14864 -189.284113 
L 240.04921 -192.951062 
L 238.647165 -196.61801 
L 238.072058 -200.284958 
L 238.313664 -203.951907 
L 239.236467 -207.618855 
L 240.639289 -211.285803 
L 242.324526 -214.952752 
L 244.139974 -218.6197 
L 245.976806 -222.286649 
L 247.737154 -225.953597 
L 249.305602 -229.620545 
L 250.558631 -233.287494 
L 251.421769 -236.954442 
L 251.943716 -240.621391 
L 252.32722 -244.288339 
L 252.872359 -247.955287 
L 253.850582 -251.622236 
L 255.385591 -255.289184 
L 257.413447 -258.956133 
L 259.733312 -262.623081 
L 262.102059 -266.290029 
L 264.316597 -269.956978 
L 266.257311 -273.623926 
L 267.896017 -277.290875 
L 269.281057 -280.957823 
L 270.506431 -284.624771 
L 271.668899 -288.29172 
L 272.825583 -291.958668 
L 273.974429 -295.625616 
L 275.071465 -299.292565 
L 276.071828 -302.959513 
L 276.961656 -306.626462 
L 277.758039 -310.29341 
L 278.484366 -313.960358 
L 279.147684 -317.627307 
L 279.736574 -321.294255 
L 280.235517 -324.961204 
L 280.638944 -328.628152 
L 280.953859 -332.2951 
L 281.193699 -335.962049 
L 281.37256 -339.628997 
L 281.504465 -343.295946 
L 281.604694 -346.962894 
L 281.68839 -350.629842 
L 281.766168 -354.296791 
L 281.840839 -357.963739 
L 281.908584 -361.630687 
L 281.96359 -365.297636 
L 282.002368 -368.964584 
L 282.025114 -372.631533 
L 282.034407 -376.298481 
L 282.033342 -379.965429 
L 282.024797 -383.632378 
L 282.01196 -387.299326 
L 281.998966 -390.966275 
L 281.990396 -394.633223 
L 281.989564 -398.300171 
L 281.996845 -401.96712 
L 282.009551 -405.634068 
L 282.023555 -409.301017 
L 282.035431 -412.967965 
L 282.043647 -416.634913 
L 282.060791 -416.634913 
L 282.060791 -416.634913 
L 282.069007 -412.967965 
L 282.080883 -409.301017 
L 282.094887 -405.634068 
L 282.107592 -401.96712 
L 282.114873 -398.300171 
L 282.114041 -394.633223 
L 282.105472 -390.966275 
L 282.092477 -387.299326 
L 282.079641 -383.632378 
L 282.071096 -379.965429 
L 282.070031 -376.298481 
L 282.079323 -372.631533 
L 282.102069 -368.964584 
L 282.140847 -365.297636 
L 282.195853 -361.630687 
L 282.263599 -357.963739 
L 282.33827 -354.296791 
L 282.416047 -350.629842 
L 282.499743 -346.962894 
L 282.599973 -343.295946 
L 282.731878 -339.628997 
L 282.910739 -335.962049 
L 283.150579 -332.2951 
L 283.465494 -328.628152 
L 283.86892 -324.961204 
L 284.367864 -321.294255 
L 284.956753 -317.627307 
L 285.620072 -313.960358 
L 286.346398 -310.29341 
L 287.142782 -306.626462 
L 288.03261 -302.959513 
L 289.032973 -299.292565 
L 290.130009 -295.625616 
L 291.278854 -291.958668 
L 292.435539 -288.29172 
L 293.598006 -284.624771 
L 294.823381 -280.957823 
L 296.208421 -277.290875 
L 297.847127 -273.623926 
L 299.78784 -269.956978 
L 302.002379 -266.290029 
L 304.371125 -262.623081 
L 306.690991 -258.956133 
L 308.718846 -255.289184 
L 310.253856 -251.622236 
L 311.232079 -247.955287 
L 311.777218 -244.288339 
L 312.160722 -240.621391 
L 312.682669 -236.954442 
L 313.545806 -233.287494 
L 314.798836 -229.620545 
L 316.367284 -225.953597 
L 318.127632 -222.286649 
L 319.964463 -218.6197 
L 321.779911 -214.952752 
L 323.465148 -211.285803 
L 324.867971 -207.618855 
L 325.790774 -203.951907 
L 326.032379 -200.284958 
L 325.457272 -196.61801 
L 324.055228 -192.951062 
L 321.955798 -189.284113 
L 319.384424 -185.617165 
L 316.579727 -181.950216 
L 313.718958 -178.283268 
L 310.898161 -174.61632 
L 308.173659 -170.949371 
L 305.618662 -167.282423 
L 303.336172 -163.615474 
L 301.415685 -159.948526 
L 299.880391 -156.281578 
L 298.680678 -152.614629 
L 297.741447 -148.947681 
L 297.018239 -145.280732 
L 296.512658 -141.613784 
L 296.238496 -137.946836 
L 296.17167 -134.279887 
L 296.224718 -130.612939 
L 296.262852 -126.945991 
L 296.14836 -123.279042 
L 295.784027 -119.612094 
L 295.131457 -115.945145 
L 294.200908 -112.278197 
L 293.029105 -108.611249 
L 291.665339 -104.9443 
L 290.17321 -101.277352 
L 288.638404 -97.610403 
L 287.166104 -93.943455 
L 285.860117 -90.276507 
L 284.792623 -86.609558 
L 283.983615 -82.94261 
L 283.403294 -79.275661 
L 282.994608 -75.608713 
L 282.70076 -71.941765 
L 282.482587 -68.274816 
L 282.320415 -64.607868 
L 282.20563 -60.94092 
L 282.131425 -57.273971 
L 282.088713 -53.607023 
z
" id="mf439934c55" style="stroke:#373737;stroke-width:2.5;"/>
    </defs>
    <g clip-path="url(#pbcb68c7614)">
     <use style="fill:#be631d;stroke:#373737;stroke-width:2.5;" x="0" xlink:href="#mf439934c55" y="480.71975"/>
    </g>
   </g>
   <g id="PolyCollection_3">
    <defs>
     <path d="M 421.555473 -55.849923 
L 421.548964 -55.849923 
L 421.541618 -59.820656 
L 421.529891 -63.791389 
L 421.521313 -67.762122 
L 421.521384 -71.732855 
L 421.51998 -75.703588 
L 421.49896 -79.67432 
L 421.449475 -83.645053 
L 421.366984 -87.615786 
L 421.230782 -91.586519 
L 421.020318 -95.557252 
L 420.763666 -99.527985 
L 420.504014 -103.498718 
L 420.20748 -107.469451 
L 419.802695 -111.440183 
L 419.299812 -115.410916 
L 418.749171 -119.381649 
L 418.113037 -123.352382 
L 417.365943 -127.323115 
L 416.668434 -131.293848 
L 416.188453 -135.264581 
L 415.887847 -139.235313 
L 415.656885 -143.206046 
L 415.421284 -147.176779 
L 415.082872 -151.147512 
L 414.583313 -155.118245 
L 413.99592 -159.088978 
L 413.410288 -163.059711 
L 412.750383 -167.030444 
L 411.681303 -171.001176 
L 409.621363 -174.971909 
L 405.970268 -178.942642 
L 400.633814 -182.913375 
L 394.48668 -186.884108 
L 388.969635 -190.854841 
L 384.980448 -194.825574 
L 382.437254 -198.796307 
L 380.775004 -202.767039 
L 379.466453 -206.737772 
L 378.333118 -210.708505 
L 377.58442 -214.679238 
L 377.446302 -218.649971 
L 377.812334 -222.620704 
L 378.307105 -226.591437 
L 378.652785 -230.562169 
L 378.859579 -234.532902 
L 379.019479 -238.503635 
L 379.169604 -242.474368 
L 379.424135 -246.445101 
L 380.039799 -250.415834 
L 381.257474 -254.386567 
L 383.106715 -258.3573 
L 385.391844 -262.328032 
L 387.798483 -266.298765 
L 390.045104 -270.269498 
L 392.122724 -274.240231 
L 394.311695 -278.210964 
L 396.82534 -282.181697 
L 399.535313 -286.15243 
L 402.122456 -290.123163 
L 404.425953 -294.093895 
L 406.499959 -298.064628 
L 408.434942 -302.035361 
L 410.247459 -306.006094 
L 411.827491 -309.976827 
L 412.990953 -313.94756 
L 413.670844 -317.918293 
L 414.17756 -321.889025 
L 415.096499 -325.859758 
L 416.563383 -329.830491 
L 418.061289 -333.801224 
L 419.16939 -337.771957 
L 419.888858 -341.74269 
L 420.331598 -345.713423 
L 420.567949 -349.684156 
L 420.702371 -353.654888 
L 420.868033 -357.625621 
L 421.086588 -361.596354 
L 421.271224 -365.567087 
L 421.381608 -369.53782 
L 421.444781 -373.508553 
L 421.480747 -377.479286 
L 421.49674 -381.450018 
L 421.50657 -385.420751 
L 421.516433 -389.391484 
L 421.51638 -393.362217 
L 421.502212 -397.33295 
L 421.491114 -401.303683 
L 421.499331 -405.274416 
L 421.515912 -409.245149 
L 421.518726 -413.215881 
L 421.504829 -417.186614 
L 421.491026 -421.157347 
L 421.491136 -425.12808 
L 421.50197 -429.098813 
L 421.514011 -433.069546 
L 421.524906 -437.040279 
L 421.535851 -441.011012 
L 421.544951 -444.981744 
L 421.549997 -448.952477 
L 421.55444 -448.952477 
L 421.55444 -448.952477 
L 421.559486 -444.981744 
L 421.568586 -441.011012 
L 421.579532 -437.040279 
L 421.590426 -433.069546 
L 421.602467 -429.098813 
L 421.613301 -425.12808 
L 421.613412 -421.157347 
L 421.599608 -417.186614 
L 421.585712 -413.215881 
L 421.588526 -409.245149 
L 421.605107 -405.274416 
L 421.613324 -401.303683 
L 421.602225 -397.33295 
L 421.588057 -393.362217 
L 421.588005 -389.391484 
L 421.597868 -385.420751 
L 421.607698 -381.450018 
L 421.62369 -377.479286 
L 421.659657 -373.508553 
L 421.72283 -369.53782 
L 421.833214 -365.567087 
L 422.017849 -361.596354 
L 422.236405 -357.625621 
L 422.402067 -353.654888 
L 422.536488 -349.684156 
L 422.77284 -345.713423 
L 423.21558 -341.74269 
L 423.935048 -337.771957 
L 425.043149 -333.801224 
L 426.541054 -329.830491 
L 428.007939 -325.859758 
L 428.926877 -321.889025 
L 429.433593 -317.918293 
L 430.113484 -313.94756 
L 431.276946 -309.976827 
L 432.856979 -306.006094 
L 434.669495 -302.035361 
L 436.604478 -298.064628 
L 438.678484 -294.093895 
L 440.981981 -290.123163 
L 443.569124 -286.15243 
L 446.279098 -282.181697 
L 448.792742 -278.210964 
L 450.981713 -274.240231 
L 453.059333 -270.269498 
L 455.305954 -266.298765 
L 457.712594 -262.328032 
L 459.997722 -258.3573 
L 461.846964 -254.386567 
L 463.064638 -250.415834 
L 463.680303 -246.445101 
L 463.934833 -242.474368 
L 464.084959 -238.503635 
L 464.244859 -234.532902 
L 464.451653 -230.562169 
L 464.797332 -226.591437 
L 465.292104 -222.620704 
L 465.658136 -218.649971 
L 465.520017 -214.679238 
L 464.77132 -210.708505 
L 463.637985 -206.737772 
L 462.329434 -202.767039 
L 460.667183 -198.796307 
L 458.123989 -194.825574 
L 454.134802 -190.854841 
L 448.617757 -186.884108 
L 442.470623 -182.913375 
L 437.13417 -178.942642 
L 433.483074 -174.971909 
L 431.423135 -171.001176 
L 430.354055 -167.030444 
L 429.69415 -163.059711 
L 429.108518 -159.088978 
L 428.521124 -155.118245 
L 428.021566 -151.147512 
L 427.683153 -147.176779 
L 427.447552 -143.206046 
L 427.21659 -139.235313 
L 426.915985 -135.264581 
L 426.436003 -131.293848 
L 425.738494 -127.323115 
L 424.9914 -123.352382 
L 424.355267 -119.381649 
L 423.804625 -115.410916 
L 423.301742 -111.440183 
L 422.896958 -107.469451 
L 422.600423 -103.498718 
L 422.340771 -99.527985 
L 422.08412 -95.557252 
L 421.873655 -91.586519 
L 421.737453 -87.615786 
L 421.654962 -83.645053 
L 421.605477 -79.67432 
L 421.584457 -75.703588 
L 421.583053 -71.732855 
L 421.583124 -67.762122 
L 421.574547 -63.791389 
L 421.56282 -59.820656 
L 421.555473 -55.849923 
z
" id="m41812d2adb" style="stroke:#373737;stroke-width:2.5;"/>
    </defs>
    <g clip-path="url(#pbcb68c7614)">
     <use style="fill:#7c78ab;stroke:#373737;stroke-width:2.5;" x="0" xlink:href="#m41812d2adb" y="480.71975"/>
    </g>
   </g>
   <g id="PolyCollection_4">
    <defs>
     <path d="M 561.065813 -164.104096 
L 561.038625 -164.104096 
L 560.998319 -166.330759 
L 560.873589 -168.557421 
L 560.56582 -170.784083 
L 559.976228 -173.010746 
L 559.116087 -175.237408 
L 558.151134 -177.46407 
L 557.205106 -179.690733 
L 556.065937 -181.917395 
L 554.225694 -184.144057 
L 551.312102 -186.37072 
L 547.397354 -188.597382 
L 542.855111 -190.824045 
L 538.057941 -193.050707 
L 533.276554 -195.277369 
L 528.743546 -197.504032 
L 524.695687 -199.730694 
L 521.339438 -201.957356 
L 518.76444 -204.184019 
L 516.885102 -206.410681 
L 515.495212 -208.637343 
L 514.365173 -210.864006 
L 513.273141 -213.090668 
L 512.034404 -215.31733 
L 510.59187 -217.543993 
L 509.059181 -219.770655 
L 507.638726 -221.997318 
L 506.503866 -224.22398 
L 505.742761 -226.450642 
L 505.352963 -228.677305 
L 505.252219 -230.903967 
L 505.31091 -233.130629 
L 505.398719 -235.357292 
L 505.418903 -237.583954 
L 505.345822 -239.810616 
L 505.285506 -242.037279 
L 505.47154 -244.263941 
L 506.099349 -246.490603 
L 507.132932 -248.717266 
L 508.322714 -250.943928 
L 509.412078 -253.170591 
L 510.314314 -255.397253 
L 511.166643 -257.623915 
L 512.275431 -259.850578 
L 513.942425 -262.07724 
L 516.229302 -264.303902 
L 518.855711 -266.530565 
L 521.383203 -268.757227 
L 523.544971 -270.983889 
L 525.391305 -273.210552 
L 527.141387 -275.437214 
L 528.962792 -277.663876 
L 530.899622 -279.890539 
L 532.929246 -282.117201 
L 535.013895 -284.343864 
L 537.100178 -286.570526 
L 539.108598 -288.797188 
L 540.945156 -291.023851 
L 542.532584 -293.250513 
L 543.850537 -295.477175 
L 544.964491 -297.703838 
L 546.007986 -299.9305 
L 547.100121 -302.157162 
L 548.254303 -304.383825 
L 549.378414 -306.610487 
L 550.381 -308.837149 
L 551.27378 -311.063812 
L 552.160618 -313.290474 
L 553.125928 -315.517137 
L 554.139165 -317.743799 
L 555.07449 -319.970461 
L 555.826301 -322.197124 
L 556.397802 -324.423786 
L 556.874067 -326.650448 
L 557.330584 -328.877111 
L 557.786334 -331.103773 
L 558.223978 -333.330435 
L 558.622188 -335.557098 
L 558.967266 -337.78376 
L 559.252376 -340.010422 
L 559.477233 -342.237085 
L 559.652435 -344.463747 
L 559.802622 -346.69041 
L 559.957544 -348.917072 
L 560.132509 -351.143734 
L 560.315109 -353.370397 
L 560.473277 -355.597059 
L 560.581498 -357.823721 
L 560.642029 -360.050384 
L 560.680182 -362.277046 
L 560.720788 -364.503708 
L 560.771454 -366.730371 
L 560.824886 -368.957033 
L 560.87181 -371.183696 
L 560.910568 -373.410358 
L 560.945813 -375.63702 
L 560.980268 -377.863683 
L 561.01078 -380.090345 
L 561.03262 -382.317007 
L 561.044767 -384.54367 
L 561.059671 -384.54367 
L 561.059671 -384.54367 
L 561.071817 -382.317007 
L 561.093658 -380.090345 
L 561.124169 -377.863683 
L 561.158624 -375.63702 
L 561.193869 -373.410358 
L 561.232627 -371.183696 
L 561.279551 -368.957033 
L 561.332984 -366.730371 
L 561.38365 -364.503708 
L 561.424256 -362.277046 
L 561.462409 -360.050384 
L 561.522939 -357.823721 
L 561.63116 -355.597059 
L 561.789329 -353.370397 
L 561.971928 -351.143734 
L 562.146893 -348.917072 
L 562.301816 -346.69041 
L 562.452002 -344.463747 
L 562.627204 -342.237085 
L 562.852062 -340.010422 
L 563.137172 -337.78376 
L 563.482249 -335.557098 
L 563.880459 -333.330435 
L 564.318104 -331.103773 
L 564.773853 -328.877111 
L 565.230371 -326.650448 
L 565.706635 -324.423786 
L 566.278136 -322.197124 
L 567.029948 -319.970461 
L 567.965272 -317.743799 
L 568.97851 -315.517137 
L 569.94382 -313.290474 
L 570.830658 -311.063812 
L 571.723438 -308.837149 
L 572.726023 -306.610487 
L 573.850134 -304.383825 
L 575.004316 -302.157162 
L 576.096452 -299.9305 
L 577.139946 -297.703838 
L 578.253901 -295.477175 
L 579.571853 -293.250513 
L 581.159281 -291.023851 
L 582.995839 -288.797188 
L 585.00426 -286.570526 
L 587.090542 -284.343864 
L 589.175191 -282.117201 
L 591.204815 -279.890539 
L 593.141645 -277.663876 
L 594.963051 -275.437214 
L 596.713132 -273.210552 
L 598.559466 -270.983889 
L 600.721235 -268.757227 
L 603.248726 -266.530565 
L 605.875135 -264.303902 
L 608.162012 -262.07724 
L 609.829007 -259.850578 
L 610.937795 -257.623915 
L 611.790124 -255.397253 
L 612.69236 -253.170591 
L 613.781723 -250.943928 
L 614.971505 -248.717266 
L 616.005089 -246.490603 
L 616.632898 -244.263941 
L 616.818932 -242.037279 
L 616.758616 -239.810616 
L 616.685535 -237.583954 
L 616.705719 -235.357292 
L 616.793527 -233.130629 
L 616.852219 -230.903967 
L 616.751474 -228.677305 
L 616.361677 -226.450642 
L 615.600571 -224.22398 
L 614.465712 -221.997318 
L 613.045256 -219.770655 
L 611.512567 -217.543993 
L 610.070033 -215.31733 
L 608.831296 -213.090668 
L 607.739265 -210.864006 
L 606.609225 -208.637343 
L 605.219336 -206.410681 
L 603.339998 -204.184019 
L 600.764999 -201.957356 
L 597.408751 -199.730694 
L 593.360892 -197.504032 
L 588.827884 -195.277369 
L 584.046497 -193.050707 
L 579.249326 -190.824045 
L 574.707083 -188.597382 
L 570.792335 -186.37072 
L 567.878743 -184.144057 
L 566.0385 -181.917395 
L 564.899331 -179.690733 
L 563.953304 -177.46407 
L 562.98835 -175.237408 
L 562.128209 -173.010746 
L 561.538617 -170.784083 
L 561.230848 -168.557421 
L 561.106119 -166.330759 
L 561.065813 -164.104096 
z
" id="m72adf29d9c" style="stroke:#373737;stroke-width:2.5;"/>
    </defs>
    <g clip-path="url(#pbcb68c7614)">
     <use style="fill:#cf418a;stroke:#373737;stroke-width:2.5;" x="0" xlink:href="#m72adf29d9c" y="480.71975"/>
    </g>
   </g>
   <g id="line2d_13">
    <path clip-path="url(#pbcb68c7614)" d="M 142.552219 350.311831 
L 142.552219 138.04868 
" style="fill:none;stroke:#373737;stroke-linecap:round;stroke-width:2.5;"/>
   </g>
   <g id="line2d_14">
    <path clip-path="url(#pbcb68c7614)" d="M 142.552219 270.616432 
L 142.552219 217.486165 
" style="fill:none;stroke:#373737;stroke-linecap:round;stroke-width:7.5;"/>
   </g>
   <g id="line2d_15">
    <path clip-path="url(#pbcb68c7614)" d="M 282.052219 404.731667 
L 282.052219 146.301925 
" style="fill:none;stroke:#373737;stroke-linecap:round;stroke-width:2.5;"/>
   </g>
   <g id="line2d_16">
    <path clip-path="url(#pbcb68c7614)" d="M 282.052219 306.126019 
L 282.052219 240.18259 
" style="fill:none;stroke:#373737;stroke-linecap:round;stroke-width:7.5;"/>
   </g>
   <g id="line2d_17">
    <path clip-path="url(#pbcb68c7614)" d="M 421.552219 363.981268 
L 421.552219 130.82709 
" style="fill:none;stroke:#373737;stroke-linecap:round;stroke-width:2.5;"/>
   </g>
   <g id="line2d_18">
    <path clip-path="url(#pbcb68c7614)" d="M 421.552219 276.290538 
L 421.552219 217.744079 
" style="fill:none;stroke:#373737;stroke-linecap:round;stroke-width:7.5;"/>
   </g>
   <g id="line2d_19">
    <path clip-path="url(#pbcb68c7614)" d="M 561.052219 307.756035 
L 561.052219 146.817753 
" style="fill:none;stroke:#373737;stroke-linecap:round;stroke-width:2.5;"/>
   </g>
   <g id="line2d_20">
    <path clip-path="url(#pbcb68c7614)" d="M 561.052219 261.331531 
L 561.052219 215.422854 
" style="fill:none;stroke:#373737;stroke-linecap:round;stroke-width:7.5;"/>
   </g>
   <g id="patch_3">
    <path d="M 72.802219 446.88 
L 72.802219 12 
" style="fill:none;stroke:#262626;stroke-linecap:square;stroke-linejoin:miter;stroke-width:2.5;"/>
   </g>
   <g id="patch_4">
    <path d="M 630.802219 446.88 
L 630.802219 12 
" style="fill:none;stroke:#262626;stroke-linecap:square;stroke-linejoin:miter;stroke-width:2.5;"/>
   </g>
   <g id="patch_5">
    <path d="M 72.802219 446.88 
L 630.802219 446.88 
" style="fill:none;stroke:#262626;stroke-linecap:square;stroke-linejoin:miter;stroke-width:2.5;"/>
   </g>
   <g id="patch_6">
    <path d="M 72.802219 12 
L 630.802219 12 
" style="fill:none;stroke:#262626;stroke-linecap:square;stroke-linejoin:miter;stroke-width:2.5;"/>
   </g>
   <g id="PathCollection_1">
    <defs>
     <path d="M 0 2.5 
C 0.663008 2.5 1.29895 2.236584 1.767767 1.767767 
C 2.236584 1.29895 2.5 0.663008 2.5 0 
C 2.5 -0.663008 2.236584 -1.29895 1.767767 -1.767767 
C 1.29895 -2.236584 0.663008 -2.5 0 -2.5 
C -0.663008 -2.5 -1.29895 -2.236584 -1.767767 -1.767767 
C -2.236584 -1.29895 -2.5 -0.663008 -2.5 0 
C -2.5 0.663008 -2.236584 1.29895 -1.767767 1.767767 
C -1.29895 2.236584 -0.663008 2.5 0 2.5 
z
" id="m3ad60cd555" style="stroke:#373737;stroke-width:0.8;"/>
    </defs>
    <g clip-path="url(#pbcb68c7614)">
     <use style="fill:#ffffff;stroke:#373737;stroke-width:0.8;" x="142.552219" xlink:href="#m3ad60cd555" y="244.309212"/>
    </g>
   </g>
   <g id="PathCollection_2">
    <g clip-path="url(#pbcb68c7614)">
     <use style="fill:#ffffff;stroke:#373737;stroke-width:0.8;" x="282.052219" xlink:href="#m3ad60cd555" y="275.516796"/>
    </g>
   </g>
   <g id="PathCollection_3">
    <g clip-path="url(#pbcb68c7614)">
     <use style="fill:#ffffff;stroke:#373737;stroke-width:0.8;" x="421.552219" xlink:href="#m3ad60cd555" y="247.920007"/>
    </g>
   </g>
   <g id="PathCollection_4">
    <g clip-path="url(#pbcb68c7614)">
     <use style="fill:#ffffff;stroke:#373737;stroke-width:0.8;" x="561.052219" xlink:href="#m3ad60cd555" y="239.150934"/>
    </g>
   </g>
  </g>
 </g>
 <defs>
  <clipPath id="pbcb68c7614">
   <rect height="434.88" width="558" x="72.802219" y="12"/>
  </clipPath>
 </defs>
</svg>
